# Blender 4.5.3 LTS
# www.blender.org
mtllib cash_4.mtl
o cash_4
v -1.994299 0.000000 3.649536
v -1.994299 0.000000 3.649536
v -1.994299 0.000000 3.649536
v -1.994299 1.163622 3.569536
v -1.994299 1.163622 3.569536
v -1.994299 1.163622 3.569536
v -1.994299 0.000000 -3.649537
v -1.994299 0.000000 -3.649537
v -1.994299 0.000000 -3.649537
v -1.994299 1.163622 -3.569537
v -1.994299 1.163622 -3.569537
v -1.994299 1.163622 -3.569537
v 2.007800 0.000000 3.649536
v 2.007800 0.000000 3.649536
v 2.007800 0.000000 3.649536
v 2.007800 1.163622 3.569536
v 2.007800 1.163622 3.569536
v 2.007800 1.163622 3.569536
v 2.007800 0.000000 -3.649537
v 2.007800 0.000000 -3.649537
v 2.007800 0.000000 -3.649537
v 2.007800 1.163622 -3.569537
v 2.007800 1.163622 -3.569537
v 2.007800 1.163622 -3.569537
v -1.962299 0.000000 -0.000000
v -1.962299 0.000000 -0.000000
v -1.962299 1.003622 -0.000000
v -1.962299 1.003622 -0.000000
v 1.975800 0.000000 -0.000000
v 1.975800 0.000000 -0.000000
v 1.975800 1.003622 -0.000000
v 1.975800 1.003622 -0.000000
v 1.975800 1.083622 1.824768
v 1.975800 1.083622 1.824768
v -1.962299 1.083622 1.824768
v -1.962299 1.083622 1.824768
v -1.962299 1.083622 -1.824769
v -1.962299 1.083622 -1.824769
v 1.975800 1.083622 -1.824769
v 1.975800 1.083622 -1.824769
vn 0.9999 0.0079 0.0101
vn 1.0000 0.0032 -0.0000
vn 0.9999 0.0093 0.0120
vn -0.0000 0.0686 -0.9976
vn -0.0000 0.0686 0.9976
vn 0.9999 0.0079 -0.0101
vn 0.9999 0.0093 -0.0120
vn -0.0000 0.9990 -0.0448
vn -0.0000 0.9990 -0.0458
vn -0.0000 0.9990 0.0448
vn -0.0000 1.0000 -0.0000
vn -1.0000 0.0032 -0.0000
vn -0.9999 0.0079 0.0101
vn -0.9999 0.0093 0.0120
vn -0.0000 -1.0000 -0.0000
vn 1.0000 -0.0000 -0.0000
vn -0.0000 0.9990 0.0458
vn -1.0000 -0.0000 -0.0000
vn -0.9999 0.0079 -0.0101
vn -0.9999 0.0093 -0.0120
vt 0.562500 0.445312
vt 0.625000 0.375000
vt 0.500000 0.375000
vt 0.500000 0.445312
vt 0.894959 0.304688
vt 0.894531 0.375000
vt 1.000000 0.375000
vt 1.000000 0.304688
vt 0.687500 0.445312
vt 0.750000 0.445312
vt 0.750000 0.375000
vt 0.562500 0.726562
vt 0.562500 1.000000
vt 0.500000 1.000000
vt 0.500000 0.726562
vt 0.687500 0.726562
vt 0.687500 1.000000
vt 0.625000 1.000000
vt 0.625000 0.726562
vt 0.625000 0.453125
vt 0.750000 0.453125
vt 0.750000 0.726562
vt 0.625000 0.445312
vt 0.500000 0.453125
vt 0.750000 1.000000
vt 0.687500 0.445312
s 1
usemtl money_1
f 39/1/1 30/2/2 20/3/3
f 39/1/1 20/3/3 22/4/3
s 0
f 9/5/4 12/6/4 24/7/4
f 9/5/4 24/7/4 21/8/4
s 1
f 15/8/5 18/7/5 6/6/5
f 15/8/5 6/6/5 3/5/5
f 30/2/2 34/9/6 17/10/7
f 30/2/2 17/10/7 14/11/7
f 33/12/8 35/13/8 4/14/9
f 33/12/8 4/14/9 16/15/9
f 40/16/10 38/17/10 27/18/11
f 40/16/10 27/18/11 31/19/11
f 26/2/12 37/1/13 10/4/14
f 26/2/12 10/4/14 8/3/14
s 0
f 25/19/15 29/20/15 13/21/15
f 25/19/15 13/21/15 1/22/15
s 1
f 31/19/11 27/18/11 35/13/8
f 31/19/11 35/13/8 33/12/8
f 30/2/2 32/23/16 34/9/6
s 0
f 7/15/15 19/24/15 29/20/15
f 7/15/15 29/20/15 25/19/15
s 1
f 23/22/17 11/25/17 38/17/10
f 23/22/17 38/17/10 40/16/10
f 26/2/12 28/23/18 37/1/13
f 36/26/19 26/2/12 2/11/20
f 36/26/19 2/11/20 5/10/20
f 30/2/2 39/1/1 32/23/16
f 26/2/12 36/26/19 28/23/18
