# Blender 4.5.3 LTS
# www.blender.org
mtllib cigs_packet_1.mtl
o cigs_packet_1
v -2.592000 0.000000 -1.555231
v -2.592000 0.000000 -1.555231
v -2.592000 0.000000 -1.555231
v -2.592000 1.347840 -1.555231
v -2.592000 1.347840 -1.555231
v -2.592000 1.347840 -1.555231
v 2.592000 -0.000000 -1.555231
v 2.592000 -0.000000 -1.555231
v 2.592000 -0.000000 -1.555231
v 2.592000 1.347840 -1.555231
v 2.592000 1.347840 -1.555231
v 2.592000 1.347840 -1.555231
v -2.592000 0.000000 1.555231
v -2.592000 0.000000 1.555231
v -2.592000 0.000000 1.555231
v -2.592000 1.347840 1.555231
v -2.592000 1.347840 1.555231
v -2.592000 1.347840 1.555231
v 2.592000 0.000000 1.555200
v 2.592000 0.000000 1.555200
v 2.592000 0.000000 1.555200
v 2.592000 1.347840 1.555200
v 2.592000 1.347840 1.555200
v 2.592000 1.347840 1.555200
vn -1.0000 -0.0000 -0.0000
vn -0.0000 -0.0000 1.0000
vn -0.0000 -0.0000 -1.0000
vn 1.0000 -0.0000 -0.0000
vn -0.0000 -1.0000 -0.0000
vn -0.0000 1.0000 -0.0000
vt 0.500000 0.000000
vt 0.500000 0.235294
vt 0.000000 0.235294
vt -0.000000 0.000000
vt 0.750000 1.000000
vt 1.000000 1.000000
vt 1.000000 0.235294
vt 0.750000 0.235294
vt 1.000000 0.000000
vt 0.000000 1.000000
vt 0.500000 1.000000
s 0
usemtl cigs_packet_1
f 14/1/1 16/2/1 4/3/1
f 14/1/1 4/3/1 2/4/1
f 21/5/2 24/6/2 18/7/2
f 21/5/2 18/7/2 15/8/2
f 3/8/3 6/7/3 11/6/3
f 3/8/3 11/6/3 8/5/3
f 9/7/4 12/9/4 23/1/4
f 9/7/4 23/1/4 20/2/4
f 1/3/5 7/10/5 19/11/5
f 1/3/5 19/11/5 13/2/5
f 10/10/6 5/3/6 17/2/6
f 10/10/6 17/2/6 22/11/6
