# Blender 4.5.3 LTS
# www.blender.org
mtllib cash_5_1.mtl
o cash_5_1
v -1.994299 0.064000 3.585536
v -1.994299 0.064000 3.585536
v -1.994299 0.064000 3.585536
v -1.994299 0.107622 3.569536
v -1.994299 0.107622 3.569536
v -1.994299 0.107622 3.569536
v -1.994299 0.140501 -3.585537
v -1.994299 0.140501 -3.585537
v -1.994299 0.140501 -3.585537
v -1.994299 0.184124 -3.569537
v -1.994299 0.184124 -3.569537
v -1.994299 0.184124 -3.569537
v 2.007800 0.154852 3.585536
v 2.007800 0.154852 3.585536
v 2.007800 0.154852 3.585536
v 2.007800 0.198475 3.569536
v 2.007800 0.198475 3.569536
v 2.007800 0.198475 3.569536
v 2.007800 0.064000 -3.585537
v 2.007800 0.064000 -3.585537
v 2.007800 0.064000 -3.585537
v 2.007800 0.107622 -3.569537
v 2.007800 0.107622 -3.569537
v 2.007800 0.107622 -3.569537
v -1.962299 0.000000 -0.000000
v -1.962299 0.000000 -0.000000
v -1.962299 0.043622 -0.000000
v -1.962299 0.043622 -0.000000
v 1.975801 0.000000 -0.000000
v 1.975801 0.000000 -0.000000
v 1.975801 0.043622 -0.000000
v 1.975801 0.043622 -0.000000
v 1.975801 0.059622 1.824768
v 1.975801 0.059622 1.824768
v -1.962299 0.059622 1.824768
v -1.962299 0.059622 1.824768
v -1.962299 0.059622 -1.824769
v -1.962299 0.059622 -1.824769
v 1.975801 0.059622 -1.824769
v 1.975801 0.059622 -1.824769
v 1.991800 0.083622 2.697152
v 1.991800 0.083622 2.697152
v 1.058825 0.064000 3.585536
v 1.058825 0.064000 3.585536
v 1.058825 0.107622 3.569536
v 1.058825 0.107622 3.569536
v 1.991800 0.046698 2.697156
v 1.991800 0.046698 2.697156
v -1.978299 0.032000 -1.824782
v -1.978299 0.032000 -1.824782
vn 0.9487 0.3158 0.0180
vn 0.9487 0.3157 0.0181
vn 0.9494 0.3135 0.0179
vn 1.0000 0.0032 -0.0000
vn 0.0066 0.3443 -0.9388
vn -0.0160 0.3443 0.9387
vn -0.0169 0.3443 0.9387
vn -0.0000 0.3444 0.9388
vn 0.9906 0.1361 -0.0158
vn 0.9922 0.1235 -0.0160
vn 0.9998 -0.0035 -0.0177
vn -0.0253 0.9982 -0.0546
vn -0.0228 0.9984 -0.0519
vn -0.0945 0.9872 -0.1282
vn -0.0000 0.9998 0.0182
vn 0.0071 0.9994 0.0343
vn -0.0000 1.0000 -0.0000
vn -0.9519 0.3056 0.0243
vn -1.0000 0.0035 -0.0000
vn -0.9526 0.3033 0.0241
vn -0.9519 0.3055 0.0243
vn 1.0000 -0.0000 -0.0000
vn 0.0229 -0.9988 0.0427
vn 0.0249 -0.9987 0.0446
vn 0.0946 -0.9884 0.1186
vn -0.0000 0.9998 -0.0182
vn 0.9657 0.2595 -0.0137
vn 0.0051 0.9992 0.0391
vn 0.0191 0.9973 0.0708
vn -1.0000 -0.0000 -0.0000
vn -0.0050 -0.9996 -0.0294
vn -0.0000 -1.0000 -0.0003
vn -0.0000 -1.0000 -0.0000
vn -0.0069 -0.9994 -0.0338
vn -0.9494 0.3135 -0.0179
vn -0.9487 0.3158 -0.0180
vn -0.9487 0.3157 -0.0181
vn -0.0000 0.9996 -0.0275
vn -0.0329 0.3442 0.9383
vn -0.0003 -0.9998 0.0181
vn -0.0191 -0.9979 -0.0613
vt 1.000000 0.390625
vt 0.999583 0.398438
vt 0.938685 0.398438
vt 0.875000 0.390625
vt 0.894531 0.312500
vt 0.894531 0.320312
vt 1.000000 0.320312
vt 1.000000 0.312500
vt 0.970231 0.312500
vt 0.970231 0.320312
vt 0.780976 0.390550
vt 0.780866 0.398438
vt 0.750417 0.398438
vt 0.750000 0.390625
vt 0.781250 0.453125
vt 0.750000 0.530305
vt 0.750000 0.453125
vt 0.937500 0.453125
vt 0.937500 0.726562
vt 0.875000 0.726562
vt 0.875000 0.453125
vt 0.938615 0.390580
vt 0.875000 0.398438
vt 1.000000 0.803742
vt 0.969030 0.727221
vt 1.000000 0.726562
vt 0.812500 0.726562
vt 0.812500 0.453125
vt 0.811315 0.398438
vt 1.000000 0.453125
vt 0.750000 0.726562
vt 0.875000 1.000000
vt 0.811384 0.999977
vt 1.000000 1.000000
vt 0.750000 1.000000
s 1
usemtl money_1
f 20/1/1 22/2/2 40/3/3
f 20/1/1 40/3/3 30/4/4
s 0
f 8/5/5 10/6/5 24/7/5
f 8/5/5 24/7/5 21/8/5
s 1
f 43/9/6 46/10/7 6/6/8
f 43/9/6 6/6/8 2/5/8
f 47/11/9 41/12/10 17/13/11
f 47/11/9 17/13/11 13/14/11
f 42/15/12 45/16/13 16/17/14
f 39/18/15 37/19/16 27/20/17
f 39/18/15 27/20/17 31/21/17
f 50/22/18 26/4/19 38/3/20
f 38/3/20 11/2/21 9/1/21
f 38/3/20 9/1/21 50/22/18
f 40/3/3 32/23/22 30/4/4
f 44/24/23 48/25/24 14/26/25
f 31/21/17 27/20/17 36/27/26
f 31/21/17 36/27/26 34/28/26
f 30/4/4 32/23/22 33/29/27
f 23/30/28 12/26/29 37/19/16
f 26/4/19 28/23/30 38/3/20
f 19/31/31 29/20/32 25/32/33
f 19/31/31 25/32/33 49/33/34
f 35/29/35 26/4/19 1/14/36
f 35/29/35 1/14/36 5/13/37
f 26/4/19 35/29/35 28/23/30
f 25/32/33 29/20/32 48/25/24
f 42/15/12 34/28/26 36/27/26
f 36/27/26 4/31/38 45/16/13
f 36/27/26 45/16/13 42/15/12
f 30/4/4 33/29/27 41/12/10
f 30/4/4 41/12/10 47/11/9
f 15/8/39 18/7/39 46/10/7
f 15/8/39 46/10/7 43/9/6
f 3/34/40 25/32/33 48/25/24
f 3/34/40 48/25/24 44/24/23
f 39/18/15 23/30/28 37/19/16
f 7/35/41 19/31/31 49/33/34
