# Blender 4.5.3 LTS
# www.blender.org
mtllib pistol_mp_1_mag_empty.mtl
o pistol_mp_1_mag_empty
v -0.084021 -2.616688 0.206328
v -0.084021 -2.616688 0.206328
v -0.084021 -2.616688 0.206328
v -0.084021 -2.616688 0.206328
v -0.364368 -2.581601 0.480001
v -0.364368 -2.581601 0.480001
v -0.364368 -2.581601 0.480001
v -0.364368 -2.581601 0.480001
v -0.364368 -2.581601 -0.479999
v -0.364368 -2.581601 -0.479999
v -0.364368 -2.581601 -0.479999
v -0.364368 -2.581601 -0.479999
v -0.084021 -2.616688 -0.206327
v -0.084021 -2.616688 -0.206327
v -0.084021 -2.616688 -0.206327
v -0.084021 -2.616688 -0.206327
v 1.574531 1.970581 0.480001
v 1.574531 1.970581 0.480001
v 1.574531 1.970581 0.480001
v 1.574531 1.970581 0.480001
v 1.694878 1.970581 0.206328
v 1.694878 1.970581 0.206328
v 1.694878 1.970581 0.206328
v 1.694878 1.970581 0.206328
v 1.694878 1.970581 -0.206326
v 1.694878 1.970581 -0.206326
v 1.694878 1.970581 -0.206326
v 1.694878 1.970581 -0.206326
v 1.574531 1.970581 -0.479999
v 1.574531 1.970581 -0.479999
v 1.574531 1.970581 -0.479999
v 1.574531 1.970581 -0.479999
v 0.311655 1.970581 0.480001
v 0.311655 1.970581 0.480001
v 0.311655 1.970581 0.480001
v 0.311655 1.970581 0.480001
v 0.311655 1.970581 -0.479999
v 0.311655 1.970581 -0.479999
v 0.311655 1.970581 -0.479999
v 0.311655 1.970581 -0.479999
v -1.627244 -2.405482 0.480000
v -1.627244 -2.405482 0.480000
v -1.627244 -2.405482 0.480000
v -1.627244 -2.405482 0.480000
v -1.627244 -2.405482 -0.479999
v -1.627244 -2.405482 -0.479999
v -1.627244 -2.405482 -0.479999
v -1.627244 -2.405482 -0.479999
v -0.300183 -2.590427 0.576001
v -0.300183 -2.590427 0.576001
v -0.300183 -2.590427 0.576001
v -0.004858 -2.627586 0.274097
v -0.004858 -2.627586 0.274097
v -0.004858 -2.627586 0.274097
v -0.004858 -2.627586 -0.274095
v -0.004858 -2.627586 -0.274095
v -0.004858 -2.627586 -0.274095
v -0.300183 -2.590427 -0.575999
v -0.300183 -2.590427 -0.575999
v -0.300183 -2.590427 -0.575999
v -1.785753 -2.383687 0.576000
v -1.785753 -2.383687 0.576000
v -1.785753 -2.383687 0.576000
v -1.785753 -2.383687 0.576000
v -1.785753 -2.383686 -0.575999
v -1.785753 -2.383686 -0.575999
v -1.785753 -2.383686 -0.575999
v -1.785753 -2.383686 -0.575999
v -0.400771 -2.811495 0.576001
v -0.400771 -2.811495 0.576001
v -0.105447 -2.848654 0.274097
v -0.105447 -2.848654 0.274097
v -0.105447 -2.848654 -0.274095
v -0.105447 -2.848654 -0.274095
v -0.400771 -2.811495 -0.575999
v -0.400771 -2.811495 -0.575999
v -1.835830 -2.493745 0.576000
v -1.835830 -2.493745 0.576000
v -1.835830 -2.493745 0.576000
v -1.765544 -2.621566 0.576000
v -1.765544 -2.621566 0.576000
v -1.765544 -2.621566 0.576000
v -1.765545 -2.621565 -0.575999
v -1.765545 -2.621565 -0.575999
v -1.765545 -2.621565 -0.575999
v -1.835831 -2.493745 -0.575999
v -1.835831 -2.493745 -0.575999
v -1.835831 -2.493745 -0.575999
v 0.471655 1.970581 -0.206325
v 0.471655 1.970581 -0.206325
v 0.471655 1.970581 -0.206325
v 0.471655 1.970581 -0.206325
v 0.471655 1.970581 -0.206325
v 0.471655 1.970581 0.206327
v 0.471655 1.970581 0.206327
v 0.471655 1.970581 0.206327
v 0.471655 1.970581 0.206327
v 0.471655 1.970581 0.206327
v 1.636090 2.210581 0.480001
v 1.636090 2.210581 0.480001
v 1.636090 2.210581 0.480001
v 1.776300 2.130581 0.206328
v 1.776300 2.130581 0.206328
v 1.776300 2.130581 0.206328
v 1.776300 2.130581 -0.206326
v 1.776300 2.130581 -0.206326
v 1.776300 2.130581 -0.206326
v 1.636090 2.210581 -0.479999
v 1.636090 2.210581 -0.479999
v 1.636090 2.210581 -0.479999
v 0.423705 2.210581 0.480001
v 0.423705 2.210581 0.480001
v 0.423705 2.210581 0.480001
v 0.423704 2.210581 -0.479999
v 0.423704 2.210581 -0.479999
v 0.423704 2.210581 -0.479999
v 0.471602 2.130581 0.206327
v 0.471602 2.130581 0.206327
v 0.471602 2.130581 0.206327
v 0.471602 2.130581 -0.206324
v 0.471602 2.130581 -0.206324
v 0.471602 2.130581 -0.206324
v 1.854878 1.970581 0.206327
v 1.854878 1.970581 0.206327
v 1.854878 1.970581 0.206327
v 1.854878 1.970581 0.206327
v 1.854878 1.970581 0.206327
v 1.854878 1.970581 0.206327
v 1.854878 1.970581 -0.206326
v 1.854878 1.970581 -0.206326
v 1.854878 1.970581 -0.206326
v 1.854878 1.970581 -0.206326
v 1.854878 1.970581 -0.206326
v 1.854878 1.970581 -0.206326
v 0.311655 1.970581 -0.366324
v 0.311655 1.970581 -0.366324
v 0.311655 1.970581 -0.366324
v 0.311655 1.970581 -0.366324
v 0.311655 1.970581 0.366327
v 0.311655 1.970581 0.366327
v 0.311655 1.970581 0.366327
v 0.311655 1.970581 0.366327
v 1.623244 1.810581 0.206328
v 1.623244 1.810581 0.206328
v 1.623244 1.810581 0.206328
v 1.623244 1.810581 -0.206326
v 1.623244 1.810581 -0.206326
v 1.623244 1.810581 -0.206326
v 1.776263 2.210581 0.297672
v 1.776263 2.210581 0.297672
v 1.776263 2.210581 0.297672
v 1.776263 2.210581 0.297672
v 1.776263 2.210581 -0.297669
v 1.776263 2.210581 -0.297669
v 1.776263 2.210581 -0.297669
v 1.776263 2.210581 -0.297669
v 0.423705 2.210581 0.297671
v 0.423705 2.210581 0.297671
v 0.423705 2.210581 0.297671
v 0.423705 2.210581 0.297671
v 0.423705 2.210581 -0.297668
v 0.423705 2.210581 -0.297668
v 0.423705 2.210581 -0.297668
v 0.423705 2.210581 -0.297668
v 0.400087 1.810581 -0.206325
v 0.400087 1.810581 -0.206325
v 0.400087 1.810581 -0.206325
v 0.400087 1.810581 0.206327
v 0.400087 1.810581 0.206327
v 0.400087 1.810581 0.206327
vn 0.9211 -0.3893 -0.0000
vn -0.0000 -0.0000 -1.0000
vn 0.6614 -0.2806 0.6955
vn -0.9143 0.4051 -0.0000
vn -0.0000 -0.0000 1.0000
vn 0.6614 -0.2806 -0.6956
vn 0.6614 -0.2806 -0.6955
vn 0.1300 0.9915 0.0055
vn 0.1300 0.9915 0.0056
vn 0.1301 0.9915 0.0056
vn 0.1300 0.9915 -0.0056
vn 0.1364 0.9907 -0.0000
vn 0.1380 0.9904 0.0008
vn 0.1380 0.9904 0.0009
vn 0.1380 0.9904 -0.0009
vn 0.1362 0.9907 -0.0000
vn -0.9102 0.4142 -0.0000
vn 0.4188 -0.1905 -0.8879
vn 0.3044 -0.1385 -0.9424
vn 0.8553 -0.3892 -0.3421
vn 0.8553 -0.3892 0.3421
vn 0.8375 -0.3811 0.3917
vn 0.8375 -0.3811 -0.3917
vn -0.1361 -0.9907 -0.0000
vn -0.1360 -0.9907 -0.0000
vn 0.4188 -0.1905 0.8879
vn 0.3044 -0.1385 0.9424
vn -0.8763 -0.4818 -0.0000
vn -0.0000 1.0000 -0.0000
vn -0.0000 0.7523 -0.6589
vn 0.7407 -0.0847 0.6664
vn 0.7289 -0.1066 0.6762
vn 0.6876 -0.1764 0.7044
vn -0.9061 0.4230 -0.0000
vn -0.7469 0.0876 -0.6591
vn -0.7854 0.1990 -0.5861
vn -0.7579 0.1157 -0.6420
vn 0.8375 0.4113 0.3599
vn -0.0000 0.7523 0.6589
vn -0.7579 0.1157 0.6420
vn -0.7854 0.1990 0.5861
vn -0.7469 0.0875 0.6591
vn 0.6876 -0.1764 -0.7044
vn 0.7289 -0.1066 -0.6762
vn 0.7407 -0.0847 -0.6664
vn 0.7925 0.0277 -0.6093
vn 0.8375 0.4113 -0.3599
vn 0.7925 0.0277 0.6093
vn -0.7071 -0.0002 -0.7071
vn -0.7071 -0.0002 0.7071
vn -0.9127 0.4086 -0.0000
vn 0.9128 -0.4083 -0.0000
vt 0.069698 0.758654
vt 0.069698 0.948512
vt 0.052626 0.948512
vt 0.052626 0.758654
vt 0.051540 0.757471
vt 0.045320 0.757469
vt 0.045320 0.808195
vt 0.051541 0.805029
vt 0.070229 0.636800
vt 0.069024 0.843648
vt 0.059136 0.838083
vt 0.061852 0.633259
vt 0.061718 0.642793
vt 0.022000 0.642793
vt 0.022000 0.823512
vt 0.026703 0.823512
vt 0.057015 0.823512
vt 0.061718 0.823512
vt 0.163073 0.559565
vt 0.367757 0.559241
vt 0.346573 0.511169
vt 0.148549 0.511004
vt 0.061852 0.633259
vt 0.069024 0.843648
vt 0.070229 0.636800
vt 0.148549 0.511005
vt 0.163073 0.559565
vt 0.018530 0.756561
vt 0.014506 0.760077
vt 0.026541 0.774121
vt 0.031326 0.770368
vt 0.049416 0.770363
vt 0.054195 0.774122
vt 0.066225 0.760085
vt 0.062207 0.756560
vt 0.018393 0.704552
vt 0.014028 0.709884
vt 0.066705 0.709889
vt 0.062343 0.704553
vt 0.066733 0.716084
vt 0.013999 0.716080
vt 0.066559 0.758015
vt 0.066780 0.717919
vt 0.025577 0.771576
vt 0.055156 0.771578
vt 0.013954 0.717917
vt 0.014171 0.758007
vt 0.011063 0.816899
vt 0.011387 0.827784
vt 0.058008 0.847472
vt 0.049200 0.752736
vt 0.037620 0.752736
vt 0.035854 0.802444
vt 0.048750 0.802441
vt 0.054419 0.752723
vt 0.054533 0.808682
vt 0.061718 0.802882
vt 0.061717 0.752723
vt 0.029298 0.752723
vt 0.029141 0.808681
vt 0.033258 0.808683
vt 0.033320 0.754705
vt 0.058008 0.847473
vt 0.054185 0.831728
vt 0.061718 0.831709
vt 0.051540 0.751250
vt 0.042372 0.754730
vt 0.011387 0.827785
vt 0.011063 0.816899
vt 0.064818 0.850074
vt 0.066890 0.849296
vt 0.049161 0.754707
vt 0.053705 0.748087
vt 0.033323 0.748087
vt 0.037572 0.754707
vt 0.051541 0.811250
vt 0.022002 0.752723
vt 0.022000 0.802882
vt 0.050395 0.754705
vt 0.050395 0.808683
vt 0.042372 0.754731
vt 0.022000 0.831709
vt 0.029533 0.831728
vt 0.066890 0.849296
vt 0.054897 0.811250
vt 0.054897 0.805029
vt 0.038853 0.805029
vt 0.038853 0.811250
vt 0.048750 0.802444
vt 0.048725 0.805314
vt 0.035751 0.805314
s 0
usemtl pistols_mp_1
f 15/1/1 134/2/1 125/3/1
f 15/1/1 125/3/1 3/4/1
s 1
f 98/5/2 119/6/2 103/7/2
s 0
f 98/5/2 103/7/2 24/8/2
s 1
f 4/9/3 126/10/3 18/11/3
f 4/9/3 18/11/3 7/12/3
s 0
f 45/13/4 43/14/4 34/15/4
s 1
f 139/16/4 137/17/4 38/18/4
s 0
f 45/13/4 34/15/4 139/16/4
f 139/16/4 38/18/4 45/13/4
f 8/19/5 20/20/5 36/21/5
f 8/19/5 36/21/5 44/22/5
s 1
f 9/23/6 30/11/7 131/24/7
f 9/23/6 131/24/7 16/25/7
s 0
f 48/26/2 40/21/2 32/20/2
f 48/26/2 32/20/2 12/27/2
s 1
f 5/28/8 49/29/9 52/30/9
f 5/28/8 52/30/9 1/31/10
f 13/32/11 55/33/11 58/34/11
f 13/32/11 58/34/11 10/35/11
s 0
f 2/31/12 53/30/12 56/33/12
f 2/31/12 56/33/12 14/32/12
s 1
f 42/36/13 64/37/14 50/29/13
f 42/36/13 50/29/13 6/28/14
f 11/35/15 59/34/15 68/38/15
f 11/35/15 68/38/15 47/39/15
s 0
f 46/39/16 67/38/16 63/37/16
f 46/39/16 63/37/16 41/36/16
f 61/37/17 65/38/17 86/40/17
f 61/37/17 86/40/17 77/41/17
s 1
f 88/40/2 66/38/2 60/34/18
f 60/34/18 76/42/19 85/43/2
f 60/34/18 85/43/2 88/40/2
f 57/33/20 54/30/21 72/44/22
f 57/33/20 72/44/22 74/45/23
f 81/46/24 84/43/24 75/42/25
f 75/42/25 73/45/24 71/44/25
f 71/44/25 69/47/24 81/46/24
f 75/42/25 71/44/25 81/46/24
f 54/30/21 51/29/26 70/47/27
f 54/30/21 70/47/27 72/44/22
f 60/34/18 57/33/20 74/45/23
f 60/34/18 74/45/23 76/42/19
s 0
f 83/43/28 80/46/28 78/41/28
f 83/43/28 78/41/28 87/40/28
s 1
f 70/47/27 51/29/26 62/37/5
s 0
f 62/37/5 79/41/5 82/46/5
s 1
f 62/37/5 82/46/5 70/47/27
s 0
f 37/48/2 114/49/2 108/50/2
f 37/48/2 108/50/2 29/11/2
f 165/51/29 168/52/29 144/53/29
f 165/51/29 144/53/29 148/54/29
f 163/55/29 153/56/29 110/57/29
f 163/55/29 110/57/29 115/58/29
f 158/59/30 150/60/30 102/61/30
f 158/59/30 102/61/30 117/62/30
s 1
f 127/10/31 101/63/32 19/11/33
s 0
f 138/17/34 162/64/34 116/65/34
f 138/17/34 116/65/34 39/18/34
s 1
f 142/66/35 160/67/36 118/6/37
s 0
f 17/11/5 100/63/5 111/68/5
f 17/11/5 111/68/5 33/69/5
f 121/6/5 93/5/5 27/8/5
f 121/6/5 27/8/5 105/7/5
f 133/24/38 156/70/38 107/71/38
f 89/72/29 136/73/29 141/74/29
f 89/72/29 141/74/29 94/75/29
s 1
f 103/7/2 124/76/2 24/8/2
s 0
f 113/77/29 99/78/29 149/60/29
f 113/77/29 149/60/29 157/59/29
f 122/79/39 106/80/39 154/56/39
f 122/79/39 154/56/39 164/55/39
s 1
f 120/6/40 161/81/41 135/66/42
s 0
f 35/15/34 112/82/34 159/83/34
f 35/15/34 159/83/34 140/16/34
s 1
f 31/11/43 109/50/44 132/24/45
f 109/50/44 155/70/46 132/24/45
f 104/84/47 152/70/47 128/10/47
f 151/70/48 101/63/32 127/10/31
f 97/5/49 142/66/35 118/6/37
f 92/5/50 120/6/40 135/66/42
f 105/7/5 27/8/5 129/76/5
s 0
f 130/85/29 28/86/29 23/87/29
f 130/85/29 23/87/29 123/88/29
f 90/72/5 166/51/5 147/89/5
f 90/72/5 147/89/5 26/90/5
s 1
f 25/90/51 146/89/51 143/53/51
s 0
f 25/90/51 143/53/51 21/91/51
f 22/91/2 145/53/2 169/52/2
f 22/91/2 169/52/2 95/75/2
f 96/75/52 170/52/52 167/51/52
f 96/75/52 167/51/52 91/72/52
