# Blender 4.5.3 LTS
# www.blender.org
mtllib pills_1.mtl
o pills_1
v 0.142317 0.086687 -0.464752
v 0.142317 0.310687 -0.464752
v 0.821140 0.086687 -1.143575
v 0.821140 0.310687 -1.143575
v 0.368591 0.086687 -0.238478
v 0.368591 0.310687 -0.238478
v 1.047414 0.086687 -0.917301
v 1.047414 0.310687 -0.917301
v 0.238519 0.055748 -0.623458
v 0.092732 0.198687 -0.464752
v 0.092732 0.198687 -0.464752
v 0.662433 0.341625 -1.047373
v 0.821140 0.198687 -1.193159
v 0.821140 0.198687 -1.193159
v 0.959069 0.062143 -1.055230
v 0.959069 0.335230 -1.055230
v 1.096999 0.198687 -0.917300
v 1.096999 0.198687 -0.917300
v 0.951212 0.055748 -0.758594
v 0.527297 0.341625 -0.334679
v 0.368591 0.198687 -0.188893
v 0.368591 0.198687 -0.188893
v 0.230662 0.062143 -0.326823
v 0.230662 0.335230 -0.326823
v 0.662433 0.055748 -1.047373
v 0.238519 0.341625 -0.623458
v 0.527297 0.055748 -0.334679
v 0.951212 0.341625 -0.758594
v 0.610579 0.198687 -1.104116
v 0.610579 0.198687 -1.104116
v 1.011098 0.198687 -1.107259
v 0.579152 0.198687 -0.277936
v 0.579152 0.198687 -0.277936
v 0.178633 0.198687 -0.274794
v 0.380464 0.001995 -0.476625
v 0.380464 0.395378 -0.476625
v 0.809267 0.395378 -0.905428
v 0.809267 0.001995 -0.905428
v 1.007956 0.198687 -0.706740
v 1.007956 0.198687 -0.706740
v 0.181775 0.198687 -0.675313
v 0.181775 0.198687 -0.675313
v -0.770142 0.086687 0.276690
v -0.770142 0.310687 0.276690
v 0.061242 0.086687 0.756690
v 0.061242 0.310687 0.756690
v -0.930142 0.086687 0.553819
v -0.930142 0.310687 0.553819
v -0.098758 0.086687 1.033818
v -0.098758 0.310687 1.033818
v -0.591945 0.055748 0.328538
v -0.782976 0.198687 0.228795
v -0.782976 0.198687 0.228795
v -0.072758 0.341625 0.628291
v 0.109137 0.198687 0.743857
v 0.109137 0.198687 0.743857
v 0.011606 0.062143 0.912785
v 0.011606 0.335230 0.912785
v -0.085924 0.198687 1.081714
v -0.085924 0.198687 1.081714
v -0.276955 0.055748 0.981971
v -0.796143 0.341625 0.682218
v -0.978038 0.198687 0.566652
v -0.978038 0.198687 0.566652
v -0.880507 0.062143 0.397724
v -0.880507 0.335230 0.397724
v -0.072758 0.055748 0.628291
v -0.591945 0.341625 0.328538
v -0.796143 0.055748 0.682218
v -0.276955 0.341625 0.981971
v -0.031369 0.198687 0.563517
v -0.031369 0.198687 0.563517
v 0.075329 0.198687 0.949575
v -0.837532 0.198687 0.746992
v -0.837532 0.198687 0.746992
v -0.944229 0.198687 0.360934
v -0.697038 0.001995 0.503649
v -0.697038 0.395378 0.503649
v -0.171863 0.395378 0.806859
v -0.171863 0.001995 0.806859
v -0.312356 0.198687 1.050202
v -0.312356 0.198687 1.050202
v -0.556544 0.198687 0.260307
v -0.556544 0.198687 0.260307
vn -0.5446 -0.7690 -0.3348
vn -0.8176 -0.0000 -0.5758
vn -0.5757 -0.0000 -0.8176
vn -0.3348 -0.7690 -0.5446
vn -0.5758 -0.0000 -0.8176
vn -0.3348 0.7690 -0.5445
vn 0.0127 0.6734 -0.7391
vn 0.0128 -0.0000 -0.9999
vn 0.0127 -0.6735 -0.7391
vn 0.7071 -0.0000 -0.7071
vn 0.4574 -0.7626 -0.4574
vn 0.4574 0.7626 -0.4574
vn 0.7391 0.6735 -0.0127
vn 0.9999 -0.0000 -0.0128
vn 0.7391 -0.6734 -0.0127
vn -0.8176 -0.0000 -0.5757
vn -0.5446 0.7690 -0.3348
vn 0.5446 -0.7690 0.3348
vn 0.8176 -0.0000 0.5758
vn 0.5757 -0.0000 0.8176
vn 0.3348 -0.7690 0.5446
vn 0.5758 -0.0000 0.8176
vn 0.3348 0.7690 0.5446
vn -0.0127 0.6734 0.7391
vn -0.0128 -0.0000 0.9999
vn -0.0127 -0.6735 0.7391
vn -0.7071 -0.0000 0.7071
vn -0.4574 -0.7626 0.4574
vn -0.4574 0.7626 0.4574
vn -0.7391 0.6735 0.0127
vn -0.9999 -0.0000 0.0128
vn -0.7391 -0.6734 0.0127
vn 0.8176 -0.0000 0.5757
vn 0.5446 0.7690 0.3348
vn 0.0888 -0.9921 -0.0888
vn -0.0888 -0.9921 0.0888
vn 0.0888 0.9921 -0.0888
vn -0.0888 0.9921 0.0888
vn 0.1825 -0.7690 -0.6126
vn 0.3445 -0.0000 -0.9388
vn 0.6408 -0.0000 -0.7677
vn 0.4394 -0.7690 -0.4644
vn 0.6407 -0.0000 -0.7678
vn 0.4394 0.7690 -0.4643
vn 0.7172 0.6734 -0.1790
vn 0.9692 -0.0000 -0.2464
vn 0.7172 -0.6735 -0.1790
vn 0.8660 -0.0000 0.5000
vn 0.5602 -0.7626 0.3235
vn 0.5602 0.7626 0.3234
vn 0.2036 0.6735 0.7106
vn 0.2712 -0.0000 0.9625
vn 0.2036 -0.6734 0.7107
vn 0.1825 0.7690 -0.6127
vn -0.1825 -0.7690 0.6126
vn -0.3445 -0.0000 0.9388
vn -0.6408 -0.0000 0.7677
vn -0.4394 -0.7690 0.4644
vn -0.6407 -0.0000 0.7678
vn -0.4394 0.7690 0.4643
vn -0.7172 0.6734 0.1790
vn -0.9692 -0.0000 0.2464
vn -0.7172 -0.6735 0.1790
vn -0.8660 -0.0000 -0.5000
vn -0.5602 -0.7626 -0.3235
vn -0.5602 0.7626 -0.3234
vn -0.2036 0.6735 -0.7106
vn -0.2712 -0.0000 -0.9625
vn -0.2036 -0.6734 -0.7107
vn -0.1825 0.7690 0.6127
vn 0.1087 -0.9921 0.0628
vn -0.1087 -0.9921 -0.0628
vn 0.1087 0.9921 0.0628
vn -0.1088 0.9921 -0.0628
vt 0.662818 0.694090
vt 0.697085 0.685344
vt 0.697085 0.814084
vt 0.664268 0.805849
vt 0.552915 0.814656
vt 0.587182 0.805910
vt 0.596830 0.839207
vt 0.580864 0.859102
vt 0.671010 0.858002
vt 0.654933 0.838750
vt 0.626316 0.875283
vt 0.625996 0.842359
vt 0.552915 0.685916
vt 0.585732 0.694151
vt 0.587182 0.805910
vt 0.653170 0.660793
vt 0.669136 0.640898
vt 0.578990 0.641998
vt 0.595067 0.661250
vt 0.623684 0.624717
vt 0.624004 0.657641
vt 0.625797 0.804428
vt 0.624203 0.695572
s 1
usemtl pills_bottle_1
f 9/1/1 42/2/2 30/3/3
f 9/1/1 30/3/3 25/4/4
f 29/5/5 12/6/6 4/7/7
f 29/5/5 4/7/7 13/8/8
f 25/4/4 30/3/3 14/9/8
f 25/4/4 14/9/8 3/10/9
f 3/10/9 14/9/8 31/11/10
f 3/10/9 31/11/10 15/12/11
f 13/8/8 4/7/7 16/12/12
f 13/8/8 16/12/12 31/11/10
f 31/11/10 16/12/12 8/10/13
f 31/11/10 8/10/13 18/9/14
f 15/12/11 31/11/10 17/8/14
f 15/12/11 17/8/14 7/7/15
f 41/13/16 26/14/17 12/6/6
f 41/13/16 12/6/6 29/5/5
f 19/15/18 39/5/19 32/13/20
f 19/15/18 32/13/20 27/14/21
f 33/2/22 20/1/23 6/16/24
f 33/2/22 6/16/24 22/17/25
f 27/14/21 32/13/20 21/18/25
f 27/14/21 21/18/25 5/19/26
f 5/19/26 21/18/25 34/20/27
f 5/19/26 34/20/27 23/21/28
f 22/17/25 6/16/24 24/21/29
f 22/17/25 24/21/29 34/20/27
f 34/20/27 24/21/29 2/19/30
f 34/20/27 2/19/30 10/18/31
f 23/21/28 34/20/27 11/17/31
f 23/21/28 11/17/31 1/16/32
f 40/3/33 28/4/34 20/1/23
f 40/3/33 20/1/23 33/2/22
f 25/4/4 38/22/35 35/23/36
f 25/4/4 35/23/36 9/1/1
f 35/23/36 27/14/21 5/19/26
f 35/23/36 5/19/26 23/21/28
f 9/1/1 35/23/36 23/21/28
f 9/1/1 23/21/28 1/16/32
f 38/22/35 19/15/18 27/14/21
f 38/22/35 27/14/21 35/23/36
f 28/4/34 37/22/37 36/23/38
f 28/4/34 36/23/38 20/1/23
f 36/23/38 26/14/17 2/19/30
f 36/23/38 2/19/30 24/21/29
f 20/1/23 36/23/38 24/21/29
f 20/1/23 24/21/29 6/16/24
f 8/10/13 16/12/12 37/22/37
f 8/10/13 37/22/37 28/4/34
f 16/12/12 4/7/7 12/6/6
f 16/12/12 12/6/6 37/22/37
f 3/10/9 15/12/11 38/22/35
f 3/10/9 38/22/35 25/4/4
f 15/12/11 7/7/15 19/15/18
f 15/12/11 19/15/18 38/22/35
f 7/7/15 17/8/14 39/5/19
f 7/7/15 39/5/19 19/15/18
f 18/9/14 8/10/13 28/4/34
f 18/9/14 28/4/34 40/3/33
f 1/16/32 11/17/31 42/2/2
f 1/16/32 42/2/2 9/1/1
f 10/18/31 2/19/30 26/14/17
f 10/18/31 26/14/17 41/13/16
f 37/22/37 12/6/6 26/14/17
f 37/22/37 26/14/17 36/23/38
f 51/1/39 84/2/40 72/3/41
f 51/1/39 72/3/41 67/4/42
f 71/5/43 54/6/44 46/7/45
f 71/5/43 46/7/45 55/8/46
f 67/4/42 72/3/41 56/9/46
f 67/4/42 56/9/46 45/10/47
f 45/10/47 56/9/46 73/11/48
f 45/10/47 73/11/48 57/12/49
f 55/8/46 46/7/45 58/12/50
f 55/8/46 58/12/50 73/11/48
f 73/11/48 58/12/50 50/10/51
f 73/11/48 50/10/51 60/9/52
f 57/12/49 73/11/48 59/8/52
f 57/12/49 59/8/52 49/7/53
f 83/13/40 68/14/54 54/6/44
f 83/13/40 54/6/44 71/5/43
f 61/15/55 81/5/56 74/13/57
f 61/15/55 74/13/57 69/14/58
f 75/2/59 62/1/60 48/16/61
f 75/2/59 48/16/61 64/17/62
f 69/14/58 74/13/57 63/18/62
f 69/14/58 63/18/62 47/19/63
f 47/19/63 63/18/62 76/20/64
f 47/19/63 76/20/64 65/21/65
f 64/17/62 48/16/61 66/21/66
f 64/17/62 66/21/66 76/20/64
f 76/20/64 66/21/66 44/19/67
f 76/20/64 44/19/67 52/18/68
f 65/21/65 76/20/64 53/17/68
f 65/21/65 53/17/68 43/16/69
f 82/3/56 70/4/70 62/1/60
f 82/3/56 62/1/60 75/2/59
f 67/4/42 80/22/71 77/23/72
f 67/4/42 77/23/72 51/1/39
f 77/23/72 69/14/58 47/19/63
f 77/23/72 47/19/63 65/21/65
f 51/1/39 77/23/72 65/21/65
f 51/1/39 65/21/65 43/16/69
f 80/22/71 61/15/55 69/14/58
f 80/22/71 69/14/58 77/23/72
f 70/4/70 79/22/73 78/23/74
f 70/4/70 78/23/74 62/1/60
f 78/23/74 68/14/54 44/19/67
f 78/23/74 44/19/67 66/21/66
f 62/1/60 78/23/74 66/21/66
f 62/1/60 66/21/66 48/16/61
f 50/10/51 58/12/50 79/22/73
f 50/10/51 79/22/73 70/4/70
f 58/12/50 46/7/45 54/6/44
f 58/12/50 54/6/44 79/22/73
f 45/10/47 57/12/49 80/22/71
f 45/10/47 80/22/71 67/4/42
f 57/12/49 49/7/53 61/15/55
f 57/12/49 61/15/55 80/22/71
f 49/7/53 59/8/52 81/5/56
f 49/7/53 81/5/56 61/15/55
f 60/9/52 50/10/51 70/4/70
f 60/9/52 70/4/70 82/3/56
f 43/16/69 53/17/68 84/2/40
f 43/16/69 84/2/40 51/1/39
f 52/18/68 44/19/67 68/14/54
f 52/18/68 68/14/54 83/13/40
f 79/22/73 54/6/44 68/14/54
f 79/22/73 68/14/54 78/23/74
