# Blender 4.5.3 LTS
# www.blender.org
mtllib ammo_pistol_loose_mp_2_casing.mtl
o ammo_pistol_loose_mp_2_casing
v -0.000000 0.000000 0.201600
v -0.000000 0.000000 0.201600
v -0.000000 0.000000 0.201600
v -0.201600 0.000000 0.000000
v -0.201600 0.000000 0.000000
v -0.201600 0.000000 0.000000
v -0.142553 0.000000 0.142553
v -0.142553 0.000000 0.142553
v -0.000000 0.691403 0.166963
v -0.000000 0.691403 0.166963
v -0.000000 0.691403 0.166963
v -0.000000 0.000000 -0.201600
v -0.000000 0.000000 -0.201600
v -0.000000 0.000000 -0.201600
v -0.142553 0.000000 -0.142553
v -0.142553 0.000000 -0.142553
v 0.201600 0.000000 0.000000
v 0.201600 0.000000 0.000000
v 0.201600 0.000000 0.000000
v 0.142553 0.000000 0.142553
v 0.142553 0.000000 0.142553
v 0.118061 0.691403 0.118061
v 0.118061 0.691403 0.118061
v 0.142553 0.000000 -0.142553
v 0.142553 0.000000 -0.142553
v -0.166963 0.691402 0.000000
v -0.166963 0.691402 0.000000
v -0.166963 0.691402 0.000000
v -0.118061 0.691402 0.118061
v -0.118061 0.691402 0.118061
v -0.000000 0.691402 -0.166963
v -0.000000 0.691402 -0.166963
v -0.000000 0.691402 -0.166963
v -0.118061 0.691402 -0.118061
v -0.118061 0.691402 -0.118061
v 0.166963 0.691402 0.000000
v 0.166963 0.691402 0.000000
v 0.166963 0.691402 0.000000
v 0.118061 0.691402 -0.118061
v 0.118061 0.691402 -0.118061
v 0.142553 0.691403 0.142553
v 0.142553 0.691403 0.142553
v -0.000000 0.691403 0.201600
v -0.000000 0.691403 0.201600
v -0.000000 0.691403 0.201600
v 0.142553 0.691402 -0.142553
v 0.142553 0.691402 -0.142553
v -0.000000 0.691402 -0.201600
v -0.000000 0.691402 -0.201600
v -0.000000 0.691402 -0.201600
v 0.201600 0.691402 0.000000
v 0.201600 0.691402 0.000000
v 0.201600 0.691402 0.000000
v -0.142553 0.691402 -0.142553
v -0.142553 0.691402 -0.142553
v -0.201600 0.691402 0.000000
v -0.201600 0.691402 0.000000
v -0.201600 0.691402 0.000000
v -0.142553 0.691402 0.142553
v -0.142553 0.691402 0.142553
v 0.118061 0.036442 0.118061
v 0.118061 0.036442 0.118061
v -0.000000 0.036442 0.166963
v -0.000000 0.036442 0.166963
v -0.000000 0.036442 0.166963
v 0.118061 0.036442 -0.118061
v 0.118061 0.036442 -0.118061
v -0.000000 0.036442 -0.166963
v -0.000000 0.036442 -0.166963
v -0.000000 0.036442 -0.166963
v 0.166963 0.036442 0.000000
v 0.166963 0.036442 0.000000
v 0.166963 0.036442 0.000000
v -0.118061 0.036442 -0.118061
v -0.118061 0.036442 -0.118061
v -0.166963 0.036442 0.000000
v -0.166963 0.036442 0.000000
v -0.166963 0.036442 0.000000
v -0.118061 0.036442 0.118061
v -0.118061 0.036442 0.118061
vn -0.0000 -0.0000 1.0000
vn -0.7071 -0.0000 0.7071
vn -1.0000 -0.0000 -0.0000
vn -0.0000 -0.0000 -1.0000
vn -0.7071 -0.0000 -0.7071
vn 1.0000 -0.0000 -0.0000
vn 0.7071 -0.0000 -0.7071
vn 0.7071 -0.0000 0.7071
vn -0.0000 -1.0000 -0.0000
vn -0.0000 1.0000 -0.0000
vt 0.035233 0.556641
vt 0.035233 0.582039
vt 0.041093 0.582039
vt 0.041093 0.556641
vt 0.046952 0.582039
vt 0.046952 0.556641
vt 0.041093 0.582039
vt 0.046952 0.582039
vt 0.041093 0.582039
vt 0.046952 0.582039
vt 0.041093 0.582039
vt 0.035233 0.582039
vt 0.048760 0.637370
vt 0.048760 0.643988
vt 0.044348 0.648400
vt 0.037730 0.648400
vt 0.033317 0.643988
vt 0.033317 0.637370
vt 0.037730 0.632957
vt 0.044348 0.632957
vt 0.035156 0.582031
vt 0.035156 0.560547
vt 0.041016 0.560547
vt 0.041016 0.582031
vt 0.043755 0.563961
vt 0.044348 0.562645
vt 0.037730 0.562645
vt 0.038322 0.563962
vt 0.034634 0.573083
vt 0.033317 0.573675
vt 0.037730 0.578088
vt 0.038322 0.576771
vt 0.034634 0.567650
vt 0.033317 0.567057
vt 0.043755 0.576771
vt 0.044348 0.578088
vt 0.048760 0.573675
vt 0.047444 0.573083
vt 0.048760 0.567057
vt 0.047444 0.567650
vt 0.047444 0.573083
vt 0.047444 0.567650
vt 0.043755 0.563961
vt 0.038322 0.563962
vt 0.034634 0.567650
vt 0.034634 0.573083
vt 0.038322 0.576771
vt 0.046875 0.560547
vt 0.046875 0.582031
s 1
usemtl ammo_mp_1
f 1/1/1 43/2/1 59/3/2
f 1/1/1 59/3/2 7/4/2
f 7/4/2 59/3/2 57/5/3
f 7/4/2 57/5/3 5/6/3
f 50/5/4 14/6/4 15/4/5
f 50/5/4 15/4/5 54/7/5
f 54/7/5 15/4/5 4/1/3
f 54/7/5 4/1/3 56/2/3
f 53/8/6 19/6/6 25/4/7
f 53/8/6 25/4/7 47/9/7
f 47/9/7 25/4/7 12/1/4
f 47/9/7 12/1/4 48/2/4
f 45/10/1 3/6/1 21/4/8
f 45/10/1 21/4/8 42/11/8
f 42/11/8 21/4/8 18/1/6
f 42/11/8 18/1/6 52/12/6
s 0
f 8/13/9 6/14/9 16/15/9
f 16/15/9 13/16/9 24/17/9
f 24/17/9 17/18/9 20/19/9
f 20/19/9 2/20/9 8/13/9
f 8/13/9 16/15/9 24/17/9
f 24/17/9 20/19/9 8/13/9
s 1
f 26/21/6 76/22/6 74/23/8
f 26/21/6 74/23/8 34/24/8
s 0
f 10/25/10 44/26/10 41/27/10
f 10/25/10 41/27/10 22/28/10
f 39/29/10 46/30/10 49/31/10
f 39/29/10 49/31/10 32/32/10
f 36/33/10 51/34/10 46/30/10
f 36/33/10 46/30/10 39/29/10
f 35/35/10 55/36/10 58/37/10
f 35/35/10 58/37/10 28/38/10
f 28/38/10 58/37/10 60/39/10
f 28/38/10 60/39/10 30/40/10
f 32/32/10 49/31/10 55/36/10
f 32/32/10 55/36/10 35/35/10
f 30/40/10 60/39/10 44/26/10
f 30/40/10 44/26/10 10/25/10
f 22/28/10 41/27/10 51/34/10
f 22/28/10 51/34/10 36/33/10
f 75/35/10 78/41/10 80/42/10
f 80/42/10 64/43/10 61/44/10
f 61/44/10 71/45/10 66/46/10
f 66/46/10 69/47/10 75/35/10
f 75/35/10 80/42/10 61/44/10
f 61/44/10 66/46/10 75/35/10
s 1
f 31/21/1 68/22/1 67/23/2
f 31/21/1 67/23/2 40/24/2
f 9/21/4 63/22/4 79/23/7
f 9/21/4 79/23/7 29/24/7
f 29/24/7 79/23/7 77/48/6
f 29/24/7 77/48/6 27/49/6
f 40/24/2 67/23/2 73/48/3
f 40/24/2 73/48/3 38/49/3
f 23/24/5 62/23/5 65/48/4
f 23/24/5 65/48/4 11/49/4
f 37/21/3 72/22/3 62/23/5
f 37/21/3 62/23/5 23/24/5
f 34/24/8 74/23/8 70/48/1
f 34/24/8 70/48/1 33/49/1
