# Blender 4.5.3 LTS
# www.blender.org
mtllib ammo_box_mp_5_1.mtl
o ammo_box_mp_5_1
v -3.242092 3.120002 -1.560000
v -3.242092 3.120002 -1.560000
v -3.242092 3.120002 -1.560000
v 3.242229 3.120002 -1.560001
v 3.242229 3.120002 -1.560001
v 3.242229 -0.000000 -1.560001
v 3.242229 -0.000000 -1.560001
v -3.242130 0.000000 1.560001
v -3.242130 0.000000 1.560001
v -3.242130 0.000000 1.560001
v -3.242130 3.120001 1.560001
v -3.242130 3.120001 1.560001
v -3.242130 3.120001 1.560001
v -3.242092 -0.000000 -1.560000
v -3.242092 -0.000000 -1.560000
v -3.242092 -0.000000 -1.560000
v 3.242229 3.120002 -1.560001
v 3.242229 3.120002 -1.560001
v 3.242229 3.120002 -1.560001
v 3.242229 -0.000000 -1.560001
v 3.242229 -0.000000 -1.560001
v 3.242229 -0.000000 -1.560001
v 3.242229 3.120002 1.560000
v 3.242229 3.120002 1.560000
v 3.242229 3.120002 1.560000
v 3.242229 0.000000 1.560000
v 3.242229 0.000000 1.560000
v 3.242229 0.000000 1.560000
vn -1.0000 -0.0000 -0.0000
vn -0.0000 -0.0000 -1.0000
vn -0.0000 -0.0000 -0.0000
vn 1.0000 -0.0000 -0.0000
vn -0.0000 -0.0000 1.0000
vn -0.0000 1.0000 -0.0000
vn -0.0000 -1.0000 -0.0000
vt 0.917969 0.837891
vt 1.000000 0.837891
vt 1.000000 0.917969
vt 0.917969 0.917969
vt 0.750000 0.837891
vt 0.750000 0.917969
vt 0.750000 0.675781
vt 0.917969 0.675781
vt 0.917969 0.755859
vt 0.750000 0.755859
vt 0.750000 1.000000
vt 0.917969 1.000000
s 0
usemtl ammo_mp_1
f 14/1/1 10/2/1 13/3/1
f 14/1/1 13/3/1 2/4/1
f 6/5/2 15/1/2 3/4/2
f 6/5/2 3/4/2 4/6/2
f 7/5/3 5/6/3 20/5/3
f 5/6/3 18/6/3 20/5/3
f 22/1/4 19/4/4 25/3/4
f 22/1/4 25/3/4 28/2/4
f 8/7/5 27/8/5 24/9/5
f 8/7/5 24/9/5 11/10/5
f 12/4/6 23/6/6 17/11/6
f 12/4/6 17/11/6 1/12/6
f 16/1/7 21/5/7 26/10/7
f 16/1/7 26/10/7 9/9/7
