# Blender 4.5.3 LTS
# www.blender.org
mtllib floppy_disc_1.mtl
o floppy_disc_1
v 2.209560 0.057600 -2.534400
v 2.209560 0.057600 -2.534400
v 2.209560 0.057600 -2.534400
v 2.209560 0.057600 -2.534400
v 2.534400 0.057600 -2.209560
v 2.534400 0.057600 -2.209560
v 2.534400 0.057600 -2.209560
v 2.534400 0.057600 -2.209560
v 2.209560 0.288000 -2.534400
v 2.209560 0.288000 -2.534400
v 2.209560 0.288000 -2.534400
v 2.209560 0.288000 -2.534400
v 2.534400 0.288000 -2.209560
v 2.534400 0.288000 -2.209560
v 2.534400 0.288000 -2.209560
v 2.534400 0.288000 -2.209560
v -2.419200 0.057600 2.534400
v -2.419200 0.057600 2.534400
v -2.419200 0.057600 2.534400
v -2.419200 0.057600 2.534400
v -2.534400 0.057600 2.419200
v -2.534400 0.057600 2.419200
v -2.534400 0.057600 2.419200
v -2.534400 0.057600 2.419200
v -2.534400 0.057600 -2.419200
v -2.534400 0.057600 -2.419200
v -2.534400 0.057600 -2.419200
v -2.419200 0.057600 -2.534400
v -2.419200 0.057600 -2.534400
v -2.419200 0.057600 -2.534400
v 2.534400 0.057600 2.419200
v 2.534400 0.057600 2.419200
v 2.534400 0.057600 2.419200
v 2.419200 0.057600 2.534400
v 2.419200 0.057600 2.534400
v 2.419200 0.057600 2.534400
v -2.534400 0.288000 2.419200
v -2.534400 0.288000 2.419200
v -2.534400 0.288000 2.419200
v -2.534400 0.288000 2.419200
v -2.419200 0.288000 2.534400
v -2.419200 0.288000 2.534400
v -2.419200 0.288000 2.534400
v -2.419200 0.288000 2.534400
v -2.419200 0.288000 -2.534400
v -2.419200 0.288000 -2.534400
v -2.419200 0.288000 -2.534400
v -2.534400 0.288000 -2.419200
v -2.534400 0.288000 -2.419200
v -2.534400 0.288000 -2.419200
v 2.419200 0.288000 2.534400
v 2.419200 0.288000 2.534400
v 2.419200 0.288000 2.534400
v 2.534400 0.288000 2.419200
v 2.534400 0.288000 2.419200
v 2.534400 0.288000 2.419200
v -1.359494 0.345600 -1.007549
v -1.359494 0.345600 -1.007549
v -1.359494 0.345600 -1.007549
v -1.173583 0.345600 -0.842295
v -1.173583 0.345600 -0.842295
v -1.173583 0.345600 -0.842295
v 1.360302 0.345600 -0.842295
v 1.360302 0.345600 -0.842295
v 1.360302 0.345600 -0.842295
v 1.525556 0.345600 -1.021320
v 1.525556 0.345600 -1.021320
v 1.525556 0.345600 -1.021320
v -1.359403 0.000000 -1.007549
v -1.359403 0.000000 -1.007549
v -1.359403 0.000000 -1.007549
v -1.359403 0.000000 -1.007549
v -1.173464 0.000000 -0.842297
v -1.173464 0.000000 -0.842297
v -1.173464 0.000000 -0.842297
v 1.360327 0.000000 -0.842297
v 1.360327 0.000000 -0.842297
v 1.360327 0.000000 -0.842297
v 1.525639 0.000000 -1.021319
v 1.525639 0.000000 -1.021319
v 1.525639 0.000000 -1.021319
v 1.525639 0.000000 -1.021319
v -1.359492 0.345600 -2.592000
v -1.359492 0.345600 -2.592000
v -1.359492 0.345600 -2.592000
v 1.525563 0.345600 -2.592000
v 1.525563 0.345600 -2.592000
v 1.525563 0.345600 -2.592000
v -1.363670 0.000000 -2.592000
v -1.363670 0.000000 -2.592000
v -1.363670 0.000000 -2.592000
v 1.524175 0.000000 -2.592000
v 1.524175 0.000000 -2.592000
v 1.524175 0.000000 -2.592000
vn -0.0000 -1.0000 -0.0000
vn -0.0000 -0.0000 1.0000
vn -0.6643 -0.0002 0.7475
vn -0.6644 -0.0002 0.7474
vn 1.0000 -0.0019 -0.0005
vn 1.0000 -0.0020 -0.0004
vn 0.7347 0.0001 0.6784
vn 0.7348 0.0002 0.6783
vn -0.0000 1.0000 -0.0000
vn -0.0000 -0.0000 -1.0000
vn -1.0000 0.0059 0.0013
vn 0.7071 -0.0000 -0.7071
vn 0.7071 -0.0000 0.7071
vn -1.0000 -0.0000 -0.0000
vn -0.7071 -0.0000 0.7071
vn 1.0000 -0.0000 -0.0000
vn -0.7071 -0.0000 -0.7071
vt 0.858542 0.655147
vt 0.875123 0.686524
vt 0.609240 0.690304
vt 0.624418 0.655146
vt 0.375000 0.656250
vt 0.375921 0.656263
vt 0.634209 0.659784
vt 0.634184 0.658687
vt 0.365896 0.690923
vt 0.366118 0.691537
vt 0.375384 0.654757
vt 0.875000 1.000000
vt 0.609375 1.000000
vt 0.656250 0.718750
vt 0.656247 0.721273
vt 0.655964 1.000000
vt 0.656101 1.000000
vt 0.633602 0.659864
vt 0.657293 0.721521
vt 0.390625 0.687500
vt 0.390625 1.000000
vt 0.125000 1.000000
vt 0.125000 0.687500
vt 0.140625 0.656250
vt 0.140625 0.312500
vt 0.406250 0.312500
vt 0.406250 0.250000
vt 0.140625 0.250000
vt 0.365484 1.000000
vt 0.366025 0.690924
vt 0.365896 1.000000
vt 0.000000 0.966292
vt 0.000000 0.022472
vt 0.467957 0.988764
vt 0.011364 0.988764
vt 0.532043 0.988764
vt 0.500000 0.925398
vt 0.988636 0.000000
vt 1.000000 0.022472
vt 1.000000 0.966292
vt 0.988636 0.988764
vt 0.968929 0.299082
vt 0.968929 0.253628
vt 0.512335 0.253628
vt 0.512335 0.299082
vt 0.876943 0.299082
vt 0.876943 0.253628
vt 0.812857 0.253628
vt 0.812857 0.299082
vt 0.989608 0.299082
vt 0.989608 0.253628
vt 1.000972 0.253628
vt 1.000972 0.299082
vt 0.521774 0.253628
vt 0.521774 0.299082
vt 0.999047 0.299082
vt 0.999047 0.253628
vt 0.500972 0.299082
vt 0.500972 0.253628
vt 0.011364 0.000000
vt 0.978367 0.299082
vt 0.978367 0.253628
vt 0.488636 0.000000
vt 0.500000 0.022472
vt 0.511364 0.000000
s 0
usemtl floppy_disc_1
f 75/1/1 71/2/1 79/3/1
f 75/1/1 79/3/1 76/4/1
f 62/5/2 74/6/2 78/7/2
s 1
f 62/5/2 78/7/2 64/8/2
s 0
f 59/9/3 70/10/3 73/11/3
f 59/9/4 73/11/4 61/5/4
f 72/2/1 91/12/1 93/13/1
f 72/2/1 93/13/1 80/3/1
s 1
f 68/14/5 81/15/6 94/16/5
f 68/14/5 94/16/5 88/17/5
s 0
f 65/8/7 77/18/7 82/19/7
f 65/8/8 82/19/8 67/14/8
f 66/20/9 86/21/9 83/22/9
f 66/20/9 83/22/9 57/23/9
f 63/5/9 66/20/9 57/23/9
f 63/5/9 57/23/9 60/24/9
f 84/25/10 87/26/10 92/27/10
f 84/25/10 92/27/10 89/28/10
s 1
f 90/29/11 69/30/11 58/9/11
f 90/29/11 58/9/11 85/31/11
s 0
f 48/32/9 37/33/9 9/34/9
f 48/32/9 9/34/9 45/35/9
f 1/36/1 5/37/1 19/38/1
f 1/36/1 19/38/1 23/39/1
f 27/40/1 30/41/1 2/36/1
f 27/40/1 2/36/1 24/39/1
f 12/42/10 4/43/10 29/44/10
f 12/42/10 29/44/10 47/45/10
f 15/46/12 7/47/12 3/48/12
f 15/46/12 3/48/12 11/49/12
s 1
f 53/50/13 36/51/13 33/52/13
f 53/50/13 33/52/13 56/53/13
s 0
f 22/54/14 40/55/14 50/56/14
f 22/54/14 50/56/14 26/57/14
s 1
f 17/44/15 43/45/15 39/58/15
f 17/44/15 39/58/15 21/59/15
s 0
f 38/33/9 42/60/9 14/37/9
f 38/33/9 14/37/9 10/34/9
f 16/61/16 55/55/16 32/54/16
f 16/61/16 32/54/16 8/62/16
f 35/51/2 52/50/2 44/45/2
f 35/51/2 44/45/2 18/44/2
f 41/60/9 51/63/9 54/64/9
f 41/60/9 54/64/9 13/37/9
f 34/65/1 20/38/1 6/37/1
f 34/65/1 6/37/1 31/64/1
s 1
f 25/59/17 49/58/17 46/45/17
f 25/59/17 46/45/17 28/44/17
