# Blender 4.5.3 LTS
# www.blender.org
mtllib ammo_pistol_loose_2pcs_mp_2.mtl
o ammo_pistol_loose_2pcs_mp_2
v -0.174316 0.000000 -0.170479
v -0.174316 0.000000 -0.170479
v -0.174316 0.000000 -0.170479
v -0.375916 0.000000 -0.372079
v -0.375916 0.000000 -0.372079
v -0.375916 0.000000 -0.372079
v -0.316869 0.000000 -0.229527
v -0.316869 0.000000 -0.229527
v -0.375916 0.691200 -0.372079
v -0.375916 0.691200 -0.372079
v -0.375916 0.691200 -0.372079
v -0.375916 0.691200 -0.372079
v -0.174316 0.691200 -0.170479
v -0.174316 0.691200 -0.170479
v -0.174316 0.691200 -0.170479
v -0.174316 0.691200 -0.170479
v -0.316869 0.691200 -0.229527
v -0.316869 0.691200 -0.229527
v -0.174316 0.000000 -0.573680
v -0.174316 0.000000 -0.573680
v -0.174316 0.000000 -0.573680
v -0.316869 0.000000 -0.514632
v -0.316869 0.000000 -0.514632
v -0.174316 0.691200 -0.573680
v -0.174316 0.691200 -0.573680
v -0.174316 0.691200 -0.573680
v -0.174316 0.691200 -0.573680
v -0.316869 0.691200 -0.514632
v -0.316869 0.691200 -0.514632
v 0.027284 0.000000 -0.372079
v 0.027284 0.000000 -0.372079
v 0.027284 0.000000 -0.372079
v -0.031764 0.000000 -0.229527
v -0.031764 0.000000 -0.229527
v 0.027284 0.691200 -0.372079
v 0.027284 0.691200 -0.372079
v 0.027284 0.691200 -0.372079
v 0.027284 0.691200 -0.372079
v -0.031764 0.691200 -0.229527
v -0.031764 0.691200 -0.229527
v -0.031764 0.000000 -0.514632
v -0.031764 0.000000 -0.514632
v -0.031764 0.691200 -0.514632
v -0.031764 0.691200 -0.514632
v -0.375916 0.825725 -0.372079
v -0.375916 0.825725 -0.372079
v -0.174316 0.950937 -0.372079
v -0.318130 1.047413 -0.372079
v -0.318130 1.047413 -0.372079
v -0.318130 1.047413 -0.372079
v -0.174316 0.825725 -0.170479
v -0.174316 0.825725 -0.170479
v -0.174316 1.047413 -0.228265
v -0.174316 1.047413 -0.228265
v -0.174316 1.047413 -0.228265
v -0.316869 0.825725 -0.229527
v -0.276008 1.047413 -0.270388
v -0.276008 1.047413 -0.270388
v -0.174316 0.825725 -0.573680
v -0.174316 0.825725 -0.573680
v -0.174316 1.047413 -0.515894
v -0.174316 1.047413 -0.515894
v -0.174316 1.047413 -0.515894
v -0.316869 0.825725 -0.514632
v -0.276008 1.047413 -0.473771
v -0.276008 1.047413 -0.473771
v 0.027284 0.825725 -0.372079
v 0.027284 0.825725 -0.372079
v -0.030502 1.047413 -0.372079
v -0.030502 1.047413 -0.372079
v -0.030502 1.047413 -0.372079
v -0.031764 0.825725 -0.229527
v -0.072625 1.047413 -0.270388
v -0.072625 1.047413 -0.270388
v -0.031764 0.825725 -0.514632
v -0.072625 1.047413 -0.473771
v -0.072625 1.047413 -0.473771
v -0.258034 0.999348 -0.372079
v -0.115119 0.999348 -0.312882
v -0.174316 0.999348 -0.288362
v -0.174316 0.999348 -0.455797
v -0.115119 0.999348 -0.431277
v -0.233514 0.999348 -0.431277
v -0.090599 0.999348 -0.372079
v -0.233514 0.999348 -0.312882
v -0.039982 0.968569 -0.237745
v -0.174316 0.968569 -0.182102
v -0.174316 0.968569 -0.182102
v -0.174316 0.968569 -0.562057
v -0.174316 0.968569 -0.562057
v -0.039982 0.968569 -0.506414
v -0.364294 0.968569 -0.372079
v -0.364294 0.968569 -0.372079
v -0.308651 0.968569 -0.506414
v 0.015661 0.968569 -0.372079
v 0.015661 0.968569 -0.372079
v -0.308651 0.968569 -0.237745
v 0.465967 0.000000 -0.207345
v 0.465967 0.000000 -0.207345
v 0.465967 0.000000 -0.207345
v 0.323414 0.201600 -0.349898
v 0.323414 0.201600 -0.349898
v 0.323414 0.201600 -0.349898
v 0.365167 0.059047 -0.308145
v 0.365167 0.059047 -0.308145
v -0.165338 0.201600 0.138854
v -0.165338 0.201600 0.138854
v -0.165338 0.201600 0.138854
v -0.165338 0.201600 0.138854
v -0.022785 0.000000 0.281407
v -0.022785 0.000000 0.281407
v -0.022785 0.000000 0.281407
v -0.022785 0.000000 0.281407
v -0.123585 0.059047 0.180607
v -0.123585 0.059047 0.180607
v 0.465967 0.403200 -0.207345
v 0.465967 0.403200 -0.207345
v 0.465967 0.403200 -0.207345
v 0.365167 0.344153 -0.308145
v 0.365167 0.344153 -0.308145
v -0.022785 0.403200 0.281407
v -0.022785 0.403200 0.281407
v -0.022785 0.403200 0.281407
v -0.022785 0.403200 0.281407
v -0.123585 0.344153 0.180607
v -0.123585 0.344153 0.180607
v 0.608520 0.201600 -0.064792
v 0.608520 0.201600 -0.064792
v 0.608520 0.201600 -0.064792
v 0.566767 0.059047 -0.106545
v 0.566767 0.059047 -0.106545
v 0.119767 0.201600 0.423960
v 0.119767 0.201600 0.423960
v 0.119767 0.201600 0.423960
v 0.119767 0.201600 0.423960
v 0.078015 0.059047 0.382207
v 0.078015 0.059047 0.382207
v 0.566767 0.344153 -0.106545
v 0.566767 0.344153 -0.106545
v 0.078015 0.344153 0.382207
v 0.078015 0.344153 0.382207
v -0.260461 0.201600 0.233978
v -0.260461 0.201600 0.233978
v -0.206447 0.201600 0.465069
v -0.376358 0.201600 0.431596
v -0.376358 0.201600 0.431596
v -0.376358 0.201600 0.431596
v -0.117909 0.000000 0.376530
v -0.117909 0.000000 0.376530
v -0.274666 0.057786 0.533288
v -0.274666 0.057786 0.533288
v -0.274666 0.057786 0.533288
v -0.218709 0.059047 0.275730
v -0.346573 0.099908 0.461381
v -0.346573 0.099908 0.461381
v -0.117909 0.403200 0.376530
v -0.117909 0.403200 0.376530
v -0.274666 0.345414 0.533288
v -0.274666 0.345414 0.533288
v -0.274666 0.345414 0.533288
v -0.218709 0.344153 0.275730
v -0.346573 0.303292 0.461381
v -0.346573 0.303292 0.461381
v 0.024644 0.201600 0.519083
v 0.024644 0.201600 0.519083
v -0.172974 0.201600 0.634979
v -0.172974 0.201600 0.634979
v -0.172974 0.201600 0.634979
v -0.017109 0.059047 0.477330
v -0.202759 0.099908 0.605195
v -0.202759 0.099908 0.605195
v -0.017109 0.344153 0.477330
v -0.202759 0.303292 0.605195
v -0.202759 0.303292 0.605195
v -0.299876 0.201600 0.440103
v -0.198820 0.142403 0.541160
v -0.240679 0.117882 0.499301
v -0.240679 0.285318 0.499301
v -0.198820 0.260798 0.541160
v -0.282538 0.260798 0.457442
v -0.181481 0.201600 0.558498
v -0.282538 0.142403 0.457442
v -0.123926 0.067266 0.572525
v -0.218915 0.011622 0.477536
v -0.218915 0.011622 0.477536
v -0.218915 0.391578 0.477536
v -0.218915 0.391578 0.477536
v -0.123926 0.335935 0.572525
v -0.353249 0.201600 0.343202
v -0.353249 0.201600 0.343202
v -0.313904 0.335935 0.382548
v -0.084580 0.201600 0.611871
v -0.084580 0.201600 0.611871
v -0.313904 0.067266 0.382548
vn -0.0000 -0.0000 1.0000
vn 0.7071 -0.0000 0.7071
vn 0.7065 0.0402 0.7065
vn -0.0000 0.0402 0.9992
vn -0.7071 -0.0000 0.7071
vn -1.0000 -0.0000 -0.0000
vn -0.0000 -0.0000 -1.0000
vn -0.7071 -0.0000 -0.7071
vn 1.0000 -0.0000 -0.0000
vn 0.7071 -0.0000 -0.7071
vn -0.0000 -1.0000 -0.0000
vn -0.7065 0.0402 0.7065
vn -0.9992 0.0402 -0.0000
vn -0.0000 0.0402 -0.9992
vn 0.7065 0.0402 -0.7065
vn 0.9992 0.0402 -0.0000
vn -0.7065 0.0402 -0.7065
vn -0.0000 0.8170 -0.5766
vn -0.0000 0.7809 -0.6246
vn -0.4417 0.7809 -0.4417
vn -0.4077 0.8170 -0.4077
vn 0.6775 0.2862 0.6775
vn -0.0000 0.2862 0.9582
vn -0.4077 0.8170 0.4077
vn -0.4417 0.7809 0.4417
vn -0.0000 0.7809 0.6246
vn -0.0000 0.8170 0.5766
vn -0.0000 0.2862 -0.9582
vn 0.6775 0.2862 -0.6775
vn 0.4077 0.8170 0.4077
vn 0.4417 0.7809 0.4417
vn 0.6246 0.7809 -0.0000
vn 0.5766 0.8170 -0.0000
vn -0.9582 0.2862 -0.0000
vn -0.6775 0.2862 -0.6775
vn -0.5766 0.8170 -0.0000
vn -0.6246 0.7809 -0.0000
vn 0.9582 0.2862 -0.0000
vn 0.4077 0.8170 -0.4077
vn 0.4417 0.7809 -0.4417
vn -0.6775 0.2862 0.6775
vn -0.0000 1.0000 -0.0000
vn 0.8630 0.5052 0.0001
vn 0.6102 0.5053 0.6102
vn -0.6102 0.5053 -0.6102
vn -0.0001 0.5053 -0.8630
vn -0.6102 0.5053 0.6102
vn -0.8630 0.5053 0.0001
vn -0.0001 0.5052 0.8630
vn 0.6102 0.5053 -0.6102
vn 0.8630 0.5053 -0.0001
vn -0.8630 0.5052 -0.0001
vn 0.0001 0.5053 -0.8630
vn 0.0001 0.5053 0.8630
vn 0.5000 -0.7071 0.5000
vn 0.4712 -0.7065 0.5280
vn -0.0284 -0.9992 0.0284
vn -0.0001 -1.0000 0.0001
vn -0.5000 -0.7071 -0.5000
vn -0.5000 0.7071 -0.5000
vn 0.7072 -0.0000 0.7070
vn 0.5000 0.7071 0.5000
vn -0.0001 1.0000 0.0001
vn -0.5280 -0.7065 -0.4712
vn -0.7350 -0.0000 -0.6781
vn -0.0284 0.9992 0.0284
vn 0.4712 0.7065 0.5280
vn 0.6781 -0.0000 0.7350
vn -0.5280 0.7065 -0.4712
vn -0.5777 0.5766 0.5777
vn -0.5522 0.6246 0.5522
vn -0.8645 0.4417 0.2399
vn -0.8660 0.4077 0.2894
vn 0.2767 -0.6775 0.6815
vn -0.2023 -0.9582 0.2024
vn -0.8660 -0.4077 0.2894
vn -0.8645 -0.4417 0.2399
vn -0.5522 -0.6246 0.5522
vn -0.5777 -0.5766 0.5777
vn -0.2024 0.9582 0.2024
vn 0.2767 0.6775 0.6815
vn -0.2894 -0.4077 0.8660
vn -0.2399 -0.4417 0.8645
vn -0.1106 -0.0000 0.9939
vn -0.1700 -0.0000 0.9854
vn -0.8799 -0.0000 -0.4751
vn -0.6815 0.6775 -0.2767
vn -0.9854 -0.0000 0.1700
vn -0.9939 -0.0000 0.1106
vn 0.4752 -0.0000 0.8799
vn -0.2894 0.4077 0.8660
vn -0.2399 0.4417 0.8645
vn -0.2024 -0.9582 0.2024
vn -0.6815 -0.6775 -0.2767
vn -0.8799 -0.0000 -0.4752
vn -0.2024 0.9582 0.2023
vn 0.4751 -0.0000 0.8799
vn 0.2530 -0.0001 0.9675
vn 0.0742 -0.6102 0.7888
vn -0.7888 0.6102 -0.0742
vn -0.3573 0.8630 0.3572
vn -0.7888 -0.6102 -0.0742
vn -0.9675 -0.0001 -0.2529
vn -0.3573 -0.8630 0.3572
vn 0.0742 0.6102 0.7888
vn 0.2529 0.0001 0.9675
vn -0.9675 0.0001 -0.2530
vn -0.3572 0.8630 0.3573
vn -0.3572 -0.8630 0.3573
vt 0.035233 0.580078
vt 0.041093 0.580078
vt 0.041090 0.584931
vt 0.035220 0.584931
vt 0.035233 0.556641
vt 0.035233 0.582031
vt 0.041093 0.582031
vt 0.041093 0.556641
vt 0.046952 0.582031
vt 0.046952 0.556641
vt 0.048760 0.637370
vt 0.048760 0.643988
vt 0.044348 0.648400
vt 0.037730 0.648400
vt 0.033317 0.643988
vt 0.033317 0.637370
vt 0.037730 0.632957
vt 0.044348 0.632957
vt 0.041090 0.584931
vt 0.035220 0.584931
vt 0.046952 0.580078
vt 0.046960 0.584931
vt 0.046960 0.584931
vt 0.046960 0.584931
vt 0.041090 0.584931
vt 0.035220 0.584931
vt 0.043018 0.661337
vt 0.044306 0.658252
vt 0.048858 0.662822
vt 0.045762 0.664092
vt 0.041114 0.589988
vt 0.035627 0.589988
vt 0.042993 0.670718
vt 0.044265 0.673814
vt 0.037816 0.673787
vt 0.039105 0.670702
vt 0.046601 0.589988
vt 0.041114 0.589987
vt 0.036361 0.667948
vt 0.033265 0.669218
vt 0.033267 0.662763
vt 0.036362 0.664057
vt 0.046601 0.589988
vt 0.041114 0.589987
vt 0.045760 0.667983
vt 0.048856 0.669277
vt 0.035627 0.589988
vt 0.039129 0.661321
vt 0.037857 0.658226
vt 0.046601 0.589988
vt 0.041114 0.589988
vt 0.035627 0.589988
vt 0.035627 0.589988
vt 0.046601 0.589987
vt 0.041061 0.666019
vt 0.045933 0.593107
vt 0.041129 0.593107
vt 0.041129 0.593107
vt 0.036326 0.593107
vt 0.041129 0.593107
vt 0.036326 0.593107
vt 0.041129 0.593107
vt 0.036326 0.593107
vt 0.045933 0.593107
vt 0.045933 0.593107
vt 0.036326 0.593107
s 1
usemtl ammo_mp_1
f 14/1/1 40/2/2 72/3/3
f 14/1/1 72/3/3 51/4/4
f 1/5/1 13/6/1 17/7/5
f 1/5/1 17/7/5 7/8/5
f 7/8/5 17/7/5 11/9/6
f 7/8/5 11/9/6 5/10/6
f 26/9/7 21/10/7 22/8/8
f 26/9/7 22/8/8 28/7/8
f 28/7/8 22/8/8 4/5/6
f 28/7/8 4/5/6 9/6/6
f 37/9/9 32/10/9 42/8/10
f 37/9/9 42/8/10 43/7/10
f 43/7/10 42/8/10 19/5/7
f 43/7/10 19/5/7 24/6/7
f 15/9/1 3/10/1 34/8/2
f 15/9/1 34/8/2 39/7/2
f 39/7/2 34/8/2 31/5/9
f 39/7/2 31/5/9 35/6/9
s 0
f 8/11/11 6/12/11 23/13/11
f 23/13/11 20/14/11 41/15/11
f 41/15/11 30/16/11 33/17/11
f 33/17/11 2/18/11 8/11/11
f 8/11/11 23/13/11 41/15/11
f 41/15/11 33/17/11 8/11/11
s 1
f 10/1/6 18/2/5 56/19/12
f 10/1/6 56/19/12 45/20/13
f 44/2/10 27/21/7 60/22/14
f 44/2/10 60/22/14 75/19/15
f 40/2/2 38/21/9 68/23/16
f 40/2/2 68/23/16 72/3/3
f 36/1/9 44/2/10 75/19/15
f 36/1/9 75/19/15 67/4/16
f 29/2/8 12/21/6 46/24/13
f 29/2/8 46/24/13 64/25/17
f 25/1/7 29/2/8 64/25/17
f 25/1/7 64/25/17 59/26/14
f 18/2/5 16/21/1 52/23/4
f 18/2/5 52/23/4 56/19/12
f 80/27/18 54/28/19 74/29/20
f 80/27/18 74/29/20 79/30/21
f 86/31/22 87/32/23 51/4/4
f 86/31/22 51/4/4 72/3/3
f 82/33/24 77/34/25 62/35/26
f 82/33/24 62/35/26 81/36/27
f 90/37/28 91/38/29 75/19/15
f 90/37/28 75/19/15 60/22/14
f 83/39/30 65/40/31 48/41/32
f 83/39/30 48/41/32 78/42/33
f 93/43/34 94/44/35 64/25/17
f 93/43/34 64/25/17 46/24/13
f 84/45/36 71/46/37 77/34/25
f 84/45/36 77/34/25 82/33/24
f 91/38/29 95/47/38 67/4/16
f 91/38/29 67/4/16 75/19/15
f 85/48/39 57/49/40 54/28/19
f 85/48/39 54/28/19 80/27/18
f 88/50/23 97/51/41 56/19/12
f 88/50/23 56/19/12 52/23/4
f 78/42/33 48/41/32 57/49/40
f 78/42/33 57/49/40 85/48/39
f 97/51/41 92/52/34 45/20/13
f 97/51/41 45/20/13 56/19/12
f 81/36/27 62/35/26 65/40/31
f 81/36/27 65/40/31 83/39/30
f 94/44/35 89/53/28 59/26/14
f 94/44/35 59/26/14 64/25/17
f 79/30/21 74/29/20 71/46/37
f 79/30/21 71/46/37 84/45/36
f 96/54/38 86/31/22 72/3/3
f 96/54/38 72/3/3 68/23/16
f 47/55/42 79/30/21 84/45/36
f 47/55/42 81/36/27 83/39/30
f 47/55/42 78/42/33 85/48/39
f 47/55/42 85/48/39 80/27/18
f 47/55/42 84/45/36 82/33/24
f 47/55/42 83/39/30 78/42/33
f 47/55/42 82/33/24 81/36/27
f 47/55/42 80/27/18 79/30/21
f 70/56/43 73/57/44 86/31/22
f 70/56/43 86/31/22 96/54/38
f 66/58/45 61/59/46 89/53/28
f 66/58/45 89/53/28 94/44/35
f 58/60/47 49/61/48 92/52/34
f 58/60/47 92/52/34 97/51/41
f 55/56/49 58/60/47 97/51/41
f 55/56/49 97/51/41 88/50/23
f 76/62/50 69/63/51 95/47/38
f 76/62/50 95/47/38 91/38/29
f 50/64/52 66/58/45 94/44/35
f 50/64/52 94/44/35 93/43/34
f 63/65/53 76/62/50 91/38/29
f 63/65/53 91/38/29 90/37/28
f 73/57/44 53/66/54 87/32/23
f 73/57/44 87/32/23 86/31/22
f 111/1/11 137/2/55 169/3/56
f 111/1/11 169/3/56 148/4/57
f 98/5/11 110/6/58 114/7/59
f 98/5/11 114/7/59 104/8/59
f 104/8/59 114/7/59 108/9/8
f 104/8/59 108/9/8 102/10/8
f 123/9/42 118/10/42 119/8/60
f 123/9/42 119/8/60 125/7/60
f 125/7/60 119/8/60 101/5/8
f 125/7/60 101/5/8 106/6/8
f 134/9/2 129/10/61 139/8/62
f 134/9/2 139/8/62 140/7/62
f 140/7/62 139/8/62 116/5/42
f 140/7/62 116/5/42 121/6/63
f 112/9/11 100/10/11 131/8/55
f 112/9/11 131/8/55 136/7/55
f 136/7/55 131/8/55 128/5/2
f 136/7/55 128/5/2 132/6/2
s 0
f 105/11/10 103/12/10 120/13/10
f 120/13/10 117/14/10 138/15/10
f 138/15/10 127/16/10 130/17/10
f 130/17/10 99/18/10 105/11/10
f 105/11/10 120/13/10 138/15/10
f 138/15/10 130/17/10 105/11/10
s 1
f 107/1/8 115/2/59 153/19/64
f 107/1/8 153/19/64 142/20/65
f 141/2/62 124/21/42 157/22/66
f 141/2/62 157/22/66 172/19/67
f 137/2/55 135/21/2 165/23/68
f 137/2/55 165/23/68 169/3/56
f 133/1/2 141/2/62 172/19/67
f 133/1/2 172/19/67 164/4/68
f 126/2/60 109/21/8 143/24/65
f 126/2/60 143/24/65 161/25/69
f 122/1/42 126/2/60 161/25/69
f 122/1/42 161/25/69 156/26/66
f 115/2/59 113/21/11 149/23/57
f 115/2/59 149/23/57 153/19/64
f 177/27/70 151/28/71 171/29/72
f 177/27/70 171/29/72 176/30/73
f 183/31/74 184/32/75 148/4/57
f 183/31/74 148/4/57 169/3/56
f 179/33/76 174/34/77 159/35/78
f 179/33/76 159/35/78 178/36/79
f 187/37/80 188/38/81 172/19/67
f 187/37/80 172/19/67 157/22/66
f 180/39/82 162/40/83 145/41/84
f 180/39/82 145/41/84 175/42/85
f 190/43/86 191/44/87 161/25/69
f 190/43/86 161/25/69 143/24/65
f 181/45/88 168/46/89 174/34/77
f 181/45/88 174/34/77 179/33/76
f 188/38/81 192/47/90 164/4/68
f 188/38/81 164/4/68 172/19/67
f 182/48/91 154/49/92 151/28/71
f 182/48/91 151/28/71 177/27/70
f 185/50/93 194/51/94 153/19/64
f 185/50/93 153/19/64 149/23/57
f 175/42/85 145/41/84 154/49/92
f 175/42/85 154/49/92 182/48/91
f 194/51/94 189/52/95 142/20/65
f 194/51/94 142/20/65 153/19/64
f 178/36/79 159/35/78 162/40/83
f 178/36/79 162/40/83 180/39/82
f 191/44/87 186/53/96 156/26/66
f 191/44/87 156/26/66 161/25/69
f 176/30/73 171/29/72 168/46/89
f 176/30/73 168/46/89 181/45/88
f 193/54/97 183/31/74 169/3/56
f 193/54/97 169/3/56 165/23/68
f 144/55/5 176/30/73 181/45/88
f 144/55/5 178/36/79 180/39/82
f 144/55/5 175/42/85 182/48/91
f 144/55/5 182/48/91 177/27/70
f 144/55/5 181/45/88 179/33/76
f 144/55/5 180/39/82 175/42/85
f 144/55/5 179/33/76 178/36/79
f 144/55/5 177/27/70 176/30/73
f 167/56/98 170/57/99 183/31/74
f 167/56/98 183/31/74 193/54/97
f 163/58/100 158/59/101 186/53/96
f 163/58/100 186/53/96 191/44/87
f 155/60/102 146/61/103 189/52/95
f 155/60/102 189/52/95 194/51/94
f 152/56/104 155/60/102 194/51/94
f 152/56/104 194/51/94 185/50/93
f 173/62/105 166/63/106 192/47/90
f 173/62/105 192/47/90 188/38/81
f 147/64/107 163/58/100 191/44/87
f 147/64/107 191/44/87 190/43/86
f 160/65/108 173/62/105 188/38/81
f 160/65/108 188/38/81 187/37/80
f 170/57/99 150/66/109 184/32/75
f 170/57/99 184/32/75 183/31/74
