# Blender 4.5.3 LTS
# www.blender.org
mtllib ammo_box_mp_2.mtl
o ammo_box_mp_2
v -2.493917 2.400001 -1.200000
v -2.493917 2.400001 -1.200000
v -2.493917 2.400001 -1.200000
v -2.493917 2.400001 -1.200000
v -2.493917 2.400001 -1.200000
v -2.493917 2.400001 -1.200000
v -2.493917 2.400001 -1.200000
v -2.493917 2.400001 -1.200000
v -2.493917 2.400001 -1.200000
v -2.493945 0.000000 1.200000
v -2.493945 0.000000 1.200000
v -2.493945 0.000000 1.200000
v -2.493945 2.400000 1.200000
v -2.493945 2.400000 1.200000
v -2.493945 2.400000 1.200000
v -2.493945 2.400000 1.200000
v -2.493945 2.400000 1.200000
v -2.493945 2.400000 1.200000
v -2.493917 -0.000000 -1.200000
v -2.493917 -0.000000 -1.200000
v -2.493917 -0.000000 -1.200000
v 2.494021 2.400001 -1.200000
v 2.494021 2.400001 -1.200000
v 2.494021 2.400001 -1.200000
v 2.494021 2.400001 -1.200000
v 2.494021 2.400001 -1.200000
v 2.494021 2.400001 -1.200000
v 2.494021 2.400001 -1.200000
v 2.494021 2.400001 -1.200000
v 2.494021 2.400001 -1.200000
v 2.494021 -0.000000 -1.200000
v 2.494021 -0.000000 -1.200000
v 2.494021 -0.000000 -1.200000
v 2.494022 2.400001 1.200000
v 2.494022 2.400001 1.200000
v 2.494022 2.400001 1.200000
v 2.494022 2.400001 1.200000
v 2.494022 2.400001 1.200000
v 2.494022 2.400001 1.200000
v 2.494022 0.000000 1.200000
v 2.494022 0.000000 1.200000
v 2.494022 0.000000 1.200000
v 3.134021 2.720001 -1.200001
v 3.134021 2.720001 -1.200001
v 3.134021 2.720001 1.200000
v 3.134021 2.720001 1.200000
v -3.133917 2.720001 -1.200000
v -3.133917 2.720001 -1.200000
v -3.133945 2.720000 1.200000
v -3.133945 2.720000 1.200000
v -2.493917 4.307002 -2.323374
v -2.493917 4.307002 -2.323374
v -2.493917 4.307002 -2.323374
v -2.493917 4.307002 -2.323374
v 2.494021 4.307002 -2.323375
v 2.494021 4.307002 -2.323375
v 2.494021 4.307002 -2.323375
v 2.494021 4.307002 -2.323375
v 3.454021 2.880001 -0.880000
v 3.454021 2.880001 -0.880000
v 3.454021 2.880001 -0.880000
v 3.454021 2.880001 0.880000
v 3.454021 2.880001 0.880000
v 3.454021 2.880001 0.880000
v -3.453936 2.880000 0.880001
v -3.453936 2.880000 0.880001
v -3.453936 2.880000 0.880001
v -3.453927 2.880001 -0.880000
v -3.453927 2.880001 -0.880000
v -3.453927 2.880001 -0.880000
v -2.175271 4.555903 -2.164983
v -2.175271 4.555903 -2.164983
v 2.175375 4.555903 -2.164983
v 2.175375 4.555903 -2.164983
v 2.494115 2.428622 1.200000
v 2.494115 2.428622 1.200000
v 2.494115 2.428622 1.200000
v 3.439710 2.908623 0.880000
v 3.439710 2.908623 0.880000
v 3.439710 2.908623 0.880000
v 3.119710 2.748622 1.200000
v 3.119710 2.748622 1.200000
v 3.119710 2.748622 -1.200001
v 3.119710 2.748622 -1.200001
v 3.439710 2.908623 -0.880000
v 3.439710 2.908623 -0.880000
v 3.439710 2.908623 -0.880000
v -2.493917 2.428623 -1.200000
v -2.493917 2.428623 -1.200000
v -2.493917 2.428623 -1.200000
v -2.493917 2.428623 -1.200000
v -2.493917 2.428623 -1.200000
v -2.493917 2.428623 -1.200000
v 2.494021 2.428623 -1.200000
v 2.494021 2.428623 -1.200000
v 2.494021 2.428623 -1.200000
v 2.494021 2.428623 -1.200000
v 2.494021 2.428623 -1.200000
v 2.494021 2.428623 -1.200000
v -2.494039 2.428622 1.200001
v -2.494039 2.428622 1.200001
v -2.494039 2.428622 1.200001
v -3.439616 2.908623 -0.879999
v -3.439616 2.908623 -0.879999
v -3.439616 2.908623 -0.879999
v -3.119606 2.748622 -1.199999
v -3.119606 2.748622 -1.199999
v -3.119635 2.748622 1.200001
v -3.119635 2.748622 1.200001
v -3.439625 2.908622 0.880001
v -3.439625 2.908622 0.880001
v -3.439625 2.908622 0.880001
v 2.175375 4.538723 -2.137986
v 2.175375 4.538723 -2.137986
v 2.494021 4.306715 -2.279484
v 2.494021 4.306715 -2.279484
v 2.494021 4.306715 -2.279484
v 2.494021 4.306715 -2.279484
v -2.493917 4.306715 -2.279483
v -2.493917 4.306715 -2.279483
v -2.493917 4.306715 -2.279483
v -2.493917 4.306715 -2.279483
v -2.175271 4.538723 -2.137986
v -2.175271 4.538723 -2.137986
v -2.493916 3.228105 -1.772040
v -2.493916 3.228105 -1.772040
v 2.494020 3.228105 -1.772041
v 2.494020 3.228105 -1.772041
v -2.493916 3.240423 -1.739746
v -2.493916 3.240423 -1.739746
v 2.494020 3.240423 -1.739747
v 2.494020 3.240423 -1.739747
v -2.493917 2.699415 -1.484311
v -2.493917 2.699415 -1.484311
v -2.493917 2.715714 -1.457006
v -2.493917 2.715714 -1.457006
v 2.494021 2.699415 -1.484312
v 2.494021 2.699415 -1.484312
v 2.494021 2.715714 -1.457007
v 2.494021 2.715714 -1.457007
v 2.494020 3.782101 -2.028052
v 2.494020 3.782101 -2.028052
v 2.494020 3.796277 -1.992016
v 2.494020 3.796277 -1.992016
v -2.493916 3.782101 -2.028051
v -2.493916 3.782101 -2.028051
v -2.493916 3.796277 -1.992015
v -2.493916 3.796277 -1.992015
vn -1.0000 -0.0000 -0.0000
vn -0.0000 -0.0000 -1.0000
vn 1.0000 -0.0000 -0.0000
vn -0.0000 -0.0000 1.0000
vn -0.0000 1.0000 -0.0000
vn -0.0000 -1.0000 -0.0000
vn 0.3192 0.1596 0.9342
vn 0.8165 0.4083 0.4083
vn 0.8165 0.4082 0.4083
vn 0.3201 0.1600 0.9338
vn 1.0000 0.0017 -0.0000
vn 1.0000 0.0016 -0.0000
vn 1.0000 0.0016 0.0001
vn 0.6455 0.7416 0.1827
vn 0.3477 0.8537 0.3876
vn 0.3491 0.8535 0.3868
vn -0.8165 0.4083 0.4083
vn -0.3192 0.1596 0.9342
vn -0.3201 0.1600 0.9338
vn -0.8165 0.4082 0.4083
vn -0.4525 0.8918 -0.0000
vn -0.4525 0.8917 -0.0000
vn -0.4472 0.8944 -0.0000
vn -0.4553 0.8903 -0.0000
vn -0.4554 0.8903 -0.0000
vn 0.8165 0.4083 -0.4083
vn 0.3191 0.1596 -0.9342
vn 0.3201 0.1600 -0.9338
vn 0.8165 0.4082 -0.4083
vn 0.8165 0.4083 0.4082
vn 0.8165 0.4083 -0.4082
vn 0.8165 0.4082 -0.4082
vn 0.8165 0.4082 0.4082
vn -1.0000 0.0016 -0.0000
vn -1.0000 0.0017 -0.0000
vn -0.0000 0.4524 0.8918
vn -0.0000 0.4907 0.8713
vn 0.4525 0.8917 -0.0000
vn 0.4525 0.8918 -0.0000
vn 0.4472 0.8944 -0.0000
vn 0.4554 0.8903 -0.0000
vn 0.4553 0.8903 -0.0000
vn -0.3191 0.1596 -0.9342
vn -0.3201 0.1600 -0.9338
vn -0.8165 0.4083 -0.4083
vn -0.8165 0.4082 -0.4083
vn -0.8165 0.4083 -0.4082
vn -0.8165 0.4083 0.4082
vn -0.8165 0.4082 0.4082
vn -0.8165 0.4082 -0.4082
vn -0.0000 -0.5207 0.8537
vn -0.3477 0.8538 0.3876
vn -0.6455 0.7416 0.1827
vn -0.6456 0.7415 0.1827
vn -0.3490 0.8536 0.3868
vn -0.0000 0.5369 -0.8437
vn -0.0000 -0.4553 -0.8903
vn -0.0000 -0.4903 -0.8715
vn -0.4472 -0.8944 -0.0000
vn 0.4472 -0.8944 -0.0000
vn -0.0000 -0.5883 -0.8086
vn -0.0000 -0.4490 -0.8935
vn -0.0000 0.5747 0.8184
vn -0.0000 0.4441 0.8960
vn -0.0000 0.6670 0.7451
vn -0.0000 -0.6886 -0.7252
vt 0.667969 0.513672
vt 0.750000 0.513672
vt 0.750000 0.595703
vt 0.667969 0.595703
vt 0.500000 0.513672
vt 0.500000 0.595703
vt 0.500000 0.351562
vt 0.667969 0.351562
vt 0.667969 0.433594
vt 0.500000 0.433594
vt 0.750000 0.351562
vt 0.653733 0.631891
vt 0.660755 0.635402
vt 0.660441 0.636030
vt 0.653419 0.632519
vt 0.558636 0.624869
vt 0.611297 0.624869
vt 0.611297 0.625497
vt 0.558636 0.625497
vt 0.639690 0.623188
vt 0.632699 0.619713
vt 0.632699 0.619120
vt 0.639690 0.622225
vt 0.629466 0.655196
vt 0.635946 0.666713
vt 0.634983 0.666707
vt 0.628675 0.655507
vt 0.509179 0.635402
vt 0.516201 0.631891
vt 0.516515 0.632519
vt 0.509493 0.636030
vt 0.639690 0.624869
vt 0.639692 0.625497
vt 0.750000 0.583984
vt 0.667969 0.583984
vt 0.679688 0.595703
vt 0.738281 0.595703
vt 0.750000 0.556641
vt 0.667969 0.556641
vt 0.660755 0.635402
vt 0.653419 0.632519
vt 0.639690 0.625497
vt 0.565657 0.635402
vt 0.604275 0.635402
vt 0.604275 0.636030
vt 0.565657 0.636030
vt 0.500000 0.656250
vt 0.667969 0.656250
vt 0.667969 0.675781
vt 0.500000 0.675781
vt 0.530244 0.624869
vt 0.530244 0.625497
vt 0.617535 0.631439
vt 0.616936 0.631797
vt 0.516201 0.631891
vt 0.516515 0.632519
vt 0.509180 0.635402
vt 0.509494 0.636030
vt 0.565657 0.635402
vt 0.565657 0.636030
vt 0.530244 0.624869
vt 0.530242 0.625497
vt 0.667969 0.666016
vt 0.500000 0.666016
vt 0.509766 0.675781
vt 0.658203 0.675781
vt 0.537236 0.619713
vt 0.530244 0.623188
vt 0.530244 0.622225
vt 0.537236 0.619120
vt 0.500000 0.615234
vt 0.500000 0.634766
vt 0.667969 0.634766
vt 0.667969 0.615234
vt 0.623849 0.643040
vt 0.623140 0.643310
vt 0.628675 0.655507
vt 0.617535 0.631439
vt 0.616936 0.631797
s 0
usemtl ammo_mp_1
f 19/1/1 12/2/1 18/3/1
f 19/1/1 18/3/1 6/4/1
s 1
f 31/5/2 20/1/2 7/4/2
f 31/5/2 7/4/2 22/6/2
s 0
f 33/1/3 28/4/3 39/3/3
f 33/1/3 39/3/3 42/2/3
f 10/7/4 41/8/4 38/9/4
f 10/7/4 38/9/4 13/10/4
f 17/8/5 37/1/5 30/2/5
f 17/8/5 30/2/5 9/11/5
f 21/1/6 32/5/6 40/10/6
f 21/1/6 40/10/6 11/9/6
s 1
f 45/12/7 63/13/8 79/14/9
f 45/12/7 79/14/9 81/15/10
f 15/16/11 5/17/12 92/18/12
f 15/16/11 92/18/12 101/19/13
f 56/20/14 73/21/15 114/22/16
f 56/20/14 114/22/16 117/23/14
s 0
f 141/24/3 55/25/3 116/26/3
f 141/24/3 116/26/3 143/27/3
s 1
f 65/28/17 49/29/18 108/30/19
f 65/28/17 108/30/19 110/31/20
f 35/32/4 45/12/7 81/15/10
f 35/32/4 81/15/10 76/33/4
f 84/34/21 82/35/22 80/36/23
f 84/34/21 80/36/23 87/37/23
f 99/38/24 77/39/25 82/35/22
f 99/38/24 82/35/22 84/34/21
f 60/40/26 43/12/27 83/41/28
f 60/40/26 83/41/28 86/14/29
f 43/12/27 25/32/2 96/42/2
f 43/12/27 96/42/2 83/41/28
f 62/43/30 59/44/31 85/45/32
f 62/43/30 85/45/32 78/46/33
f 23/17/34 34/16/34 75/19/35
f 23/17/34 75/19/35 94/18/34
f 147/47/36 144/48/36 118/49/37
f 147/47/36 118/49/37 119/50/37
s 0
f 2/51/4 26/32/4 97/42/4
f 2/51/4 97/42/4 89/52/4
f 134/53/1 4/17/1 91/18/1
f 134/53/1 91/18/1 136/54/1
s 1
f 109/35/38 107/34/39 105/37/40
f 109/35/38 105/37/40 112/36/40
f 102/39/41 93/38/42 107/34/39
f 102/39/41 107/34/39 109/35/38
f 3/51/2 47/55/43 106/56/44
f 3/51/2 106/56/44 90/52/2
f 47/55/43 68/57/45 103/58/46
f 47/55/43 103/58/46 106/56/44
f 69/44/47 66/59/48 111/60/49
f 69/44/47 111/60/49 104/45/50
f 49/29/18 14/61/4 100/62/4
f 49/29/18 100/62/4 108/30/19
s 0
f 122/63/51 115/64/51 113/65/51
f 122/63/51 113/65/51 124/66/51
s 1
f 72/67/52 53/68/53 120/69/54
f 72/67/52 120/69/54 123/70/55
f 73/21/15 72/67/52 123/70/55
f 73/21/15 123/70/55 114/22/16
f 74/66/56 58/63/56 52/64/56
s 0
f 74/66/56 52/64/56 71/65/56
s 1
f 145/47/57 51/50/58 57/49/58
f 145/47/57 57/49/58 142/48/57
s 0
f 8/38/59 16/39/59 50/35/59
f 50/35/59 67/36/59 70/37/59
f 70/37/59 48/34/59 8/38/59
f 50/35/59 70/37/59 8/38/59
f 36/39/60 29/38/60 44/34/60
f 44/34/60 61/37/60 64/36/60
f 64/36/60 46/35/60 36/39/60
f 44/34/60 64/36/60 36/39/60
s 1
f 133/71/61 125/72/62 128/73/62
f 133/71/61 128/73/62 138/74/61
s 0
f 146/24/1 126/75/1 130/76/1
f 146/24/1 130/76/1 148/77/1
s 1
f 135/71/63 140/74/63 132/73/64
f 135/71/63 132/73/64 129/72/64
f 137/78/3 127/75/3 131/76/3
s 0
f 137/78/3 131/76/3 139/79/3
s 1
f 24/17/3 137/78/3 139/79/3
s 0
f 24/17/3 139/79/3 95/18/3
s 1
f 88/6/65 98/4/65 140/74/63
f 88/6/65 140/74/63 135/71/63
f 1/6/66 133/71/61 138/74/61
f 1/6/66 138/74/61 27/4/66
s 0
f 126/75/1 134/53/1 136/54/1
f 126/75/1 136/54/1 130/76/1
f 54/25/1 146/24/1 148/77/1
f 54/25/1 148/77/1 121/26/1
s 1
f 125/72/62 145/47/57 142/48/57
f 125/72/62 142/48/57 128/73/62
f 129/72/64 132/73/64 144/48/36
f 129/72/64 144/48/36 147/47/36
s 0
f 127/75/3 141/24/3 143/27/3
f 127/75/3 143/27/3 131/76/3
