# Blender 4.5.3 LTS
# www.blender.org
mtllib ammo_box_1_1.mtl
o ammo_box_1_1
v -0.892800 1.785601 1.855474
v -0.892800 1.785601 1.855474
v -0.892800 1.785601 1.855474
v -0.892800 1.785601 1.855474
v -0.892800 1.785601 1.855474
v -0.892800 1.785601 1.855474
v -0.892800 1.785601 1.855474
v -0.892800 1.785601 1.855474
v -0.892800 1.785601 1.855474
v 0.969600 0.000000 1.855495
v 0.969600 0.000000 1.855495
v 0.969600 0.000000 1.855495
v 0.969600 1.785600 1.855495
v 0.969600 1.785600 1.855495
v 0.969600 1.785600 1.855495
v 0.969600 1.785600 1.855495
v 0.969600 1.785600 1.855495
v 0.969600 1.785600 1.855495
v -0.892800 0.000000 1.855474
v -0.892800 0.000000 1.855474
v -0.892800 0.000000 1.855474
v -0.892800 1.785601 -1.855552
v -0.892800 1.785601 -1.855552
v -0.892800 1.785601 -1.855552
v -0.892800 1.785601 -1.855552
v -0.892800 1.785601 -1.855552
v -0.892800 1.785601 -1.855552
v -0.892800 1.785601 -1.855552
v -0.892800 1.785601 -1.855552
v -0.892800 1.785601 -1.855552
v -0.892800 0.000000 -1.855552
v -0.892800 0.000000 -1.855552
v -0.892800 0.000000 -1.855552
v 0.969600 1.785601 -1.855552
v 0.969600 1.785601 -1.855552
v 0.969600 1.785601 -1.855552
v 0.969600 1.785601 -1.855552
v 0.969600 1.785601 -1.855552
v 0.969600 1.785601 -1.855552
v 0.969600 0.000000 -1.855552
v 0.969600 0.000000 -1.855552
v 0.969600 0.000000 -1.855552
v -0.892800 2.023680 -2.331712
v -0.892800 2.023680 -2.331712
v 0.969600 2.023680 -2.331712
v 0.969600 2.023680 -2.331712
v -0.892800 2.023680 2.331634
v -0.892800 2.023680 2.331634
v 0.969600 2.023680 2.331656
v 0.969600 2.023680 2.331656
v -1.728591 3.204409 1.855474
v -1.728591 3.204409 1.855474
v -1.728591 3.204409 1.855474
v -1.728591 3.204409 1.855474
v -1.728591 3.204409 -1.855552
v -1.728591 3.204409 -1.855552
v -1.728591 3.204409 -1.855552
v -1.728591 3.204409 -1.855552
v -0.654720 2.142721 -2.569792
v -0.654720 2.142721 -2.569792
v 0.731520 2.142721 -2.569792
v 0.731520 2.142721 -2.569792
v 0.731520 2.142720 2.569728
v 0.731520 2.142720 2.569728
v -0.654720 2.142721 2.569721
v -0.654720 2.142721 2.569721
v -1.610747 3.389592 1.618401
v -1.610747 3.389592 1.618401
v -1.610747 3.389592 -1.618479
v -1.610747 3.389592 -1.618479
v 0.969600 1.806895 -1.855622
v 0.969600 1.806895 -1.855622
v 0.969600 1.806895 -1.855622
v 0.731520 2.164015 -2.559145
v 0.731520 2.164015 -2.559145
v 0.969600 2.044975 -2.321065
v 0.969600 2.044975 -2.321065
v -0.892800 2.044975 -2.321064
v -0.892800 2.044975 -2.321064
v -0.654720 2.164015 -2.559144
v -0.654720 2.164015 -2.559144
v -0.892800 1.806895 1.855474
v -0.892800 1.806895 1.855474
v -0.892800 1.806895 1.855474
v -0.892800 1.806895 1.855474
v -0.892800 1.806895 1.855474
v -0.892800 1.806895 1.855474
v -0.892800 1.806895 -1.855552
v -0.892800 1.806895 -1.855552
v -0.892800 1.806895 -1.855552
v -0.892800 1.806895 -1.855552
v -0.892800 1.806895 -1.855552
v -0.892800 1.806895 -1.855552
v 0.969600 1.806895 1.855565
v 0.969600 1.806895 1.855565
v 0.969600 1.806895 1.855565
v -0.654720 2.164015 2.559074
v -0.654720 2.164015 2.559074
v -0.892800 2.044975 2.320987
v -0.892800 2.044975 2.320987
v 0.969600 2.044975 2.321008
v 0.969600 2.044975 2.321008
v 0.731520 2.164015 2.559081
v 0.731520 2.164015 2.559081
v -1.590662 3.376811 -1.618479
v -1.590662 3.376811 -1.618479
v -1.695936 3.204196 -1.855552
v -1.695936 3.204196 -1.855552
v -1.695936 3.204196 -1.855552
v -1.695936 3.204196 -1.855552
v -1.695936 3.204196 1.855474
v -1.695936 3.204196 1.855474
v -1.695936 3.204196 1.855474
v -1.695936 3.204196 1.855474
v -1.590661 3.376811 1.618401
v -1.590661 3.376811 1.618401
v -1.318398 2.401710 1.855473
v -1.318398 2.401710 1.855473
v -1.318398 2.401710 -1.855551
v -1.318398 2.401710 -1.855551
v -1.294371 2.410875 1.855473
v -1.294371 2.410875 1.855473
v -1.294372 2.410875 -1.855551
v -1.294372 2.410875 -1.855551
v -1.104327 2.008364 1.855474
v -1.104327 2.008364 1.855474
v -1.084013 2.020492 1.855474
v -1.084013 2.020492 1.855474
v -1.104328 2.008364 -1.855551
v -1.104328 2.008364 -1.855551
v -1.084013 2.020492 -1.855551
v -1.084013 2.020492 -1.855551
v -1.508871 2.813884 -1.855551
v -1.508871 2.813884 -1.855551
v -1.482060 2.824430 -1.855551
v -1.482060 2.824430 -1.855551
v -1.508870 2.813884 1.855473
v -1.508870 2.813884 1.855473
v -1.482059 2.824430 1.855473
v -1.482059 2.824430 1.855473
vn -0.0000 -0.0000 1.0000
vn -1.0000 -0.0000 -0.0000
vn -0.0000 -0.0000 -1.0000
vn 1.0000 -0.0000 -0.0000
vn -0.0000 1.0000 -0.0000
vn -0.0000 -1.0000 -0.0000
vn 0.9342 0.1596 -0.3192
vn 0.4082 0.4082 -0.8165
vn 0.4083 0.4082 -0.8165
vn 0.9338 0.1600 -0.3201
vn -0.0000 0.0016 -1.0000
vn 0.1827 0.7416 -0.6455
vn 0.3876 0.8537 -0.3477
vn 0.3868 0.8535 -0.3491
vn 0.4082 0.4083 0.8165
vn 0.9342 0.1596 0.3192
vn 0.9338 0.1600 0.3201
vn -0.0000 0.8918 0.4525
vn -0.0000 0.8917 0.4525
vn -0.0000 0.8944 0.4472
vn -0.0000 0.8903 0.4553
vn -0.0000 0.8903 0.4554
vn -0.4083 0.4083 -0.8165
vn -0.9342 0.1596 -0.3191
vn -0.9338 0.1600 -0.3201
vn -0.0000 0.0016 1.0000
vn -0.0000 0.0017 1.0000
vn 0.8918 0.4524 -0.0000
vn 0.8713 0.4907 -0.0000
vn -0.0000 0.8917 -0.4525
vn -0.0000 0.8918 -0.4525
vn -0.0000 0.8944 -0.4472
vn -0.0000 0.8903 -0.4554
vn -0.0000 0.8903 -0.4553
vn -0.9342 0.1596 0.3191
vn -0.9338 0.1600 0.3201
vn -0.4083 0.4082 0.8165
vn 0.8537 -0.5207 -0.0000
vn 0.3876 0.8538 0.3477
vn 0.1827 0.7416 0.6455
vn 0.1827 0.7415 0.6456
vn 0.3868 0.8535 0.3490
vn -0.8437 0.5369 -0.0000
vn -0.8903 -0.4553 -0.0000
vn -0.8715 -0.4903 -0.0000
vn -0.0000 -0.8944 0.4472
vn -0.0000 -0.8944 -0.4472
vn -0.8086 -0.5883 -0.0000
vn -0.8935 -0.4490 -0.0000
vn 0.8184 0.5747 -0.0000
vn 0.8960 0.4441 -0.0000
vn 0.7451 0.6670 -0.0000
vn -0.7252 -0.6886 -0.0000
vt 0.429688 0.574219
vt 0.429688 0.519531
vt 0.478516 0.519531
vt 0.478516 0.574219
vt 0.328125 0.574219
vt 0.429688 0.623047
vt 0.328125 0.623047
vt 0.328125 0.519531
vt 0.328125 0.470703
vt 0.429688 0.470703
vt 0.279297 0.574219
vt 0.279297 0.675781
vt 0.328125 0.675781
vt 0.478516 0.470703
vt 0.492188 0.574219
vt 0.492188 0.519531
vt 0.500000 0.527344
vt 0.500000 0.566406
vt 0.466797 0.675781
vt 0.466797 0.574219
vt 0.478516 0.675781
vt 0.427883 0.622559
vt 0.328507 0.622559
vt 0.328507 0.621640
vt 0.427883 0.621640
vt 0.470703 0.574219
vt 0.470703 0.675781
vt 0.478516 0.667969
vt 0.478516 0.582031
vt 0.328125 0.662109
vt 0.429688 0.675781
vt 0.429688 0.662109
vt 0.328125 0.636719
vt 0.328125 0.648438
vt 0.429688 0.648438
vt 0.429688 0.636719
vt 0.437500 0.675781
vt 0.437500 0.574219
vt 0.451172 0.574219
vt 0.451172 0.675781
s 0
usemtl ammo_mp_1
f 20/1/1 10/2/1 17/3/1
f 20/1/1 17/3/1 7/4/1
f 31/5/2 19/1/2 6/6/2
f 31/5/2 6/6/2 23/7/2
s 1
f 33/1/3 28/4/3 38/3/3
s 0
f 33/1/3 38/3/3 42/2/3
f 12/2/4 41/8/4 36/9/4
f 12/2/4 36/9/4 16/10/4
f 13/11/5 34/12/5 22/13/5
f 13/11/5 22/13/5 2/5/5
f 21/1/6 32/5/6 40/8/6
f 21/1/6 40/8/6 11/2/6
s 1
f 45/9/7 61/9/8 74/9/9
f 45/9/7 74/9/9 76/9/10
f 15/10/11 9/14/11 87/14/11
f 15/10/11 87/14/11 95/10/11
f 56/9/12 69/9/13 105/9/14
f 56/9/12 105/9/14 108/9/12
s 0
f 133/9/3 55/9/3 107/9/3
f 133/9/3 107/9/3 135/9/3
s 1
f 63/9/15 49/9/16 101/9/17
f 63/9/15 101/9/17 103/9/15
f 35/9/4 45/9/7 76/9/10
f 35/9/4 76/9/10 71/9/4
f 79/15/18 77/16/19 75/17/20
f 79/15/18 75/17/20 81/18/20
f 92/4/21 73/3/22 77/16/19
f 92/4/21 77/16/19 79/15/18
f 59/9/23 43/9/24 78/9/25
f 59/9/23 78/9/25 80/9/23
f 43/9/24 24/9/2 88/9/2
f 43/9/24 88/9/2 78/9/25
f 61/9/8 59/9/23 80/9/23
f 61/9/8 80/9/23 74/9/9
f 30/3/26 37/4/27 72/4/27
f 30/3/26 72/4/27 93/3/26
f 140/19/28 136/20/28 110/4/29
f 140/19/28 110/4/29 114/21/29
s 0
f 5/22/4 26/23/4 90/24/4
f 5/22/4 90/24/4 84/25/4
f 126/9/1 4/9/1 83/9/1
f 126/9/1 83/9/1 127/9/1
s 1
f 102/16/30 100/15/31 98/18/32
f 102/16/30 98/18/32 104/17/32
f 96/3/33 86/4/34 100/15/31
f 96/3/33 100/15/31 102/16/30
f 3/9/2 47/9/35 99/9/36
f 3/9/2 99/9/36 82/9/2
f 47/9/35 65/9/37 97/9/37
f 47/9/35 97/9/37 99/9/36
f 65/9/37 63/9/15 103/9/15
f 65/9/37 103/9/15 97/9/37
f 49/9/16 14/9/4 94/9/4
f 49/9/16 94/9/4 101/9/17
s 0
f 113/26/38 109/27/38 106/28/38
s 1
f 113/26/38 106/28/38 116/29/38
f 67/9/39 53/9/40 112/9/41
f 67/9/39 112/9/41 115/9/42
f 69/9/13 67/9/39 115/9/42
f 69/9/13 115/9/42 105/9/14
s 0
f 70/29/43 58/26/43 54/27/43
f 70/29/43 54/27/43 68/28/43
s 1
f 137/30/44 51/13/45 57/31/45
f 137/30/44 57/31/45 134/32/44
s 0
f 8/4/46 18/3/46 50/16/46
s 1
f 50/16/46 64/17/46 66/18/46
s 0
f 66/18/46 48/15/46 8/4/46
f 50/16/46 66/18/46 8/4/46
f 39/3/47 29/4/47 44/15/47
f 44/15/47 60/18/47 62/17/47
f 62/17/47 46/16/47 39/3/47
f 44/15/47 62/17/47 39/3/47
s 1
f 125/33/48 117/34/49 120/35/49
f 125/33/48 120/35/49 130/36/48
s 0
f 138/9/1 118/9/1 121/9/1
f 138/9/1 121/9/1 139/9/1
s 1
f 128/37/50 132/38/50 124/39/51
f 128/37/50 124/39/51 122/40/51
s 0
f 129/9/3 119/9/3 123/9/3
f 129/9/3 123/9/3 131/9/3
f 25/9/3 129/9/3 131/9/3
f 25/9/3 131/9/3 89/9/3
s 1
f 85/31/52 91/1/52 132/38/50
f 85/31/52 132/38/50 128/37/50
f 1/7/53 125/33/48 130/36/48
f 1/7/53 130/36/48 27/6/53
s 0
f 118/9/1 126/9/1 127/9/1
f 118/9/1 127/9/1 121/9/1
s 1
f 52/9/1 138/9/1 139/9/1
s 0
f 52/9/1 139/9/1 111/9/1
s 1
f 117/34/49 137/30/44 134/32/44
f 117/34/49 134/32/44 120/35/49
f 122/40/51 124/39/51 136/20/28
f 122/40/51 136/20/28 140/19/28
s 0
f 119/9/3 133/9/3 135/9/3
f 119/9/3 135/9/3 123/9/3
