# Blender 4.5.3 LTS
# www.blender.org
mtllib tunnel_entrance_platform_1.mtl
o tunnel_entrance_platform_1
v 20.800026 5.759999 -3.199999
v 20.800026 5.759999 -3.199999
v 20.800026 5.759999 -3.199999
v 20.800026 5.759999 -3.199999
v -20.799997 0.953787 30.431070
v -20.799997 0.953787 30.431070
v -20.799997 0.953787 30.431070
v -20.799997 0.953787 30.431070
v -20.799963 5.759999 3.200001
v -20.799963 5.759999 3.200001
v -20.799963 5.759999 3.200001
v -20.799963 5.759999 3.200001
v -20.799997 0.953786 -30.431070
v -20.799997 0.953786 -30.431070
v -20.799997 0.953786 -30.431070
v -20.799997 0.953786 -30.431070
v -20.799997 0.313786 30.431070
v -20.799997 0.313786 30.431070
v -20.799997 0.313786 30.431070
v -20.799997 0.313786 30.431070
v 20.800001 0.953787 30.431070
v 20.800001 0.953787 30.431070
v 20.800001 0.953787 30.431070
v 20.800001 0.953787 30.431070
v 20.800001 0.313786 30.431070
v 20.800001 0.313786 30.431070
v 20.800001 0.313786 30.431070
v 20.800001 0.313786 30.431070
v 20.800001 0.953787 -30.431070
v 20.800001 0.953787 -30.431070
v 20.800001 0.953787 -30.431070
v 20.800001 0.953787 -30.431070
v 20.800026 5.759999 3.199999
v 20.800026 5.759999 3.199999
v 20.800026 5.759999 3.199999
v 20.800026 5.759999 3.199999
v 20.800001 0.313786 -30.431070
v 20.800001 0.313786 -30.431070
v 20.800001 0.313786 -30.431070
v 20.800001 0.313786 -30.431070
v -20.799963 6.400000 3.200001
v -20.799963 6.400000 3.200001
v -20.799963 6.400000 3.200001
v -20.799963 6.400000 3.200001
v -20.799963 6.400000 -3.200001
v -20.799963 6.400000 -3.200001
v -20.799963 6.400000 -3.200001
v -20.799963 6.400000 -3.200001
v -20.799997 0.313786 -30.431070
v -20.799997 0.313786 -30.431070
v -20.799997 0.313786 -30.431070
v -20.799997 0.313786 -30.431070
v -20.799963 5.759999 -3.200001
v -20.799963 5.759999 -3.200001
v -20.799963 5.759999 -3.200001
v -20.799963 5.759999 -3.200001
v 20.800026 6.400000 -3.199999
v 20.800026 6.400000 -3.199999
v 20.800026 6.400000 -3.199999
v 20.800026 6.400000 -3.199999
v 20.800026 6.400000 3.199999
v 20.800026 6.400000 3.199999
v 20.800026 6.400000 3.199999
v 20.800026 6.400000 3.199999
v 22.400026 5.759999 -3.200000
v 22.400026 5.759999 -3.200000
v 22.400026 5.759999 -3.200000
v 22.400026 5.759999 -3.200000
v 22.400026 5.759999 3.200000
v 22.400026 5.759999 3.200000
v 22.400026 5.759999 3.200000
v 22.400026 5.759999 3.200000
v 22.400000 0.000001 -32.000000
v 22.400000 0.000001 -32.000000
v 22.400000 0.000001 -32.000000
v 22.400000 0.000001 -32.000000
v -22.399963 5.759999 3.200000
v -22.399963 5.759999 3.200000
v -22.399963 5.759999 3.200000
v -22.399963 5.759999 3.200000
v -22.399963 5.759999 -3.200000
v -22.399963 5.759999 -3.200000
v -22.399963 5.759999 -3.200000
v -22.399963 5.759999 -3.200000
v -22.400000 0.000001 32.000000
v -22.400000 0.000001 32.000000
v -22.400000 0.000001 32.000000
v -22.400000 0.000001 32.000000
v 22.400000 0.000001 32.000000
v 22.400000 0.000001 32.000000
v 22.400000 0.000001 32.000000
v 22.400000 0.000001 32.000000
v -22.400000 0.000001 -32.000000
v -22.400000 0.000001 -32.000000
v -22.400000 0.000001 -32.000000
v -22.400000 0.000001 -32.000000
v -20.799963 0.000000 3.200001
v -20.799963 0.000000 3.200001
v 20.800026 0.000000 3.199999
v 20.800026 0.000000 3.199999
v -20.799963 0.000000 -3.200001
v -20.799963 0.000000 -3.200001
v 20.800026 0.000000 -3.199999
v 20.800026 0.000000 -3.199999
v 20.800001 0.000000 -30.431070
v 20.800001 0.000000 -30.431070
v -20.799997 0.000000 30.431070
v -20.799997 0.000000 30.431070
v 20.800001 0.000000 30.431070
v 20.800001 0.000000 30.431070
v -20.799997 0.000000 -30.431070
v -20.799997 0.000000 -30.431070
v -22.399963 6.400000 -3.200000
v -22.399963 6.400000 -3.200000
v -22.399963 6.400000 -3.200000
v -22.399963 6.400000 -3.200000
v -22.400000 0.640001 -32.000000
v -22.400000 0.640001 -32.000000
v -22.400000 0.640001 -32.000000
v -22.400000 0.640001 -32.000000
v 22.400000 0.640001 -32.000000
v 22.400000 0.640001 -32.000000
v 22.400000 0.640001 -32.000000
v 22.400000 0.640001 -32.000000
v 22.400026 6.400000 3.200000
v 22.400026 6.400000 3.200000
v 22.400026 6.400000 3.200000
v 22.400026 6.400000 3.200000
v 22.400000 0.640001 32.000000
v 22.400000 0.640001 32.000000
v 22.400000 0.640001 32.000000
v 22.400000 0.640001 32.000000
v -22.400000 0.640001 32.000000
v -22.400000 0.640001 32.000000
v -22.400000 0.640001 32.000000
v -22.400000 0.640001 32.000000
v -22.399963 6.400000 3.200000
v -22.399963 6.400000 3.200000
v -22.399963 6.400000 3.200000
v -22.399963 6.400000 3.200000
v 22.400026 6.400000 -3.200000
v 22.400026 6.400000 -3.200000
v 22.400026 6.400000 -3.200000
v 22.400026 6.400000 -3.200000
v -20.799963 6.079999 -3.200001
v -20.799963 6.079999 -3.200001
v 20.800026 6.079999 -3.199999
v 20.800026 6.079999 -3.199999
v -20.799963 6.079999 3.200001
v -20.799963 6.079999 3.200001
v 20.800026 6.079999 3.199999
v 20.800026 6.079999 3.199999
v -20.799997 0.633786 -30.431070
v -20.799997 0.633786 -30.431070
v 20.800001 0.633787 -30.431070
v 20.800001 0.633787 -30.431070
v 20.800001 0.633787 30.431070
v 20.800001 0.633787 30.431070
v -20.799997 0.633787 30.431070
v -20.799997 0.633787 30.431070
v -20.799963 6.079999 -3.200001
v -20.799963 6.079999 -3.200001
v 20.800026 6.079999 -3.199999
v 20.800026 6.079999 -3.199999
v -20.799963 6.079999 3.200001
v -20.799963 6.079999 3.200001
v 20.800026 6.079999 3.199999
v 20.800026 6.079999 3.199999
v -20.799997 0.633786 -30.431070
v 20.800001 0.633787 -30.431070
v 20.800001 0.633787 30.431070
v -20.799997 0.633787 30.431070
vn -0.0000 -0.0000 1.0000
vn -1.0000 -0.0000 -0.0000
vn 1.0000 -0.0000 -0.0000
vn -0.0000 -0.0000 -1.0000
vn -0.0000 -1.0000 -0.0000
vn -0.0000 -0.9806 0.1961
vn -0.0000 -0.9806 -0.1961
vn -0.0000 0.9806 -0.1961
vn -0.0000 0.9806 0.1961
vn -0.0000 1.0000 -0.0000
vt 0.266667 0.473333
vt 0.266667 0.466667
vt 0.733333 0.466667
vt 0.733333 0.473333
vt 0.833333 0.473333
vt 0.833333 0.466667
vt 0.533333 0.526667
vt 0.533333 0.533333
vt 0.466667 0.526667
vt 0.466667 0.533333
vt 0.166667 0.473333
vt 0.166667 0.466667
vt 0.716667 0.466667
vt 0.716667 0.466026
vt 0.716667 0.182369
vt 0.716667 0.183010
vt 0.283333 0.183010
vt 0.283333 0.182369
vt 0.283334 0.466026
vt 0.283334 0.466667
vt 0.716667 0.816990
vt 0.716667 0.817631
vt 0.716667 0.533974
vt 0.716667 0.533333
vt 0.533333 0.466667
vt 0.816990 0.466667
vt 0.816990 0.469935
vt 0.466667 0.466667
vt 0.183010 0.466667
vt 0.183010 0.469935
vt 0.183010 0.469935
vt 0.466667 0.466667
vt 0.733333 0.533333
vt 0.733333 0.466667
vt 0.716667 0.466667
vt 0.733333 0.833333
vt 0.283334 0.466667
vt 0.266667 0.466667
vt 0.266667 0.533333
vt 0.283334 0.533333
vt 0.266667 0.166667
vt 0.733333 0.166667
vt 0.283333 0.816990
vt 0.266667 0.833333
vt 0.716667 0.469935
vt 0.716667 0.466667
vt 0.283333 0.466667
vt 0.283333 0.469935
vt 0.283333 0.469935
vt 0.283333 0.466667
vt 0.533333 0.526667
vt 0.533333 0.466667
vt 0.283333 0.816990
vt 0.283334 0.533333
vt 0.283334 0.533974
vt 0.283333 0.817631
s 0
usemtl metal_mp_6
f 134/1/1 86/2/1 90/3/1
f 134/1/1 90/3/1 130/4/1
f 120/5/2 96/6/2 84/7/2
f 120/5/2 84/7/2 116/8/2
f 115/8/2 83/7/2 80/9/2
f 115/8/2 80/9/2 140/10/2
f 129/11/3 89/12/3 70/9/3
f 129/11/3 70/9/3 126/10/3
f 125/10/3 69/9/3 66/7/3
f 125/10/3 66/7/3 142/8/3
f 61/13/2 151/14/2 157/15/2
f 61/13/2 157/15/2 21/16/2
f 8/17/3 160/18/3 150/19/3
f 8/17/3 150/19/3 44/20/3
f 29/21/2 155/22/2 148/23/2
f 29/21/2 148/23/2 58/24/2
f 139/10/2 79/9/2 85/12/2
f 139/10/2 85/12/2 133/11/2
f 123/4/4 75/3/4 95/2/4
f 123/4/4 95/2/4 119/1/4
f 141/8/3 65/7/3 76/6/3
f 141/8/3 76/6/3 124/5/3
f 1/7/3 103/25/3 106/26/3
f 1/7/3 106/26/3 40/27/3
f 11/9/2 97/28/2 107/29/2
f 11/9/2 107/29/2 17/30/2
f 25/31/3 109/29/3 100/32/3
f 25/31/3 100/32/3 34/9/3
f 4/24/5 68/33/5 72/34/5
f 4/24/5 72/34/5 36/35/5
f 38/21/6 74/36/6 67/33/6
f 38/21/6 67/33/6 3/24/6
f 10/37/5 78/38/5 82/39/5
f 10/37/5 82/39/5 54/40/5
f 19/17/7 87/41/7 77/38/7
f 19/17/7 77/38/7 9/37/7
f 27/16/7 91/42/7 88/41/7
f 27/16/7 88/41/7 20/17/7
f 35/35/7 71/34/7 92/42/7
f 35/35/7 92/42/7 28/16/7
f 49/43/6 93/44/6 73/36/6
f 49/43/6 73/36/6 37/21/6
f 53/40/6 81/39/6 94/44/6
f 53/40/6 94/44/6 50/43/6
f 39/45/4 105/46/4 111/47/4
f 39/45/4 111/47/4 51/48/4
f 18/49/1 108/50/1 110/46/1
f 18/49/1 110/46/1 26/45/1
f 55/51/2 101/52/2 98/28/2
f 55/51/2 98/28/2 12/9/2
f 33/9/3 99/32/3 104/25/3
f 33/9/3 104/25/3 2/7/3
f 52/27/2 112/26/2 102/52/2
f 52/27/2 102/52/2 56/51/2
f 15/53/8 118/44/8 113/39/8
f 15/53/8 113/39/8 45/54/8
f 31/21/8 122/36/8 117/44/8
f 31/21/8 117/44/8 13/53/8
f 22/16/9 131/42/9 127/34/9
f 22/16/9 127/34/9 63/13/9
f 7/17/9 136/41/9 132/42/9
f 7/17/9 132/42/9 24/16/9
f 41/20/9 137/38/9 135/41/9
f 41/20/9 135/41/9 5/17/9
f 46/54/10 114/39/10 138/38/10
f 46/54/10 138/38/10 42/20/10
f 59/24/8 143/33/8 121/36/8
f 59/24/8 121/36/8 30/21/8
f 64/13/10 128/34/10 144/33/10
f 64/13/10 144/33/10 60/24/10
f 47/54/3 145/55/3 154/56/3
f 47/54/3 154/56/3 16/53/3
f 57/24/2 147/23/2 152/14/2
f 57/24/2 152/14/2 62/13/2
f 43/20/3 149/19/3 146/55/3
f 43/20/3 146/55/3 48/54/3
f 23/16/4 158/15/4 159/18/4
f 23/16/4 159/18/4 6/17/4
f 14/53/1 153/56/1 156/22/1
f 14/53/1 156/22/1 32/21/1
usemtl floor_3_metal_1
f 168/14/9 166/19/9 172/18/9
f 168/14/9 172/18/9 171/15/9
f 170/22/8 169/56/8 162/55/8
f 170/22/8 162/55/8 164/23/8
f 163/23/10 161/55/10 165/19/10
f 163/23/10 165/19/10 167/14/10
