# Blender 4.5.3 LTS
# www.blender.org
mtllib pistol_mp_1_mag_loaded.mtl
o pistol_mp_1_mag_loaded
v -0.084021 -2.616688 0.206328
v -0.084021 -2.616688 0.206328
v -0.084021 -2.616688 0.206328
v -0.084021 -2.616688 0.206328
v -0.364368 -2.581601 0.480001
v -0.364368 -2.581601 0.480001
v -0.364368 -2.581601 0.480001
v -0.364368 -2.581601 0.480001
v -0.364368 -2.581601 -0.479999
v -0.364368 -2.581601 -0.479999
v -0.364368 -2.581601 -0.479999
v -0.364368 -2.581601 -0.479999
v -0.084021 -2.616688 -0.206327
v -0.084021 -2.616688 -0.206327
v -0.084021 -2.616688 -0.206327
v -0.084021 -2.616688 -0.206327
v 1.574531 1.970581 0.480001
v 1.574531 1.970581 0.480001
v 1.574531 1.970581 0.480001
v 1.574531 1.970581 0.480001
v 1.694878 1.970581 0.206328
v 1.694878 1.970581 0.206328
v 1.694878 1.970581 0.206328
v 1.694878 1.970581 0.206328
v 1.694878 1.970581 -0.206326
v 1.694878 1.970581 -0.206326
v 1.694878 1.970581 -0.206326
v 1.694878 1.970581 -0.206326
v 1.574531 1.970581 -0.479999
v 1.574531 1.970581 -0.479999
v 1.574531 1.970581 -0.479999
v 1.574531 1.970581 -0.479999
v 0.311655 1.970581 0.480001
v 0.311655 1.970581 0.480001
v 0.311655 1.970581 0.480001
v 0.311655 1.970581 0.480001
v 0.311655 1.970581 -0.479999
v 0.311655 1.970581 -0.479999
v 0.311655 1.970581 -0.479999
v 0.311655 1.970581 -0.479999
v -1.627244 -2.405482 0.480000
v -1.627244 -2.405482 0.480000
v -1.627244 -2.405482 0.480000
v -1.627244 -2.405482 0.480000
v -1.627244 -2.405482 -0.479999
v -1.627244 -2.405482 -0.479999
v -1.627244 -2.405482 -0.479999
v -1.627244 -2.405482 -0.479999
v -0.300183 -2.590427 0.576001
v -0.300183 -2.590427 0.576001
v -0.300183 -2.590427 0.576001
v -0.004858 -2.627586 0.274097
v -0.004858 -2.627586 0.274097
v -0.004858 -2.627586 0.274097
v -0.004858 -2.627586 -0.274095
v -0.004858 -2.627586 -0.274095
v -0.004858 -2.627586 -0.274095
v -0.300183 -2.590427 -0.575999
v -0.300183 -2.590427 -0.575999
v -0.300183 -2.590427 -0.575999
v -1.785753 -2.383687 0.576000
v -1.785753 -2.383687 0.576000
v -1.785753 -2.383687 0.576000
v -1.785753 -2.383687 0.576000
v -1.785753 -2.383686 -0.575999
v -1.785753 -2.383686 -0.575999
v -1.785753 -2.383686 -0.575999
v -1.785753 -2.383686 -0.575999
v -0.400771 -2.811495 0.576001
v -0.400771 -2.811495 0.576001
v -0.105447 -2.848654 0.274097
v -0.105447 -2.848654 0.274097
v -0.105447 -2.848654 -0.274095
v -0.105447 -2.848654 -0.274095
v -0.400771 -2.811495 -0.575999
v -0.400771 -2.811495 -0.575999
v -1.835830 -2.493745 0.576000
v -1.835830 -2.493745 0.576000
v -1.835830 -2.493745 0.576000
v -1.765544 -2.621566 0.576000
v -1.765544 -2.621566 0.576000
v -1.765544 -2.621566 0.576000
v -1.765545 -2.621565 -0.575999
v -1.765545 -2.621565 -0.575999
v -1.765545 -2.621565 -0.575999
v -1.835831 -2.493745 -0.575999
v -1.835831 -2.493745 -0.575999
v -1.835831 -2.493745 -0.575999
v 0.471655 1.970581 -0.206325
v 0.471655 1.970581 -0.206325
v 0.471655 1.970581 -0.206325
v 0.471655 1.970581 -0.206325
v 0.471655 1.970581 -0.206325
v 0.471655 1.970581 0.206327
v 0.471655 1.970581 0.206327
v 0.471655 1.970581 0.206327
v 0.471655 1.970581 0.206327
v 0.471655 1.970581 0.206327
v 1.636090 2.210581 0.480001
v 1.636090 2.210581 0.480001
v 1.636090 2.210581 0.480001
v 1.776300 2.130581 0.206328
v 1.776300 2.130581 0.206328
v 1.776300 2.130581 0.206328
v 1.776300 2.130581 -0.206326
v 1.776300 2.130581 -0.206326
v 1.776300 2.130581 -0.206326
v 1.636090 2.210581 -0.479999
v 1.636090 2.210581 -0.479999
v 1.636090 2.210581 -0.479999
v 0.423705 2.210581 0.480001
v 0.423705 2.210581 0.480001
v 0.423705 2.210581 0.480001
v 0.423704 2.210581 -0.479999
v 0.423704 2.210581 -0.479999
v 0.423704 2.210581 -0.479999
v 0.471602 2.130581 0.206327
v 0.471602 2.130581 0.206327
v 0.471602 2.130581 0.206327
v 0.471602 2.130581 -0.206324
v 0.471602 2.130581 -0.206324
v 0.471602 2.130581 -0.206324
v 1.854878 1.970581 0.206327
v 1.854878 1.970581 0.206327
v 1.854878 1.970581 0.206327
v 1.854878 1.970581 0.206327
v 1.854878 1.970581 0.206327
v 1.854878 1.970581 0.206327
v 1.854878 1.970581 -0.206326
v 1.854878 1.970581 -0.206326
v 1.854878 1.970581 -0.206326
v 1.854878 1.970581 -0.206326
v 1.854878 1.970581 -0.206326
v 1.854878 1.970581 -0.206326
v 0.311655 1.970581 -0.366324
v 0.311655 1.970581 -0.366324
v 0.311655 1.970581 -0.366324
v 0.311655 1.970581 -0.366324
v 0.311655 1.970581 0.366327
v 0.311655 1.970581 0.366327
v 0.311655 1.970581 0.366327
v 0.311655 1.970581 0.366327
v 1.623244 1.810581 0.206328
v 1.623244 1.810581 0.206328
v 1.623244 1.810581 0.206328
v 1.623244 1.810581 -0.206326
v 1.623244 1.810581 -0.206326
v 1.623244 1.810581 -0.206326
v 1.776263 2.210581 0.297672
v 1.776263 2.210581 0.297672
v 1.776263 2.210581 0.297672
v 1.776263 2.210581 0.297672
v 1.776263 2.210581 -0.297669
v 1.776263 2.210581 -0.297669
v 1.776263 2.210581 -0.297669
v 1.776263 2.210581 -0.297669
v 0.423705 2.210581 0.297671
v 0.423705 2.210581 0.297671
v 0.423705 2.210581 0.297671
v 0.423705 2.210581 0.297671
v 0.423705 2.210581 -0.297668
v 0.423705 2.210581 -0.297668
v 0.423705 2.210581 -0.297668
v 0.423705 2.210581 -0.297668
v 0.400087 1.810581 -0.206325
v 0.400087 1.810581 -0.206325
v 0.400087 1.810581 -0.206325
v 0.400087 1.810581 0.206327
v 0.400087 1.810581 0.206327
v 0.400087 1.810581 0.206327
v 0.479980 2.048001 0.223998
v 0.479980 2.048001 0.223998
v 0.479980 2.048001 0.223998
v 0.479980 2.272001 -0.000002
v 0.479980 2.272001 -0.000002
v 0.479980 2.272001 -0.000002
v 0.479980 2.206393 0.158390
v 0.479980 2.206393 0.158390
v 1.247981 2.272001 -0.000002
v 1.247981 2.272001 -0.000002
v 1.247981 2.272001 -0.000002
v 1.247981 2.272001 -0.000002
v 1.247981 2.048001 0.223998
v 1.247981 2.048001 0.223998
v 1.247981 2.048001 0.223998
v 1.247981 2.048001 0.223998
v 1.247981 2.206393 0.158390
v 1.247981 2.206393 0.158390
v 0.479980 2.048001 -0.224002
v 0.479980 2.048001 -0.224002
v 0.479980 2.048001 -0.224002
v 0.479980 2.206393 -0.158394
v 0.479980 2.206393 -0.158394
v 1.247981 2.048001 -0.224002
v 1.247981 2.048001 -0.224002
v 1.247981 2.048001 -0.224002
v 1.247981 2.048001 -0.224002
v 1.247981 2.206393 -0.158394
v 1.247981 2.206393 -0.158394
v 0.479980 1.824001 -0.000002
v 0.479980 1.824001 -0.000002
v 0.479980 1.824001 -0.000002
v 0.479980 1.889609 0.158390
v 0.479980 1.889609 0.158390
v 1.247981 1.824001 -0.000002
v 1.247981 1.824001 -0.000002
v 1.247981 1.824001 -0.000002
v 1.247981 1.824001 -0.000002
v 1.247981 1.889609 0.158390
v 1.247981 1.889609 0.158390
v 0.479980 1.889609 -0.158394
v 0.479980 1.889609 -0.158394
v 1.247981 1.889609 -0.158394
v 1.247981 1.889609 -0.158394
v 1.397452 2.272001 -0.000002
v 1.397452 2.272001 -0.000002
v 1.663980 2.048001 -0.000002
v 1.572661 2.207794 -0.000002
v 1.572661 2.207794 -0.000002
v 1.572661 2.207794 -0.000002
v 1.397452 2.048001 0.223998
v 1.397452 2.048001 0.223998
v 1.572661 2.048001 0.159792
v 1.572661 2.048001 0.159792
v 1.572661 2.048001 0.159792
v 1.397452 2.206393 0.158390
v 1.572661 2.160992 0.112989
v 1.572661 2.160992 0.112989
v 1.572661 2.160992 0.112989
v 1.397452 2.048001 -0.224002
v 1.397452 2.048001 -0.224002
v 1.572661 2.048001 -0.159795
v 1.572661 2.048001 -0.159795
v 1.572661 2.048001 -0.159795
v 1.397452 2.206393 -0.158394
v 1.572661 2.160992 -0.112993
v 1.572661 2.160992 -0.112993
v 1.572661 2.160992 -0.112993
v 1.397452 1.824001 -0.000002
v 1.397452 1.824001 -0.000002
v 1.572661 1.888207 -0.000002
v 1.572661 1.888207 -0.000002
v 1.572661 1.888207 -0.000002
v 1.397452 1.889609 0.158390
v 1.572661 1.935010 0.112989
v 1.572661 1.935010 0.112989
v 1.572661 1.935010 0.112989
v 1.397452 1.889609 -0.158394
v 1.572661 1.935010 -0.112993
v 1.572661 1.935010 -0.112993
v 1.572661 1.935010 -0.112993
v 1.632462 2.141021 -0.000002
v 1.632462 1.982226 0.065773
v 1.632462 2.048001 0.093018
v 1.632462 2.048001 -0.093021
v 1.632462 1.982226 -0.065777
v 1.632462 2.113776 -0.065777
v 1.632462 1.954981 -0.000002
v 1.632462 2.113776 0.065773
v 1.485057 1.898740 0.149259
v 1.485057 2.048001 0.211085
v 1.485057 2.048001 0.211085
v 1.485057 2.048001 -0.211088
v 1.485057 2.048001 -0.211088
v 1.485057 1.898740 -0.149262
v 1.485057 2.259087 -0.000002
v 1.485057 2.259087 -0.000002
v 1.485057 2.197261 -0.149262
v 1.485057 1.836915 -0.000002
v 1.485057 1.836915 -0.000002
v 1.485057 2.197261 0.149259
vn 0.9211 -0.3893 -0.0000
vn -0.0000 -0.0000 -1.0000
vn 0.6614 -0.2806 0.6955
vn -0.9143 0.4051 -0.0000
vn -0.0000 -0.0000 1.0000
vn 0.6614 -0.2806 -0.6956
vn 0.6614 -0.2806 -0.6955
vn 0.1300 0.9915 0.0055
vn 0.1300 0.9915 0.0056
vn 0.1301 0.9915 0.0056
vn 0.1300 0.9915 -0.0056
vn 0.1364 0.9907 -0.0000
vn 0.1380 0.9904 0.0008
vn 0.1380 0.9904 0.0009
vn 0.1380 0.9904 -0.0009
vn 0.1362 0.9907 -0.0000
vn -0.9102 0.4142 -0.0000
vn 0.4188 -0.1905 -0.8879
vn 0.3044 -0.1385 -0.9424
vn 0.8553 -0.3892 -0.3421
vn 0.8553 -0.3892 0.3421
vn 0.8375 -0.3811 0.3917
vn 0.8375 -0.3811 -0.3917
vn -0.1361 -0.9907 -0.0000
vn -0.1360 -0.9907 -0.0000
vn 0.4188 -0.1905 0.8879
vn 0.3044 -0.1385 0.9424
vn -0.8763 -0.4818 -0.0000
vn -0.0000 1.0000 -0.0000
vn -0.0000 0.7523 -0.6589
vn 0.7407 -0.0847 0.6664
vn 0.7289 -0.1066 0.6762
vn 0.6876 -0.1764 0.7044
vn -0.9061 0.4230 -0.0000
vn -0.7469 0.0876 -0.6591
vn -0.7854 0.1990 -0.5861
vn -0.7579 0.1157 -0.6420
vn 0.8375 0.4113 0.3599
vn -0.0000 0.7523 0.6589
vn -0.7579 0.1157 0.6420
vn -0.7854 0.1990 0.5861
vn -0.7469 0.0875 0.6591
vn 0.6876 -0.1764 -0.7044
vn 0.7289 -0.1066 -0.6762
vn 0.7407 -0.0847 -0.6664
vn 0.7925 0.0277 -0.6093
vn 0.8375 0.4113 -0.3599
vn 0.7925 0.0277 0.6093
vn -0.7071 -0.0002 -0.7071
vn -0.7071 -0.0002 0.7071
vn -0.9127 0.4086 -0.0000
vn 0.9128 -0.4083 -0.0000
vn -0.0000 -0.7071 0.7071
vn 0.0718 -0.7053 0.7053
vn 0.0718 -0.0000 0.9974
vn -0.0000 0.7071 0.7071
vn -0.0000 0.7071 -0.7071
vn -0.0000 -1.0000 -0.0000
vn -0.0000 -0.7071 -0.7071
vn -1.0000 -0.0000 -0.0000
vn 0.0001 1.0000 -0.0000
vn 0.0718 0.7053 0.7053
vn 0.0718 0.9974 -0.0000
vn 0.0719 -0.0000 -0.9974
vn 0.0718 -0.7053 -0.7053
vn 0.0719 -0.9974 -0.0000
vn 0.0718 -0.9974 -0.0000
vn 0.0719 0.9974 -0.0000
vn 0.0718 0.7053 -0.7053
vn 0.0718 -0.0000 -0.9974
vn 0.0719 -0.0000 0.9974
vn 0.8420 -0.0000 0.5396
vn 0.6147 -0.0000 0.7887
vn 0.6147 -0.5577 0.5577
vn 0.8420 -0.3815 0.3815
vn 0.3179 -0.6704 0.6704
vn 0.3179 -0.0000 0.9481
vn 0.8420 -0.3815 -0.3815
vn 0.6147 -0.5577 -0.5577
vn 0.6147 -0.0000 -0.7887
vn 0.8420 -0.0000 -0.5396
vn 0.3179 -0.0000 -0.9481
vn 0.3179 -0.6704 -0.6704
vn 0.8420 0.3815 -0.3815
vn 0.6147 0.5577 -0.5577
vn 0.6147 0.7887 -0.0000
vn 0.8420 0.5396 -0.0000
vn 0.3179 0.9481 -0.0000
vn 0.3179 0.6704 -0.6704
vn 0.8420 -0.5396 -0.0000
vn 0.6147 -0.7887 -0.0000
vn 0.3179 -0.9481 -0.0000
vn 0.8420 0.3815 0.3815
vn 0.6147 0.5577 0.5577
vn 0.3179 0.6704 0.6704
vn 1.0000 -0.0000 -0.0000
vn 0.6147 -0.7888 -0.0000
vn 0.6147 -0.5578 0.5577
vn 0.6147 0.5577 -0.5578
vn 0.6147 -0.0000 -0.7888
vn 0.6147 0.5578 0.5577
vn 0.6147 0.7888 -0.0000
vn 0.6147 -0.0000 0.7888
vn 0.6147 0.5577 0.5578
vn 0.6147 -0.5578 -0.5577
vn 0.6147 0.5578 -0.5577
vn 0.6147 -0.5577 -0.5578
vn 0.6147 -0.5577 0.5578
vt 0.069698 0.758654
vt 0.069698 0.948512
vt 0.052626 0.948512
vt 0.052626 0.758654
vt 0.051540 0.757471
vt 0.045320 0.757469
vt 0.045320 0.808195
vt 0.051541 0.805029
vt 0.070229 0.636800
vt 0.069024 0.843648
vt 0.059136 0.838083
vt 0.061852 0.633259
vt 0.061718 0.642793
vt 0.022000 0.642793
vt 0.022000 0.823512
vt 0.026703 0.823512
vt 0.057015 0.823512
vt 0.061718 0.823512
vt 0.163073 0.559565
vt 0.367757 0.559241
vt 0.346573 0.511169
vt 0.148549 0.511004
vt 0.061852 0.633259
vt 0.069024 0.843648
vt 0.070229 0.636800
vt 0.148549 0.511005
vt 0.163073 0.559565
vt 0.018530 0.756561
vt 0.014506 0.760077
vt 0.026541 0.774121
vt 0.031326 0.770368
vt 0.049416 0.770363
vt 0.054195 0.774122
vt 0.066225 0.760085
vt 0.062207 0.756560
vt 0.018393 0.704552
vt 0.014028 0.709884
vt 0.066705 0.709889
vt 0.062343 0.704553
vt 0.066733 0.716084
vt 0.013999 0.716080
vt 0.066559 0.758015
vt 0.066780 0.717919
vt 0.025577 0.771576
vt 0.055156 0.771578
vt 0.013954 0.717917
vt 0.014171 0.758007
vt 0.011063 0.816899
vt 0.011387 0.827784
vt 0.058008 0.847472
vt 0.049200 0.752736
vt 0.037620 0.752736
vt 0.035854 0.802444
vt 0.048750 0.802441
vt 0.054419 0.752723
vt 0.054533 0.808682
vt 0.061718 0.802882
vt 0.061717 0.752723
vt 0.029298 0.752723
vt 0.029141 0.808681
vt 0.033258 0.808683
vt 0.033320 0.754705
vt 0.058008 0.847473
vt 0.054185 0.831728
vt 0.061718 0.831709
vt 0.051540 0.751250
vt 0.042372 0.754730
vt 0.011387 0.827785
vt 0.011063 0.816899
vt 0.064818 0.850074
vt 0.066890 0.849296
vt 0.049161 0.754707
vt 0.053705 0.748087
vt 0.033323 0.748087
vt 0.037572 0.754707
vt 0.051541 0.811250
vt 0.022002 0.752723
vt 0.022000 0.802882
vt 0.050395 0.754705
vt 0.050395 0.808683
vt 0.042372 0.754731
vt 0.022000 0.831709
vt 0.029533 0.831728
vt 0.066890 0.849296
vt 0.054897 0.811250
vt 0.054897 0.805029
vt 0.038853 0.805029
vt 0.038853 0.811250
vt 0.048750 0.802444
vt 0.048725 0.805314
vt 0.035751 0.805314
vt 0.009766 0.603516
vt 0.015625 0.603516
vt 0.015623 0.608368
vt 0.009753 0.608368
vt 0.009766 0.556641
vt 0.009766 0.582031
vt 0.015625 0.582031
vt 0.015625 0.556641
vt 0.021484 0.582031
vt 0.021484 0.556641
vt 0.023383 0.637313
vt 0.023383 0.643928
vt 0.018973 0.648337
vt 0.012358 0.648337
vt 0.007949 0.643928
vt 0.007949 0.637313
vt 0.012358 0.632903
vt 0.018973 0.632903
vt 0.015623 0.608368
vt 0.009753 0.608368
vt 0.021484 0.603516
vt 0.021492 0.608368
vt 0.021492 0.608368
vt 0.021492 0.608368
vt 0.015623 0.608368
vt 0.009753 0.608368
vt 0.017389 0.661810
vt 0.018912 0.658164
vt 0.023481 0.662749
vt 0.019821 0.664250
vt 0.015636 0.611246
vt 0.010050 0.611246
vt 0.017366 0.670125
vt 0.018870 0.673784
vt 0.012397 0.673757
vt 0.013921 0.670110
vt 0.021223 0.611246
vt 0.015636 0.611246
vt 0.011489 0.667670
vt 0.007830 0.669171
vt 0.007830 0.662691
vt 0.011489 0.664220
vt 0.021223 0.611246
vt 0.015636 0.611246
vt 0.019821 0.667701
vt 0.023481 0.669230
vt 0.010050 0.611246
vt 0.013944 0.661795
vt 0.012440 0.658137
vt 0.021223 0.611246
vt 0.015636 0.611246
vt 0.010050 0.611246
vt 0.010050 0.611246
vt 0.021223 0.611246
vt 0.015655 0.665960
vt 0.020442 0.614501
vt 0.016453 0.614501
vt 0.014851 0.614501
vt 0.010861 0.614501
vt 0.014850 0.614501
vt 0.010861 0.614501
vt 0.020442 0.614501
vt 0.016453 0.614501
vt 0.014850 0.614501
vt 0.010861 0.614501
vt 0.020443 0.614501
vt 0.016453 0.614501
vt 0.020442 0.614501
vt 0.016453 0.614501
vt 0.014850 0.614501
vt 0.010861 0.614501
s 0
usemtl pistols_mp_1
f 15/1/1 134/2/1 125/3/1
f 15/1/1 125/3/1 3/4/1
s 1
f 98/5/2 119/6/2 103/7/2
s 0
f 98/5/2 103/7/2 24/8/2
s 1
f 4/9/3 126/10/3 18/11/3
f 4/9/3 18/11/3 7/12/3
s 0
f 45/13/4 43/14/4 34/15/4
s 1
f 139/16/4 137/17/4 38/18/4
s 0
f 45/13/4 34/15/4 139/16/4
f 139/16/4 38/18/4 45/13/4
f 8/19/5 20/20/5 36/21/5
f 8/19/5 36/21/5 44/22/5
s 1
f 9/23/6 30/11/7 131/24/7
f 9/23/6 131/24/7 16/25/7
s 0
f 48/26/2 40/21/2 32/20/2
f 48/26/2 32/20/2 12/27/2
s 1
f 5/28/8 49/29/9 52/30/9
f 5/28/8 52/30/9 1/31/10
f 13/32/11 55/33/11 58/34/11
f 13/32/11 58/34/11 10/35/11
s 0
f 2/31/12 53/30/12 56/33/12
f 2/31/12 56/33/12 14/32/12
s 1
f 42/36/13 64/37/14 50/29/13
f 42/36/13 50/29/13 6/28/14
f 11/35/15 59/34/15 68/38/15
f 11/35/15 68/38/15 47/39/15
s 0
f 46/39/16 67/38/16 63/37/16
f 46/39/16 63/37/16 41/36/16
f 61/37/17 65/38/17 86/40/17
f 61/37/17 86/40/17 77/41/17
s 1
f 88/40/2 66/38/2 60/34/18
f 60/34/18 76/42/19 85/43/2
f 60/34/18 85/43/2 88/40/2
f 57/33/20 54/30/21 72/44/22
f 57/33/20 72/44/22 74/45/23
f 81/46/24 84/43/24 75/42/25
f 75/42/25 73/45/24 71/44/25
f 71/44/25 69/47/24 81/46/24
f 75/42/25 71/44/25 81/46/24
f 54/30/21 51/29/26 70/47/27
f 54/30/21 70/47/27 72/44/22
f 60/34/18 57/33/20 74/45/23
f 60/34/18 74/45/23 76/42/19
s 0
f 83/43/28 80/46/28 78/41/28
f 83/43/28 78/41/28 87/40/28
s 1
f 70/47/27 51/29/26 62/37/5
s 0
f 62/37/5 79/41/5 82/46/5
s 1
f 62/37/5 82/46/5 70/47/27
s 0
f 37/48/2 114/49/2 108/50/2
f 37/48/2 108/50/2 29/11/2
f 165/51/29 168/52/29 144/53/29
f 165/51/29 144/53/29 148/54/29
f 163/55/29 153/56/29 110/57/29
f 163/55/29 110/57/29 115/58/29
f 158/59/30 150/60/30 102/61/30
f 158/59/30 102/61/30 117/62/30
s 1
f 127/10/31 101/63/32 19/11/33
s 0
f 138/17/34 162/64/34 116/65/34
f 138/17/34 116/65/34 39/18/34
s 1
f 142/66/35 160/67/36 118/6/37
s 0
f 17/11/5 100/63/5 111/68/5
f 17/11/5 111/68/5 33/69/5
f 121/6/5 93/5/5 27/8/5
f 121/6/5 27/8/5 105/7/5
f 133/24/38 156/70/38 107/71/38
f 89/72/29 136/73/29 141/74/29
f 89/72/29 141/74/29 94/75/29
s 1
f 103/7/2 124/76/2 24/8/2
s 0
f 113/77/29 99/78/29 149/60/29
f 113/77/29 149/60/29 157/59/29
f 122/79/39 106/80/39 154/56/39
f 122/79/39 154/56/39 164/55/39
s 1
f 120/6/40 161/81/41 135/66/42
s 0
f 35/15/34 112/82/34 159/83/34
f 35/15/34 159/83/34 140/16/34
s 1
f 31/11/43 109/50/44 132/24/45
f 109/50/44 155/70/46 132/24/45
f 104/84/47 152/70/47 128/10/47
f 151/70/48 101/63/32 127/10/31
f 97/5/49 142/66/35 118/6/37
f 92/5/50 120/6/40 135/66/42
f 105/7/5 27/8/5 129/76/5
s 0
f 130/85/29 28/86/29 23/87/29
f 130/85/29 23/87/29 123/88/29
f 90/72/5 166/51/5 147/89/5
f 90/72/5 147/89/5 26/90/5
s 1
f 25/90/51 146/89/51 143/53/51
s 0
f 25/90/51 143/53/51 21/91/51
f 22/91/2 145/53/2 169/52/2
f 22/91/2 169/52/2 95/75/2
f 96/75/52 170/52/52 167/51/52
f 96/75/52 167/51/52 91/72/52
s 1
usemtl ammo_mp_1
f 183/92/5 209/93/53 244/94/54
f 183/92/5 244/94/54 221/95/55
f 171/96/5 184/97/5 188/98/56
f 171/96/5 188/98/56 177/99/56
f 177/99/56 188/98/56 182/100/29
f 177/99/56 182/100/29 175/101/29
f 197/100/2 191/101/2 192/99/57
f 197/100/2 192/99/57 199/98/57
f 199/98/57 192/99/57 174/96/29
f 199/98/57 174/96/29 180/97/29
f 208/100/58 202/101/58 212/99/59
f 208/100/58 212/99/59 214/98/59
f 214/98/59 212/99/59 189/96/2
f 214/98/59 189/96/2 195/97/2
f 186/100/5 173/101/5 204/99/53
f 186/100/5 204/99/53 210/98/53
f 210/98/53 204/99/53 201/96/58
f 210/98/53 201/96/58 206/97/58
s 0
f 178/102/60 176/103/60 193/104/60
f 193/104/60 190/105/60 211/106/60
f 211/106/60 200/107/60 203/108/60
f 203/108/60 172/109/60 178/102/60
f 178/102/60 193/104/60 211/106/60
f 211/106/60 203/108/60 178/102/60
s 1
f 179/92/61 187/93/56 226/110/62
f 179/92/61 226/110/62 215/111/63
f 213/93/59 196/112/2 231/113/64
f 213/93/59 231/113/64 248/110/65
f 209/93/53 207/112/58 240/114/66
f 209/93/53 240/114/66 244/94/54
f 205/92/58 213/93/59 248/110/65
f 205/92/58 248/110/65 239/95/67
f 198/93/57 181/112/29 216/115/68
f 198/93/57 216/115/68 235/116/69
f 194/92/2 198/93/57 235/116/69
f 194/92/2 235/116/69 230/117/70
f 187/93/56 185/112/5 222/114/71
f 187/93/56 222/114/71 226/110/62
f 254/118/72 224/119/73 247/120/74
f 254/118/72 247/120/74 253/121/75
f 260/122/76 261/123/77 221/95/55
f 260/122/76 221/95/55 244/94/54
f 256/124/78 251/125/79 233/126/80
f 256/124/78 233/126/80 255/127/81
f 264/128/82 265/129/83 248/110/65
f 264/128/82 248/110/65 231/113/64
f 257/130/84 236/131/85 218/132/86
f 257/130/84 218/132/86 252/133/87
f 267/134/88 268/135/89 235/116/69
f 267/134/88 235/116/69 216/115/68
f 258/136/90 243/137/91 251/125/79
f 258/136/90 251/125/79 256/124/78
f 265/129/83 269/138/92 239/95/67
f 265/129/83 239/95/67 248/110/65
f 259/139/93 227/140/94 224/119/73
f 259/139/93 224/119/73 254/118/72
f 262/141/77 271/142/95 226/110/62
f 262/141/77 226/110/62 222/114/71
f 252/133/87 218/132/86 227/140/94
f 252/133/87 227/140/94 259/139/93
f 271/142/95 266/143/88 215/111/63
f 271/142/95 215/111/63 226/110/62
f 255/127/81 233/126/80 236/131/85
f 255/127/81 236/131/85 257/130/84
f 268/135/89 263/144/82 230/117/70
f 268/135/89 230/117/70 235/116/69
f 253/121/75 247/120/74 243/137/91
f 253/121/75 243/137/91 258/136/90
f 270/145/92 260/122/76 244/94/54
f 270/145/92 244/94/54 240/114/66
f 217/146/96 253/121/75 258/136/90
f 217/146/96 255/127/81 257/130/84
f 217/146/96 252/133/87 259/139/93
f 217/146/96 259/139/93 254/118/72
f 217/146/96 258/136/90 256/124/78
f 217/146/96 257/130/84 252/133/87
f 217/146/96 256/124/78 255/127/81
f 217/146/96 254/118/72 253/121/75
f 242/147/97 246/148/98 260/122/76
f 242/147/97 260/122/76 270/145/92
f 237/149/99 232/150/100 263/144/82
f 237/149/99 263/144/82 268/135/89
f 228/151/101 219/152/102 266/143/88
f 228/151/101 266/143/88 271/142/95
f 225/153/103 229/154/104 271/142/95
f 225/153/103 271/142/95 262/141/77
f 249/155/105 241/156/97 269/138/92
f 249/155/105 269/138/92 265/129/83
f 220/157/102 238/158/106 268/135/89
f 220/157/102 268/135/89 267/134/88
f 234/159/100 250/160/107 265/129/83
f 234/159/100 265/129/83 264/128/82
f 245/161/108 223/162/103 261/123/77
f 245/161/108 261/123/77 260/122/76
