# Blender 4.5.3 LTS
# www.blender.org
mtllib cash_6.mtl
o cash_6
v -2.009150 0.140501 -1.985531
v -2.009150 0.140501 -1.985531
v -2.009150 0.140501 -1.985531
v 2.025369 0.064000 -1.985531
v 2.025369 0.064000 -1.985531
v 2.025369 0.064000 -1.985531
v -1.970750 0.000000 1.600006
v -1.970750 0.000000 1.600006
v -1.970750 0.053811 1.600006
v -1.970750 0.053811 1.600006
v 1.986969 0.000000 1.600006
v 1.986969 0.000000 1.600006
v -1.980271 0.077811 -0.224763
v -1.980271 0.077811 -0.224763
v -1.989950 0.032000 -0.224775
v -1.989950 0.032000 -0.224775
v -1.970750 0.056244 1.735767
v -1.970750 0.056244 1.735767
v 1.986969 0.056244 1.735767
v 1.986969 0.056244 1.735767
v -1.970750 0.192012 1.791994
v -1.970750 0.192012 1.791994
v 1.986969 0.192012 1.791994
v 1.986969 0.192012 1.791994
v 1.986969 0.192012 1.738204
v 1.986969 0.192012 1.738204
v -1.970750 0.327773 1.735749
v -1.970750 0.327773 1.735749
v -1.970750 0.289723 1.697705
v -1.970750 0.289723 1.697705
v 1.986969 0.327773 1.735750
v 1.986969 0.327773 1.735750
v -1.970750 0.330189 1.599982
v -1.970750 0.330189 1.599982
v 1.986969 0.384000 1.599982
v 1.986969 0.384000 1.599982
v -2.009150 0.434591 -1.977464
v -2.009150 0.434591 -1.977464
v -2.009150 0.434591 -1.977464
v 2.025369 0.369349 -1.985382
v 2.025369 0.369349 -1.985382
v 2.025369 0.369349 -1.985382
v 2.025369 0.315045 -1.982119
v 2.025369 0.315045 -1.982119
v 2.025369 0.315045 -1.982119
v -1.970750 0.384000 1.599945
v -1.970750 0.384000 1.599945
v 0.886599 0.459855 -1.977464
v 0.886599 0.459855 -1.977464
v 0.886599 0.405552 -1.974170
v 0.886599 0.405552 -1.974170
v 2.006169 0.471665 -1.090957
v 2.006169 0.471665 -1.090957
v -1.989950 0.508372 -0.228615
v -1.989950 0.508372 -0.228615
v 1.996569 0.515083 -0.228611
v 1.996569 0.515083 -0.228611
v 1.998415 0.032000 -0.224751
v 1.998415 0.032000 -0.224751
v -2.009150 0.194313 -1.977531
v -2.009150 0.194313 -1.977531
v -2.009150 0.194313 -1.977531
v 2.025369 0.117811 -1.977531
v 2.025369 0.117811 -1.977531
v 2.025369 0.117811 -1.977531
v 1.986969 0.053811 1.600006
v 1.986969 0.053811 1.600006
v 1.992692 0.077811 -0.224757
v 1.992692 0.077811 -0.224757
v 1.986969 0.094294 1.697716
v 1.986969 0.094294 1.697716
v -1.970750 0.094294 1.697716
v -1.970750 0.094294 1.697716
v -1.970750 0.192012 1.738183
v -1.970750 0.192012 1.738183
v 1.986969 0.289723 1.697699
v 1.986969 0.289723 1.697699
v 1.986969 0.330189 1.599982
v 1.986969 0.330189 1.599982
v -2.009150 0.392919 -1.974184
v -2.009150 0.392919 -1.974184
v -2.009150 0.392919 -1.974184
v 2.006169 0.421394 -1.095353
v 2.006169 0.421394 -1.095353
v 1.991769 0.467485 -0.228602
v 1.991769 0.467485 -0.228602
v -1.980350 0.464130 -0.228604
v -1.980350 0.464130 -0.228604
vn -0.0000 0.9998 0.0180
vn 0.0071 0.9994 0.0341
vn -0.0000 0.9821 -0.1883
vn -0.0000 0.9821 -0.1885
vn -0.9953 0.0959 0.0146
vn -0.9953 0.0951 0.0197
vn -0.9953 0.0960 0.0144
vn 0.0050 0.9994 0.0343
vn 0.0189 0.9976 0.0660
vn 0.9983 0.0567 0.0119
vn 0.9997 0.0256 0.0025
vn 0.9995 0.0326 0.0032
vn 0.9983 0.0566 0.0118
vn -0.0000 -0.9998 -0.0179
vn -0.0000 -0.9825 0.1861
vn -0.0000 -0.9826 0.1858
vn -0.0070 -0.9994 -0.0339
vn -0.0189 -0.9979 -0.0613
vn -0.0050 -0.9995 -0.0296
vn -0.9991 0.0432 0.0042
vn -0.9985 0.0550 0.0053
vn -1.0000 -0.0000 -0.0000
vn -0.0000 -0.7071 0.7071
vn -0.0000 -0.7071 0.7072
vn -0.0000 0.7070 -0.7072
vn -0.0000 0.7071 -0.7071
vn -0.0000 -0.0001 -1.0000
vn -0.0000 0.0001 1.0000
vn -0.0000 0.7071 0.7071
vn -0.0000 0.7072 0.7070
vn -0.0000 -0.7072 -0.7071
vn -0.0000 -0.7072 -0.7070
vn -0.0000 -0.9731 -0.2305
vn 0.0003 -0.9729 -0.2313
vn -0.9984 -0.0568 0.0006
vn -0.9991 -0.0422 0.0004
vn -0.0004 0.9735 0.2288
vn -0.0004 0.9735 0.2286
vn -0.0230 -0.9978 0.0618
vn -0.0167 -0.9983 0.0555
vn -0.0779 -0.9901 0.1171
vn 0.0152 0.9985 -0.0528
vn 0.0215 0.9980 -0.0586
vn 0.0780 0.9907 -0.1117
vn 0.0003 -0.9998 -0.0173
vn 0.0003 -0.9998 -0.0174
vn -0.0021 0.9993 -0.0365
vn -0.0015 0.9999 0.0162
vn -0.0015 0.9999 0.0163
vn 0.0001 -0.9993 0.0385
vn 0.9988 -0.0485 0.0084
vn 0.9996 -0.0223 0.0193
vn 0.9994 -0.0277 0.0187
vn 0.9988 -0.0485 0.0085
vn -0.9937 -0.1103 0.0182
vn -0.9945 -0.1039 0.0095
vn -0.9945 -0.1040 0.0097
vn -0.9937 -0.1102 0.0196
vn -0.0117 -0.0605 -0.9981
vn -0.0117 -0.0603 -0.9981
vn -0.0058 -0.0642 -0.9979
vn -0.0055 -0.0643 -0.9979
vn 0.9983 0.0559 0.0181
vn 0.9998 -0.0003 0.0216
vn 0.0004 -0.0683 -0.9977
vn 1.0000 -0.0000 -0.0000
vn 0.9998 -0.0204 0.0002
vn 0.9996 -0.0275 0.0003
vn 0.0028 0.1471 -0.9891
vn 0.0028 0.1470 -0.9891
vt 0.808698 0.723264
vt 0.808685 0.457261
vt 0.870191 0.457244
vt 0.870204 0.723247
vt 0.811273 0.394509
vt 0.750131 0.394531
vt 0.749923 0.390625
vt 0.811308 0.390580
vt 0.750357 0.725861
vt 0.750217 0.454627
vt 0.811085 0.394500
vt 0.874923 0.394531
vt 0.874923 0.390625
vt 0.810932 0.390563
vt 0.943542 0.998352
vt 0.884507 0.997020
vt 0.884512 0.729447
vt 0.943204 0.728118
vt 0.999934 0.726716
vt 0.999831 0.999708
vt 0.879782 0.997020
vt 0.879787 0.729446
vt 0.872368 0.457243
vt 0.872381 0.723246
vt 0.874545 0.457242
vt 0.874558 0.723245
vt 0.875056 0.997019
vt 0.875061 0.729446
vt 0.874923 0.394531
vt 0.870330 0.997018
vt 0.870335 0.729445
vt 0.876721 0.457242
vt 0.876734 0.723245
vt 0.878898 0.457241
vt 0.878911 0.723244
vt 0.865605 0.997018
vt 0.865609 0.729444
vt 0.970141 0.724527
vt 0.999499 0.649253
vt 1.000000 0.726132
vt 0.750388 0.920378
vt 0.778882 0.998352
vt 0.749934 1.000000
vt 0.940719 0.457224
vt 0.940733 0.723227
vt 0.750379 0.726716
vt 0.806669 0.728100
vt 0.806649 0.997679
vt 0.999490 0.454627
vt 0.938714 0.394396
vt 0.969002 0.394494
vt 0.968947 0.390550
vt 0.938821 0.390355
vt 0.999714 0.394531
vt 0.938709 0.394649
vt 0.938809 0.390860
vt 0.999923 0.390625
vt 0.890548 0.390625
vt 0.890444 0.394531
vt 0.920317 0.394531
vt 0.920317 0.390625
vt 0.999819 0.394531
vt 0.996017 0.394531
vt 0.996017 0.390625
vt 0.890548 0.394531
s 1
usemtl money_1
f 68/1/1 13/2/2 9/3/3
f 68/1/1 9/3/3 66/4/4
f 14/5/5 60/6/6 1/7/6
f 14/5/5 1/7/6 15/8/7
f 64/9/8 61/10/9 13/2/2
f 69/11/10 67/12/11 11/13/12
f 69/11/10 11/13/12 58/14/13
f 59/15/14 12/16/15 8/17/16
f 59/15/14 8/17/16 16/18/17
f 68/1/1 64/9/8 13/2/2
f 3/19/18 6/20/19 16/18/17
f 10/12/20 7/13/21 17/13/22
f 10/12/20 17/13/22 73/12/22
f 8/17/16 12/16/15 20/21/23
f 8/17/16 20/21/23 18/22/24
f 66/4/4 9/3/3 72/23/25
f 66/4/4 72/23/25 70/24/26
f 70/24/26 72/23/25 74/25/27
f 70/24/26 74/25/27 25/26/27
s 0
f 73/12/22 17/13/22 21/13/22
f 73/12/22 21/13/22 75/12/22
s 1
f 18/22/24 20/21/23 24/27/28
f 18/22/24 24/27/28 22/28/28
s 0
f 75/12/22 21/13/22 28/13/22
f 75/12/22 28/13/22 29/29/22
s 1
f 22/28/28 24/27/28 31/30/29
f 22/28/28 31/30/29 27/31/30
f 25/26/27 74/25/27 30/32/31
f 25/26/27 30/32/31 77/33/32
f 77/33/32 30/32/31 34/34/33
f 77/33/32 34/34/33 79/35/34
f 29/29/22 28/13/22 47/13/35
f 29/29/22 47/13/35 33/12/36
f 27/31/30 31/30/29 35/36/37
f 27/31/30 35/36/37 46/37/38
f 84/38/39 51/39/40 45/40/41
f 48/41/42 52/42/43 40/43/44
f 79/35/34 34/34/33 88/44/45
f 79/35/34 88/44/45 86/45/46
f 6/20/19 59/15/14 16/18/17
f 48/41/42 37/46/47 54/47/48
f 54/47/48 56/48/49 52/42/43
f 54/47/48 52/42/43 48/41/42
f 84/38/39 86/45/46 88/44/45
f 88/44/45 81/49/50 51/39/40
f 88/44/45 51/39/40 84/38/39
f 85/50/51 83/51/52 53/52/53
f 85/50/51 53/52/53 57/53/54
f 54/47/48 46/37/38 35/36/37
f 54/47/48 35/36/37 56/48/49
f 82/54/55 87/55/56 55/56/57
f 82/54/55 55/56/57 39/57/58
f 87/55/56 33/12/36 47/13/35
f 87/55/56 47/13/35 55/56/57
f 7/13/21 10/12/20 14/5/5
f 7/13/21 14/5/5 15/8/7
f 41/58/59 43/59/60 50/60/61
f 41/58/59 50/60/61 49/61/62
f 4/7/63 63/6/63 69/11/10
f 4/7/63 69/11/10 58/14/13
f 53/52/53 83/51/52 44/62/64
f 53/52/53 44/62/64 42/57/64
f 49/61/62 50/60/61 80/63/65
f 49/61/62 80/63/65 38/64/65
f 32/13/66 76/12/66 78/12/67
f 32/13/66 78/12/67 36/13/68
s 0
f 23/13/66 26/12/66 76/12/66
f 23/13/66 76/12/66 32/13/66
f 19/13/66 71/12/66 26/12/66
f 19/13/66 26/12/66 23/13/66
s 1
f 11/13/12 67/12/11 71/12/66
f 11/13/12 71/12/66 19/13/66
s 0
f 2/64/69 62/63/69 65/65/69
f 2/64/70 65/65/70 5/58/70
s 1
f 36/13/68 78/12/67 85/50/51
f 36/13/68 85/50/51 57/53/54
