# Blender 4.5.3 LTS
# www.blender.org
mtllib suppressor_mp_2.mtl
o suppressor_mp_2
v 0.384119 0.445070 0.000005
v 0.384119 0.445070 0.000005
v 0.384119 0.445070 0.000005
v 0.384119 0.445070 0.000005
v 0.384119 0.313625 -0.317331
v 0.384119 0.313625 -0.317331
v 0.384119 0.313625 -0.317331
v 0.384119 0.313625 -0.317331
v 0.384119 -0.003711 -0.448776
v 0.384119 -0.003711 -0.448776
v 0.384119 -0.003711 -0.448776
v 0.384119 -0.003711 -0.448776
v 0.384119 -0.321047 -0.317331
v 0.384119 -0.321047 -0.317331
v 0.384119 -0.321047 -0.317331
v 0.384119 -0.321047 -0.317331
v 0.384119 0.313625 0.317344
v 0.384119 0.313625 0.317344
v 0.384119 0.313625 0.317344
v 0.384119 0.313625 0.317344
v 0.384119 -0.003711 0.448788
v 0.384119 -0.003711 0.448788
v 0.384119 -0.003711 0.448788
v 0.384119 -0.003711 0.448788
v 0.384119 -0.452492 0.000007
v 0.384119 -0.452492 0.000007
v 0.384119 -0.452492 0.000007
v 0.384119 -0.452492 0.000007
v 0.384119 -0.321047 0.317343
v 0.384119 -0.321047 0.317343
v 0.384119 -0.321047 0.317343
v 0.384119 -0.321047 0.317343
v 0.384186 -0.501514 -0.497799
v 0.384186 -0.501514 -0.497799
v 0.384186 -0.501514 -0.497799
v 0.384186 -0.707711 0.000004
v 0.384186 -0.707711 0.000004
v 0.384186 -0.707711 0.000004
v 0.384186 -0.707711 0.000004
v 0.384186 0.700288 0.000004
v 0.384186 0.700288 0.000004
v 0.384186 0.700288 0.000004
v 0.384186 0.700288 0.000004
v 0.384186 0.494091 0.497810
v 0.384186 0.494091 0.497810
v 0.384186 0.494091 0.497810
v 0.384186 -0.003711 -0.703995
v 0.384186 -0.003711 -0.703995
v 0.384186 -0.003711 -0.703995
v 0.384186 -0.003711 -0.703995
v 0.384186 -0.003712 0.704006
v 0.384186 -0.003712 0.704006
v 0.384186 -0.003712 0.704006
v 0.384186 -0.003712 0.704006
v 0.384186 0.494091 -0.497799
v 0.384186 0.494091 -0.497799
v 0.384186 0.494091 -0.497799
v 0.384186 -0.501514 0.497810
v 0.384186 -0.501514 0.497810
v 0.384186 -0.501514 0.497810
v 0.000119 0.445070 0.000005
v 0.000119 0.445070 0.000005
v 0.000119 0.445070 0.000005
v 0.000119 0.313625 -0.317331
v 0.000119 0.313625 -0.317331
v 0.000119 0.313625 -0.317331
v 0.000119 -0.003711 -0.448776
v 0.000119 -0.003711 -0.448776
v 0.000119 -0.003711 -0.448776
v 0.000119 -0.321047 -0.317331
v 0.000119 -0.321047 -0.317331
v 0.000119 -0.321047 -0.317331
v 0.000119 -0.452492 0.000007
v 0.000119 -0.452492 0.000007
v 0.000119 -0.452492 0.000007
v 0.000119 -0.321047 0.317343
v 0.000119 -0.321047 0.317343
v 0.000119 -0.321047 0.317343
v 0.000119 -0.003711 0.448788
v 0.000119 -0.003711 0.448788
v 0.000119 -0.003711 0.448788
v 0.000119 0.313625 0.317344
v 0.000119 0.313625 0.317344
v 0.000119 0.313625 0.317344
v 0.384119 0.417440 0.267399
v 0.384119 0.417440 0.267399
v 0.384119 0.417440 0.267399
v 0.384119 0.483162 0.108730
v 0.384119 0.483162 0.108730
v 0.384119 0.483162 0.108730
v 0.000119 0.417440 0.267399
v 0.000119 0.417440 0.267399
v 0.000119 0.417440 0.267399
v 0.000119 0.483162 0.108730
v 0.000119 0.483162 0.108730
v 0.000119 0.483162 0.108730
v 0.384119 0.105013 0.486881
v 0.384119 0.105013 0.486881
v 0.384119 0.105013 0.486881
v 0.384119 0.263681 0.421159
v 0.384119 0.263681 0.421159
v 0.384119 0.263681 0.421159
v 0.000119 0.105013 0.486881
v 0.000119 0.105013 0.486881
v 0.000119 0.105013 0.486881
v 0.000119 0.263681 0.421159
v 0.000119 0.263681 0.421159
v 0.000119 0.263681 0.421159
v 0.384119 0.483162 -0.108720
v 0.384119 0.483162 -0.108720
v 0.384119 0.483162 -0.108720
v 0.384119 0.417439 -0.267388
v 0.384119 0.417439 -0.267388
v 0.384119 0.417439 -0.267388
v 0.000119 0.483162 -0.108720
v 0.000119 0.483162 -0.108720
v 0.000119 0.483162 -0.108720
v 0.000119 0.417439 -0.267388
v 0.000119 0.417439 -0.267388
v 0.000119 0.417439 -0.267388
v 0.384119 0.263680 -0.421146
v 0.384119 0.263680 -0.421146
v 0.384119 0.263680 -0.421146
v 0.384119 0.105012 -0.486869
v 0.384119 0.105012 -0.486869
v 0.384119 0.105012 -0.486869
v 0.000119 0.263680 -0.421146
v 0.000119 0.263680 -0.421146
v 0.000119 0.263680 -0.421146
v 0.000119 0.105012 -0.486869
v 0.000119 0.105012 -0.486869
v 0.000119 0.105012 -0.486869
v 0.384119 -0.112435 -0.486869
v 0.384119 -0.112435 -0.486869
v 0.384119 -0.112435 -0.486869
v 0.384119 -0.271103 -0.421146
v 0.384119 -0.271103 -0.421146
v 0.384119 -0.271103 -0.421146
v 0.000119 -0.112435 -0.486869
v 0.000119 -0.112435 -0.486869
v 0.000119 -0.112435 -0.486869
v 0.000119 -0.271103 -0.421146
v 0.000119 -0.271103 -0.421146
v 0.000119 -0.271103 -0.421146
v 0.384119 -0.424862 -0.267388
v 0.384119 -0.424862 -0.267388
v 0.384119 -0.424862 -0.267388
v 0.384119 -0.490585 -0.108719
v 0.384119 -0.490585 -0.108719
v 0.384119 -0.490585 -0.108719
v 0.000119 -0.424862 -0.267388
v 0.000119 -0.424862 -0.267388
v 0.000119 -0.424862 -0.267388
v 0.000119 -0.490585 -0.108719
v 0.000119 -0.490585 -0.108719
v 0.000119 -0.490585 -0.108719
v 0.384119 -0.490586 0.108730
v 0.384119 -0.490586 0.108730
v 0.384119 -0.490586 0.108730
v 0.384119 -0.424863 0.267398
v 0.384119 -0.424863 0.267398
v 0.384119 -0.424863 0.267398
v 0.000119 -0.490586 0.108730
v 0.000119 -0.490586 0.108730
v 0.000119 -0.490586 0.108730
v 0.000119 -0.424863 0.267398
v 0.000119 -0.424863 0.267398
v 0.000119 -0.424863 0.267398
v 0.384119 -0.271103 0.421159
v 0.384119 -0.271103 0.421159
v 0.384119 -0.271103 0.421159
v 0.384119 -0.112435 0.486881
v 0.384119 -0.112435 0.486881
v 0.384119 -0.112435 0.486881
v 0.000119 -0.271103 0.421159
v 0.000119 -0.271103 0.421159
v 0.000119 -0.271103 0.421159
v 0.000119 -0.112435 0.486881
v 0.000119 -0.112435 0.486881
v 0.000119 -0.112435 0.486881
v 4.448116 0.700288 0.000005
v 4.448116 0.700288 0.000005
v 4.448116 0.700288 0.000005
v 4.448116 0.494091 -0.497798
v 4.448116 0.494091 -0.497798
v 4.448116 -0.501514 -0.497799
v 4.448116 -0.501514 -0.497799
v 4.448116 -0.707711 0.000004
v 4.448116 -0.707711 0.000004
v 4.448116 -0.707711 0.000004
v 4.448116 -0.003711 -0.703995
v 4.448116 -0.003711 -0.703995
v 4.448116 -0.003711 -0.703995
v 4.448116 -0.003712 0.704007
v 4.448116 -0.003712 0.704007
v 4.448116 -0.003712 0.704007
v 4.448116 0.494091 0.497810
v 4.448116 0.494091 0.497810
v 4.448116 -0.501514 0.497810
v 4.448116 -0.501514 0.497810
vn -0.0000 0.9011 -0.4335
vn -0.0000 -1.0000 -0.0000
vn -0.0000 -0.7071 -0.7071
vn -0.0000 1.0000 -0.0000
vn -0.0000 0.7071 0.7071
vn -0.0000 -0.0000 -1.0000
vn 0.0001 -0.0000 -1.0000
vn -0.0000 0.7071 -0.7071
vn -0.0000 -0.0000 1.0000
vn -0.0000 -0.7071 0.7071
vn -1.0000 0.0002 -0.0003
vn -1.0000 0.0002 -0.0005
vn -1.0000 0.0002 -0.0002
vn -1.0000 -0.0001 -0.0003
vn -1.0000 0.0002 -0.0004
vn -1.0000 -0.0005 -0.0002
vn -1.0000 -0.0003 0.0001
vn -1.0000 -0.0004 -0.0002
vn -1.0000 -0.0001 0.0004
vn -1.0000 -0.0002 0.0006
vn -1.0000 0.0001 0.0003
vn -1.0000 -0.0004 0.0004
vn -1.0000 -0.0002 0.0004
vn -1.0000 -0.0002 -0.0004
vn -1.0000 0.0001 -0.0003
vn -1.0000 -0.0003 -0.0001
vn -1.0000 -0.0001 0.0003
vn -1.0000 -0.0004 0.0002
vn -1.0000 0.0002 0.0005
vn -1.0000 0.0003 0.0001
vn -1.0000 0.0002 0.0004
vn -1.0000 0.0003 0.0002
vn -1.0000 0.0005 0.0002
vn -1.0000 0.0003 -0.0001
vn -1.0000 0.0004 0.0002
vn -1.0000 -0.0000 -0.0000
vn -0.0000 -0.4335 0.9011
vn -0.0000 0.4335 -0.9011
vn -0.0000 -0.3307 0.9438
vn -0.0000 -0.4335 -0.9011
vn -0.0000 -0.9011 0.4335
vn -0.0000 0.3307 -0.9438
vn -0.0000 0.4335 0.9011
vn -0.0000 0.9239 0.3827
vn -0.0000 0.9438 -0.3307
vn -0.0000 0.3827 0.9239
vn -0.0000 0.9011 0.4335
vn -0.0000 0.9239 -0.3827
vn -0.0000 0.9438 0.3306
vn -0.0000 0.3827 -0.9239
vn -0.0000 -0.3307 -0.9438
vn -0.0000 -0.3827 -0.9239
vn -0.0000 -0.9011 -0.4335
vn -0.0000 -0.9239 -0.3827
vn -0.0000 -0.9438 0.3306
vn -0.0000 -0.9239 0.3827
vn -0.0000 -0.9438 -0.3307
vn -0.0000 -0.3827 0.9239
vn -0.0000 0.3307 0.9438
vn -1.0000 0.0004 -0.0002
vn 1.0000 -0.0000 -0.0000
vt 0.710175 0.269102
vt 0.679603 0.269102
vt 0.679603 0.259931
vt 0.710175 0.259931
vt 0.484375 0.429688
vt 0.484375 0.390625
vt 0.733943 0.390625
vt 0.733943 0.429688
vt 0.733943 0.390625
vt 0.733943 0.429687
vt 0.484375 0.351562
vt 0.733943 0.351562
vt 0.733943 0.351562
vt 0.733943 0.390625
vt 0.733943 0.351563
vt 0.733943 0.351562
vt 0.733943 0.390625
vt 0.733943 0.429687
vt 0.558474 0.216562
vt 0.562899 0.225759
vt 0.578887 0.209771
vt 0.534785 0.191503
vt 0.534785 0.214114
vt 0.544417 0.210739
vt 0.497469 0.230186
vt 0.506666 0.225761
vt 0.490678 0.209773
vt 0.472410 0.253875
vt 0.495021 0.253875
vt 0.491646 0.244243
vt 0.511093 0.291191
vt 0.506668 0.281994
vt 0.490680 0.297982
vt 0.534782 0.316250
vt 0.534782 0.293639
vt 0.525150 0.297014
vt 0.525150 0.210739
vt 0.534782 0.214114
vt 0.534782 0.191503
vt 0.490680 0.209771
vt 0.506668 0.225759
vt 0.511093 0.216562
vt 0.491646 0.263510
vt 0.495021 0.253878
vt 0.472410 0.253878
vt 0.490678 0.297980
vt 0.506666 0.281992
vt 0.497469 0.277567
vt 0.544417 0.297014
vt 0.534785 0.293639
vt 0.534785 0.316250
vt 0.578887 0.297982
vt 0.562899 0.281994
vt 0.558474 0.291191
vt 0.572098 0.277567
vt 0.562901 0.281992
vt 0.578889 0.297980
vt 0.597157 0.253878
vt 0.574546 0.253878
vt 0.577921 0.263510
vt 0.576142 0.252030
vt 0.579190 0.241899
vt 0.572509 0.227612
vt 0.562780 0.223456
vt 0.557770 0.214136
vt 0.542943 0.208758
vt 0.574708 0.276678
vt 0.580084 0.261850
vt 0.546954 0.298100
vt 0.561237 0.291417
vt 0.565390 0.281687
vt 0.533125 0.212699
vt 0.522992 0.209649
vt 0.508704 0.216328
vt 0.512181 0.293613
vt 0.527008 0.298993
vt 0.536824 0.295051
vt 0.504549 0.226057
vt 0.495231 0.231065
vt 0.489855 0.245892
vt 0.490754 0.265844
vt 0.497440 0.280134
vt 0.507171 0.284292
vt 0.493799 0.255711
vt 0.679603 0.397168
vt 0.710175 0.397168
vt 0.710175 0.406340
vt 0.679603 0.406340
vt 0.710175 0.278274
vt 0.679603 0.278274
vt 0.710175 0.365152
vt 0.679603 0.365152
vt 0.679603 0.355980
vt 0.710175 0.355980
vt 0.710175 0.205070
vt 0.679603 0.205070
vt 0.679603 0.195898
vt 0.710175 0.195898
vt 0.679603 0.387996
vt 0.710175 0.387996
vt 0.710175 0.237086
vt 0.679603 0.237086
vt 0.679603 0.227914
vt 0.710175 0.227914
vt 0.710175 0.333135
vt 0.679603 0.333135
vt 0.679603 0.323964
vt 0.710175 0.323964
vt 0.679603 0.310291
vt 0.710175 0.310291
vt 0.679603 0.301119
vt 0.710175 0.301119
vt 0.679603 0.342307
vt 0.710175 0.342307
vt 0.679603 0.291947
vt 0.710175 0.291947
vt 0.679603 0.246258
vt 0.710175 0.246258
vt 0.679603 0.214242
vt 0.710175 0.214242
vt 0.679603 0.182225
vt 0.710175 0.182225
vt 0.679603 0.173053
vt 0.710175 0.173053
vt 0.679603 0.420013
vt 0.710175 0.420013
vt 0.710175 0.429184
vt 0.679603 0.429184
vt 0.679603 0.374323
vt 0.710175 0.374323
vt 0.577921 0.244243
vt 0.574546 0.253875
vt 0.597157 0.253875
vt 0.578889 0.209773
vt 0.562901 0.225761
vt 0.572098 0.230186
vt 0.579228 0.209623
vt 0.597548 0.253874
vt 0.579220 0.298133
vt 0.534984 0.316468
vt 0.490737 0.298133
vt 0.472384 0.253857
vt 0.490709 0.209609
vt 0.534971 0.191292
s 0
usemtl pistol_mp_1
f 66/1/1 8/2/1 123/3/1
f 66/1/1 123/3/1 129/4/1
s 1
f 38/5/2 33/6/3 187/7/3
f 38/5/2 187/7/3 189/8/2
f 40/5/4 44/6/5 198/9/5
f 40/5/4 198/9/5 182/10/4
f 33/6/3 48/11/6 192/12/7
f 33/6/3 192/12/7 187/7/3
f 55/6/8 41/11/4 183/13/4
f 55/6/8 183/13/4 185/14/8
f 44/6/5 52/11/9 196/15/9
f 44/6/5 196/15/9 198/9/5
f 58/6/10 39/11/2 190/16/2
f 58/6/10 190/16/2 200/17/10
f 47/5/6 55/6/8 185/14/8
f 47/5/6 185/14/8 193/18/6
f 51/5/9 58/6/10 200/17/10
f 51/5/9 200/17/10 195/18/9
f 121/19/11 5/20/12 56/21/13
s 0
f 50/22/14 10/23/14 124/24/14
s 1
f 124/24/15 121/19/11 56/21/13
s 0
f 56/21/15 50/22/15 124/24/15
s 1
f 145/25/14 13/26/16 34/27/16
s 0
f 37/28/17 26/29/17 148/30/17
f 148/30/18 145/25/18 34/27/18
f 34/27/18 37/28/18 148/30/18
s 1
f 169/31/19 30/32/20 60/33/20
f 53/34/21 21/35/21 172/36/22
s 0
f 172/36/23 169/31/23 60/33/23
f 60/33/23 53/34/23 172/36/23
f 133/37/24 9/38/25 49/39/25
s 1
f 35/40/24 14/41/24 136/42/26
s 0
f 136/42/24 133/37/24 49/39/24
f 49/39/24 35/40/24 136/42/24
f 157/43/26 25/44/26 36/45/26
f 59/46/27 29/47/27 160/48/27
f 160/48/28 157/43/28 36/45/28
f 36/45/28 59/46/28 160/48/28
f 97/49/27 22/50/27 54/51/27
s 1
f 45/52/29 17/53/29 100/54/30
s 0
f 100/54/31 97/49/31 54/51/31
f 54/51/31 45/52/31 100/54/31
s 1
f 85/55/32 18/56/33 46/57/32
s 0
f 42/58/34 2/59/34 88/60/34
s 1
f 88/60/35 85/55/32 46/57/32
f 46/57/32 42/58/35 88/60/35
s 0
f 82/61/36 91/62/36 94/63/36
f 61/64/36 115/65/36 118/66/36
f 82/61/36 94/63/36 61/64/36
f 103/67/36 106/68/36 82/61/36
f 175/69/36 178/70/36 79/71/36
f 79/71/36 103/67/36 82/61/36
f 82/61/36 61/64/36 118/66/36
f 64/72/36 127/73/36 130/74/36
f 82/61/36 118/66/36 64/72/36
f 175/69/36 79/71/36 82/61/36
f 163/75/36 166/76/36 76/77/36
f 76/77/36 175/69/36 82/61/36
f 82/61/36 64/72/36 130/74/36
f 67/78/36 139/79/36 142/80/36
f 82/61/36 130/74/36 67/78/36
f 163/75/36 76/77/36 82/61/36
f 151/81/36 154/82/36 73/83/36
f 73/83/36 163/75/36 82/61/36
f 82/61/36 67/78/36 142/80/36
f 70/84/36 151/81/36 73/83/36
f 82/61/36 142/80/36 70/84/36
f 82/61/36 70/84/36 73/83/36
s 1
f 32/85/37 78/86/37 168/87/37
f 32/85/37 168/87/37 162/88/37
s 0
f 7/2/38 65/1/38 119/89/38
f 7/2/38 119/89/38 113/90/38
f 80/91/39 23/92/39 98/93/39
s 1
f 80/91/39 98/93/39 104/94/39
s 0
f 72/95/40 16/96/40 147/97/40
f 72/95/40 147/97/40 153/98/40
f 77/86/41 31/85/41 170/99/41
f 77/86/41 170/99/41 176/100/41
f 69/101/42 12/102/42 135/103/42
f 69/101/42 135/103/42 141/104/42
s 1
f 83/105/43 19/106/43 86/107/43
s 0
f 83/105/43 86/107/43 92/108/43
f 87/107/44 89/109/44 95/110/44
f 87/107/44 95/110/44 93/108/44
f 4/111/45 63/112/45 96/110/45
f 4/111/45 96/110/45 90/109/45
f 99/93/46 101/113/46 107/114/46
f 99/93/46 107/114/46 105/94/46
f 20/106/47 84/105/47 108/114/47
f 20/106/47 108/114/47 102/113/47
s 1
f 111/115/48 114/90/48 120/89/48
s 0
f 111/115/48 120/89/48 117/116/48
s 1
f 62/112/49 3/111/49 110/115/49
f 62/112/49 110/115/49 116/116/49
s 0
f 122/3/50 126/117/50 132/118/50
f 122/3/50 132/118/50 128/4/50
f 11/102/51 68/101/51 131/118/51
f 11/102/51 131/118/51 125/117/51
f 134/103/52 138/119/52 144/120/52
f 134/103/52 144/120/52 140/104/52
f 15/96/53 71/95/53 143/120/53
f 15/96/53 143/120/53 137/119/53
f 146/97/54 150/121/54 156/122/54
f 146/97/54 156/122/54 152/98/54
f 28/123/55 75/124/55 155/122/55
f 28/123/55 155/122/55 149/121/55
s 1
f 158/125/56 161/88/56 167/87/56
f 158/125/56 167/87/56 164/126/56
s 0
f 74/127/57 27/128/57 159/125/57
f 74/127/57 159/125/57 165/126/57
f 171/99/58 173/129/58 179/130/58
f 171/99/58 179/130/58 177/100/58
f 24/92/59 81/91/59 180/130/59
f 24/92/59 180/130/59 174/129/59
s 1
f 109/131/60 1/132/30 43/133/30
s 0
f 57/134/25 6/135/25 112/136/25
f 112/136/60 109/131/60 43/133/60
s 1
f 43/133/60 57/134/60 112/136/60
s 0
f 181/137/61 197/138/61 194/139/61
f 194/139/61 199/140/61 188/141/61
f 188/141/61 186/142/61 191/143/61
f 191/143/61 184/144/61 181/137/61
f 181/137/61 194/139/61 188/141/61
f 188/141/61 191/143/61 181/137/61
