# Blender 4.5.3 LTS
# www.blender.org
mtllib keycard_1_2.mtl
o keycard_1_2
v -2.188708 0.057600 1.247991
v -2.188708 0.057600 1.247991
v -2.188708 0.057600 1.247991
v -2.092708 0.057600 1.343991
v -2.092708 0.057600 1.343991
v -2.092708 0.057600 1.343991
v 1.939105 0.057600 1.343991
v 1.939105 0.057600 1.343991
v 1.939105 0.057600 1.343991
v 2.035105 0.057600 1.247991
v 2.035105 0.057600 1.247991
v 2.035105 0.057600 1.247991
v -2.092708 0.057600 -1.382407
v -2.092708 0.057600 -1.382407
v -2.092708 0.057600 -1.382407
v -2.188708 0.057600 -1.286407
v -2.188708 0.057600 -1.286407
v -2.188708 0.057600 -1.286407
v 2.035105 0.057600 -1.286407
v 2.035105 0.057600 -1.286407
v 2.035105 0.057600 -1.286407
v 1.939105 0.057600 -1.382407
v 1.939105 0.057600 -1.382407
v 1.939105 0.057600 -1.382407
v -2.188708 0.000000 -1.286407
v -2.188708 0.000000 -1.286407
v -2.188708 0.000000 -1.286407
v -2.092708 0.000000 -1.382407
v -2.092708 0.000000 -1.382407
v -2.092708 0.000000 -1.382407
v -2.092708 0.000000 1.343991
v -2.092708 0.000000 1.343991
v -2.092708 0.000000 1.343991
v -2.188708 0.000000 1.247991
v -2.188708 0.000000 1.247991
v -2.188708 0.000000 1.247991
v 2.035105 0.000000 1.247991
v 2.035105 0.000000 1.247991
v 2.035105 0.000000 1.247991
v 1.939105 0.000000 1.343991
v 1.939105 0.000000 1.343991
v 1.939105 0.000000 1.343991
v 1.939105 0.000000 -1.382407
v 1.939105 0.000000 -1.382407
v 1.939105 0.000000 -1.382407
v 2.035105 0.000000 -1.286407
v 2.035105 0.000000 -1.286407
v 2.035105 0.000000 -1.286407
vn -0.0000 -0.0000 -1.0000
vn -0.0000 -0.0000 1.0000
vn 1.0000 -0.0000 -0.0000
vn -0.0000 -1.0000 -0.0000
vn -0.0000 1.0000 -0.0000
vn -0.7071 -0.0000 -0.7071
vn 0.7071 -0.0000 -0.7071
vn 0.7071 -0.0000 0.7071
vn -0.7071 -0.0000 0.7071
vn -1.0000 -0.0000 -0.0000
vt 0.601829 0.339844
vt 0.601829 0.335938
vt 0.448953 0.335938
vt 0.448953 0.339844
vt 0.448953 0.335938
vt 0.448953 0.339844
vt 0.472876 0.339844
vt 0.472876 0.335938
vt 0.581811 0.335938
vt 0.581811 0.339844
vt 0.448953 0.343750
vt 0.601829 0.343750
vt 0.605469 0.347464
vt 0.605469 0.445505
vt 0.601829 0.449219
vt 0.448953 0.449219
vt 0.445312 0.445505
vt 0.445312 0.347464
vt 0.445312 0.550974
vt 0.445312 0.452932
vt 0.605469 0.452932
vt 0.605469 0.550974
vt 0.601829 0.554688
vt 0.448953 0.554688
vt 0.445312 0.335938
vt 0.445312 0.339844
vt 0.585938 0.335938
vt 0.585938 0.339844
vt 0.468750 0.339844
vt 0.468750 0.335938
vt 0.472876 0.335938
vt 0.472876 0.339844
s 0
usemtl keys_mp_1
f 24/1/1 45/2/1 29/3/1
f 24/1/1 29/3/1 15/4/1
f 32/5/2 42/2/2 9/1/2
f 32/5/2 9/1/2 5/6/2
f 11/7/3 39/8/3 48/9/3
f 11/7/3 48/9/3 20/10/3
f 40/11/4 33/12/4 36/13/4
f 36/13/4 27/14/4 30/15/4
f 30/15/4 43/16/4 46/17/4
f 46/17/4 37/18/4 40/11/4
f 40/11/4 36/13/4 30/15/4
f 30/15/4 46/17/4 40/11/4
f 16/19/5 1/20/5 6/16/5
f 6/16/5 8/15/5 12/21/5
f 12/21/5 21/22/5 23/23/5
f 23/23/5 13/24/5 16/19/5
f 16/19/5 6/16/5 12/21/5
f 12/21/5 23/23/5 16/19/5
f 25/25/6 17/26/6 14/4/6
f 25/25/6 14/4/6 28/3/6
f 19/10/7 47/9/7 44/27/7
f 19/10/7 44/27/7 22/28/7
f 38/8/8 10/7/8 7/29/8
f 38/8/8 7/29/8 41/30/8
f 2/26/9 34/25/9 31/5/9
f 2/26/9 31/5/9 4/6/9
f 26/9/10 35/31/10 3/32/10
f 26/9/10 3/32/10 18/10/10
