# Blender 4.5.3 LTS
# www.blender.org
mtllib ammo_box_mp_5.mtl
o ammo_box_mp_5
v -3.200492 3.111931 -1.518400
v -3.200492 3.111931 -1.518400
v -3.200492 3.111931 -1.518400
v -3.200492 3.111931 -1.518400
v -3.242129 0.000000 1.560001
v -3.242129 0.000000 1.560001
v -3.242129 0.000000 1.560001
v -3.200529 3.111930 1.518401
v -3.200529 3.111930 1.518401
v -3.200529 3.111930 1.518401
v -3.200529 3.111930 1.518401
v -3.242092 -0.000000 -1.560000
v -3.242092 -0.000000 -1.560000
v -3.242092 -0.000000 -1.560000
v 3.200628 3.111931 -1.518401
v 3.200628 3.111931 -1.518401
v 3.200628 3.111931 -1.518401
v 3.200628 3.111931 -1.518401
v 3.242228 -0.000000 -1.560000
v 3.242228 -0.000000 -1.560000
v 3.242228 -0.000000 -1.560000
v 3.200628 3.111931 1.518400
v 3.200628 3.111931 1.518400
v 3.200628 3.111931 1.518400
v 3.200628 3.111931 1.518400
v 3.242228 0.000000 1.560000
v 3.242228 0.000000 1.560000
v 3.242228 0.000000 1.560000
v 4.074227 3.536001 -1.560001
v 4.074227 3.536001 -1.560001
v 4.074228 3.536001 1.560000
v 4.074228 3.536001 1.560000
v -4.074092 3.536001 -1.560000
v -4.074092 3.536001 -1.560000
v -4.074129 3.536000 1.560001
v -4.074129 3.536000 1.560001
v -3.242092 5.599102 -3.020387
v -3.242092 5.599102 -3.020387
v -3.242092 5.599102 -3.020387
v -3.242092 5.599102 -3.020387
v 3.242227 5.599102 -3.020388
v 3.242227 5.599102 -3.020388
v 3.242227 5.599102 -3.020388
v 3.242227 5.599102 -3.020388
v 4.490227 3.744001 -1.144001
v 4.490227 3.744001 -1.144001
v 4.490228 3.744001 1.144000
v 4.490228 3.744001 1.144000
v -4.490117 3.744000 1.144001
v -4.490117 3.744000 1.144001
v -4.490105 3.744001 -1.143999
v -4.490105 3.744001 -1.143999
v -2.827852 5.922674 -2.814478
v -2.827852 5.922674 -2.814478
v 2.827988 5.922674 -2.814478
v 2.827988 5.922674 -2.814478
v 3.242350 3.157209 1.560000
v 3.242350 3.157209 1.560000
v 3.242350 3.157209 1.560000
v 4.471624 3.781209 1.144000
v 4.471624 3.781209 1.144000
v 4.055624 3.573209 1.560000
v 4.055624 3.573209 1.560000
v 4.055623 3.573209 -1.560001
v 4.055623 3.573209 -1.560001
v 4.471623 3.781209 -1.144001
v 4.471623 3.781209 -1.144001
v -3.242092 3.157210 -1.560000
v -3.242092 3.157210 -1.560000
v -3.242092 3.157210 -1.560000
v -3.242092 3.157210 -1.560000
v -3.242092 3.157210 -1.560000
v -3.242092 3.157210 -1.560000
v 3.242228 3.157210 -1.560001
v 3.242228 3.157210 -1.560001
v 3.242228 3.157210 -1.560001
v 3.242228 3.157210 -1.560001
v 3.242228 3.157210 -1.560001
v 3.242228 3.157210 -1.560001
v -3.242251 3.157209 1.560001
v -3.242251 3.157209 1.560001
v -3.242251 3.157209 1.560001
v -4.471501 3.781209 -1.143999
v -4.471501 3.781209 -1.143999
v -4.055488 3.573209 -1.559999
v -4.055488 3.573209 -1.559999
v -4.055525 3.573209 1.560001
v -4.055525 3.573209 1.560001
v -4.471513 3.781209 1.144001
v -4.471513 3.781209 1.144001
v 2.827988 5.900341 -2.779382
v 2.827988 5.900341 -2.779382
v 3.242227 5.598731 -2.963330
v 3.242227 5.598731 -2.963330
v 3.242227 5.598731 -2.963330
v 3.242227 5.598731 -2.963330
v -3.242092 5.598731 -2.963328
v -3.242092 5.598731 -2.963328
v -3.242092 5.598731 -2.963328
v -3.242092 5.598731 -2.963328
v -2.827852 5.900341 -2.779382
v -2.827852 5.900341 -2.779382
v -3.242091 4.196537 -2.303652
v -3.242091 4.196537 -2.303652
v 3.242227 4.196537 -2.303653
v 3.242227 4.196537 -2.303653
v -3.242091 4.212550 -2.261671
v -3.242091 4.212550 -2.261671
v 3.242227 4.212550 -2.261672
v 3.242227 4.212550 -2.261672
v -3.242092 3.509239 -1.929604
v -3.242092 3.509239 -1.929604
v -3.242092 3.530429 -1.894108
v -3.242092 3.530429 -1.894108
v 3.242227 3.509239 -1.929605
v 3.242227 3.509239 -1.929605
v 3.242227 3.530429 -1.894109
v 3.242227 3.530429 -1.894109
v 3.242227 4.916732 -2.636468
v 3.242227 4.916732 -2.636468
v 3.242227 4.935160 -2.589621
v 3.242227 4.935160 -2.589621
v -3.242091 4.916732 -2.636467
v -3.242091 4.916732 -2.636467
v -3.242091 4.935160 -2.589620
v -3.242091 4.935160 -2.589620
v -3.242129 3.111930 1.560000
v -3.242129 3.111930 1.560000
v -3.242129 3.111930 1.560000
v -3.242129 3.111930 1.560000
v -3.242129 3.111930 1.560000
v -3.242129 3.111930 1.560000
v -3.242129 3.111930 1.560000
v -3.242092 3.111931 -1.560000
v -3.242092 3.111931 -1.560000
v -3.242092 3.111931 -1.560000
v -3.242092 3.111931 -1.560000
v -3.242092 3.111931 -1.560000
v -3.242092 3.111931 -1.560000
v -3.242092 3.111931 -1.560000
v -3.242092 3.111931 -1.560000
v -3.242092 3.111931 -1.560000
v -3.242092 3.111931 -1.560000
v 3.242228 3.111931 -1.560001
v 3.242228 3.111931 -1.560001
v 3.242228 3.111931 -1.560001
v 3.242228 3.111931 -1.560001
v 3.242228 3.111931 -1.560001
v 3.242228 3.111931 -1.560001
v 3.242228 3.111931 -1.560001
v 3.242228 3.111931 -1.560001
v 3.242228 3.111931 -1.560001
v 3.242228 3.111931 -1.560001
v 3.242228 3.111931 1.560000
v 3.242228 3.111931 1.560000
v 3.242228 3.111931 1.560000
v 3.242228 3.111931 1.560000
v 3.242228 3.111931 1.560000
v 3.242228 3.111931 1.560000
v 3.242228 3.111931 1.560000
v -3.200529 2.903930 1.518401
v -3.200529 2.903930 1.518401
v -3.200492 2.903930 -1.518400
v -3.200492 2.903930 -1.518400
v 3.200628 2.903930 -1.518401
v 3.200628 2.903930 -1.518401
v 3.200628 2.903930 1.518400
v 3.200628 2.903930 1.518400
v -3.200515 2.911874 -1.518403
v -3.200552 2.911874 1.518401
v 3.200333 2.911874 -1.518404
v 3.200334 2.911874 1.518400
v -3.120191 2.912000 1.253711
v -3.120191 2.912000 -1.253712
v 3.036719 2.912000 -1.253712
v 3.036719 2.912000 1.253711
v -2.662524 2.912000 1.253711
v -2.662524 2.912000 1.253711
v -2.662524 2.912000 -1.253712
v -2.662524 2.912000 -1.253712
v -2.080127 2.912000 1.253711
v -2.080127 2.912000 1.253711
v -2.080127 2.912000 -1.253712
v -2.080127 2.912000 -1.253712
v -1.664356 2.912000 1.253711
v -1.664356 2.912000 1.253711
v -1.664356 2.912000 -1.253712
v -1.664356 2.912000 -1.253712
v -1.248267 2.912000 1.253711
v -1.248267 2.912000 1.253711
v -1.248267 2.912000 -1.253712
v -1.248267 2.912000 -1.253712
v -0.707446 2.912000 1.253711
v -0.707446 2.912000 1.253711
v -0.707446 2.912000 -1.253712
v -0.707446 2.912000 -1.253712
v -0.125049 2.912000 1.253711
v -0.125049 2.912000 1.253711
v -0.125049 2.912000 -1.253712
v -0.125049 2.912000 -1.253712
v 0.415772 2.912000 1.253711
v 0.415772 2.912000 1.253711
v 0.415772 2.912000 -1.253712
v 0.415772 2.912000 -1.253712
v 0.915015 2.912000 1.253711
v 0.915015 2.912000 1.253711
v 0.915015 2.912000 -1.253712
v 0.915015 2.912000 -1.253712
v 1.580567 2.912000 1.253711
v 1.580567 2.912000 1.253711
v 1.580567 2.912000 -1.253712
v 1.580567 2.912000 -1.253712
v 2.246118 2.912000 1.253711
v 2.246118 2.912000 1.253711
v 2.246118 2.912000 -1.253712
v 2.246118 2.912000 -1.253712
v 2.644434 2.912000 1.253711
v 2.644434 2.912000 1.253711
v 2.644434 2.912000 -1.253712
v 2.644434 2.912000 -1.253712
v -2.870728 2.912000 1.488781
v -2.371485 2.912000 1.488781
v -1.872241 2.912000 1.488781
v -1.456152 2.912000 1.488781
v -0.956909 2.912000 1.488781
v -0.416089 2.912000 1.488781
v 0.166309 2.912000 1.488781
v 0.665234 2.912000 1.488781
v 1.247632 2.912000 1.488781
v 1.913501 2.912000 1.488781
v 2.454321 2.912000 1.488781
v 2.840576 2.912000 1.449604
v -2.870728 2.912000 -1.449604
v -2.371485 2.912000 -1.449604
v -1.872241 2.912000 -1.449604
v -1.456152 2.912000 -1.449604
v -0.956909 2.912000 -1.449604
v -0.416089 2.912000 -1.488784
v 0.166309 2.912000 -1.488784
v 0.665234 2.912000 -1.488784
v 1.247632 2.912000 -1.488784
v 1.913501 2.912000 -1.488784
v 2.454321 2.912000 -1.488784
v 2.840576 2.912000 -1.488784
v -2.870728 3.078400 1.253711
v -2.870728 3.078400 -1.253712
v -2.371485 3.078400 1.253711
v -2.371485 3.078400 -1.253712
v -1.872241 3.078400 1.253711
v -1.872241 3.078400 -1.253712
v -1.456152 3.078400 1.253711
v -1.456152 3.078400 -1.253712
v -0.956909 3.078400 1.253711
v -0.956909 3.078400 -1.253712
v -0.416089 3.078400 1.253711
v -0.416089 3.078400 -1.253712
v 0.166309 3.078400 1.253711
v 0.166309 3.078400 -1.253712
v 0.665234 3.078400 1.253711
v 0.665234 3.078400 -1.253712
v 1.247632 3.078400 1.253711
v 1.247632 3.078400 -1.253712
v 1.913501 3.078400 1.253711
v 1.913501 3.078400 -1.253712
v 2.454321 3.078400 1.253711
v 2.454321 3.078400 -1.253712
v 2.840576 3.078400 1.253711
v 2.840576 3.078400 -1.253712
vn -1.0000 -0.0000 -0.0000
vn -0.0000 -0.0000 -1.0000
vn 1.0000 -0.0000 -0.0000
vn -0.0000 -0.0000 1.0000
vn -0.0000 -1.0000 -0.0000
vn 0.3184 0.1592 0.9345
vn 0.8165 0.4082 0.4082
vn 0.8165 0.4082 0.4083
vn 0.3201 0.1600 0.9338
vn 1.0000 0.0014 -0.0000
vn 1.0000 0.0013 -0.0000
vn 0.6455 0.7416 0.1827
vn 0.3477 0.8537 0.3876
vn 0.3491 0.8535 0.3868
vn -0.8165 0.4083 0.4082
vn -0.3184 0.1592 0.9345
vn -0.3201 0.1600 0.9338
vn -0.4525 0.8918 -0.0000
vn -0.4525 0.8917 -0.0000
vn -0.4472 0.8944 -0.0000
vn -0.4554 0.8903 -0.0000
vn 0.8165 0.4082 -0.4083
vn 0.3184 0.1592 -0.9345
vn 0.3201 0.1600 -0.9338
vn 0.8165 0.4082 -0.4082
vn -1.0000 0.0013 -0.0000
vn -1.0000 0.0014 -0.0000
vn -0.0000 0.4524 0.8918
vn -0.0000 0.4907 0.8713
vn 0.4525 0.8917 -0.0000
vn 0.4525 0.8918 -0.0000
vn 0.4472 0.8944 -0.0000
vn 0.4554 0.8903 -0.0000
vn 0.4553 0.8903 -0.0000
vn -0.3184 0.1592 -0.9345
vn -0.3201 0.1600 -0.9338
vn -0.8165 0.4082 -0.4082
vn -0.8165 0.4082 -0.4083
vn -0.0000 -0.5207 0.8537
vn -0.3477 0.8538 0.3876
vn -0.6456 0.7416 0.1827
vn -0.6456 0.7415 0.1827
vn -0.3490 0.8536 0.3868
vn -0.0000 0.5369 -0.8437
vn -0.0000 -0.4553 -0.8903
vn -0.0000 -0.4903 -0.8715
vn -0.4521 -0.8920 -0.0000
vn -0.4517 -0.8922 0.0002
vn -0.4520 -0.8920 -0.0000
vn 0.4520 -0.8920 -0.0000
vn 0.4517 -0.8922 -0.0002
vn 0.4521 -0.8920 -0.0000
vn -0.0000 -0.5842 -0.8116
vn -0.0000 -0.4490 -0.8935
vn -0.0000 0.5747 0.8184
vn -0.0000 0.4441 0.8960
vn -0.0000 0.6670 0.7451
vn -0.0000 -0.6811 -0.7322
vn -0.0000 1.0000 -0.0000
vn -0.3392 0.8933 -0.2950
vn -0.3392 0.8933 0.2950
vn 0.3412 0.8984 0.2767
vn 0.3412 0.8984 -0.2767
vn 0.5335 0.8257 -0.1830
vn -0.0000 0.9478 -0.3187
vn 0.0047 0.9887 -0.1499
vn 0.0038 0.9464 0.3229
vn 0.5865 0.7871 0.1909
vn 0.0191 0.9875 0.1563
vn 0.0001 0.9450 0.3271
vn 0.3901 0.9116 0.1292
vn 0.0002 0.9868 0.1617
vn -0.0001 0.9459 0.3244
vn 0.4131 0.8970 0.1573
vn -0.0002 0.9874 0.1583
vn -0.0001 0.9450 0.3272
vn 0.4764 0.8568 0.1975
vn -0.0003 0.9867 0.1624
vn 0.0073 0.9455 0.3256
vn 0.4910 0.8566 0.1588
vn 0.0297 0.9867 0.1598
vn 0.0001 0.9455 0.3257
vn 0.4437 0.8816 0.1608
vn 0.0004 0.9871 0.1600
vn 0.4977 0.8487 0.1790
vn -0.0000 0.9462 0.3235
vn 0.5528 0.8120 0.1875
vn 0.0002 0.9876 0.1572
vn -0.0000 0.9449 0.3272
vn 0.5349 0.8248 0.1833
vn -0.0000 0.9865 0.1637
vn -0.0001 0.9448 0.3275
vn 0.4212 0.8978 0.1284
vn 0.0079 0.9474 0.3200
vn 0.5714 0.8019 0.1744
vn 0.0365 0.9877 0.1520
vn 0.5865 0.7871 -0.1909
vn 0.0038 0.9464 -0.3228
vn 0.0210 0.9875 -0.1563
vn 0.3901 0.9117 -0.1292
vn -0.0000 0.9450 -0.3271
vn -0.0033 0.9868 -0.1617
vn 0.4131 0.8970 -0.1573
vn -0.0001 0.9459 -0.3244
vn -0.0018 0.9874 -0.1583
vn 0.4764 0.8568 -0.1975
vn -0.0044 0.9867 -0.1625
vn 0.4910 0.8566 -0.1588
vn 0.0073 0.9455 -0.3257
vn 0.0296 0.9867 -0.1597
vn 0.4437 0.8816 -0.1608
vn -0.0000 0.9455 -0.3257
vn -0.0024 0.9871 -0.1600
vn 0.4959 0.8460 -0.1957
vn 0.0101 0.9131 -0.4075
vn 0.0319 0.9804 -0.1947
vn 0.5500 0.8093 -0.2064
vn 0.0001 0.9146 -0.4044
vn 0.0029 0.9815 -0.1912
vn 0.5323 0.8223 -0.2014
vn -0.0000 0.9130 -0.4080
vn -0.0018 0.9803 -0.1977
vn 0.4213 0.8958 -0.1419
vn -0.0001 0.9123 -0.4096
vn -0.0020 0.9803 -0.1977
vn 0.5691 0.7989 -0.1945
vn 0.0114 0.9158 -0.4014
vn 0.0451 0.9814 -0.1863
vn -0.0000 0.9169 0.3991
vn -0.0082 0.9829 0.1838
vn -0.5812 0.7926 0.1845
vn -0.4396 0.8779 -0.1898
vn -0.4380 0.8797 -0.1849
vn -0.5292 0.8213 -0.2130
vn -0.5424 0.8217 -0.1747
vn -0.4319 0.8872 -0.1624
vn -0.4433 0.8818 -0.1608
vn -0.4393 0.8822 -0.1695
vn -0.4828 0.8573 -0.1790
vn -0.3942 0.9106 -0.1238
vn -0.4068 0.8976 -0.1700
vn -0.5834 0.7955 -0.1639
vn -0.5491 0.8117 -0.1990
vn -0.4414 0.8798 0.1762
vn -0.4391 0.8820 0.1710
vn -0.5323 0.8237 0.1953
vn -0.5441 0.8244 0.1558
vn -0.4323 0.8894 0.1485
vn -0.4433 0.8818 0.1608
vn -0.4393 0.8822 0.1695
vn -0.4827 0.8573 0.1790
vn -0.3942 0.9106 0.1238
vn -0.4068 0.8976 0.1700
vn -0.5491 0.8117 0.1990
vn 0.5305 0.8236 0.2008
vt 0.917969 0.837891
vt 1.000000 0.837891
vt 1.000000 0.919710
vt 0.917969 0.919710
vt 0.750000 0.837891
vt 0.750000 0.919710
vt 0.917969 0.919710
vt 1.000000 0.919710
vt 0.750000 0.675781
vt 0.917969 0.675781
vt 0.917969 0.757600
vt 0.750000 0.757600
vt 0.750000 0.757812
vt 0.917969 0.757812
vt 0.795526 0.998863
vt 0.873888 0.998863
vt 0.873888 1.000000
vt 0.795526 1.000000
vt 0.750000 0.675781
vt 1.000000 0.908203
vt 0.917969 0.908203
vt 0.929688 0.919922
vt 0.988281 0.919922
vt 1.000000 0.880859
vt 0.917969 0.880859
vt 0.750000 0.675781
vt 0.750000 0.980469
vt 0.917969 0.980469
vt 0.917969 1.000000
vt 0.750000 1.000000
vt 0.753278 0.998863
vt 0.916137 0.998863
vt 0.916137 1.000000
vt 0.753278 1.000000
vt 0.750000 0.675781
vt 0.750000 0.675781
vt 0.917969 0.990234
vt 0.750000 0.990234
vt 0.759766 1.000000
vt 0.908203 1.000000
vt 1.000010 0.881168
vt 0.917958 0.881169
vt 0.917958 0.881168
vt 1.000010 0.881168
vt 0.750000 0.939453
vt 0.750000 0.958984
vt 0.917969 0.958984
vt 0.917969 0.939453
vt 0.750000 0.919922
vt 0.917969 0.919922
vt 0.750000 0.920189
vt 0.917969 0.920189
vt 0.916016 0.917969
vt 0.916016 0.912109
vt 0.750000 0.912109
vt 0.750000 0.917969
vt 0.751953 0.998047
vt 0.751953 0.921875
vt 0.916016 0.921875
vt 0.916016 0.998047
vt 0.794922 0.917969
vt 0.794922 0.912109
vt 0.871094 0.912109
vt 0.871094 0.917969
vt 0.919062 0.836843
vt 0.998906 0.836843
vt 0.998906 0.676821
vt 0.919062 0.676821
vt 0.992819 0.834284
vt 0.998055 0.829031
vt 0.991864 0.828989
vt 0.919804 0.818248
vt 0.925990 0.823058
vt 0.926096 0.818276
vt 0.919685 0.804644
vt 0.926108 0.812409
vt 0.926037 0.804644
vt 0.919685 0.788087
vt 0.926109 0.796825
vt 0.926036 0.788088
vt 0.919748 0.773443
vt 0.926106 0.779377
vt 0.926067 0.773444
vt 0.919729 0.760761
vt 0.926103 0.767542
vt 0.926067 0.760745
vt 0.919711 0.746596
vt 0.926105 0.753899
vt 0.926050 0.746596
vt 0.919729 0.732528
vt 0.926104 0.739321
vt 0.926066 0.732512
vt 0.919799 0.720400
vt 0.926106 0.725697
vt 0.926085 0.720413
vt 0.919799 0.709027
vt 0.926107 0.713905
vt 0.926090 0.709027
vt 0.919711 0.697348
vt 0.926106 0.704085
vt 0.926049 0.697348
vt 0.919793 0.684548
vt 0.926104 0.690633
vt 0.926101 0.684534
vt 0.992010 0.823060
vt 0.998165 0.818248
vt 0.991874 0.818277
vt 0.991860 0.812409
vt 0.998284 0.804644
vt 0.991932 0.804644
vt 0.991860 0.796825
vt 0.998284 0.788088
vt 0.991932 0.788088
vt 0.991863 0.779377
vt 0.998221 0.773443
vt 0.991902 0.773444
vt 0.991866 0.767543
vt 0.998240 0.760761
vt 0.991902 0.760745
vt 0.991864 0.753899
vt 0.998257 0.746596
vt 0.991919 0.746596
vt 0.991837 0.739322
vt 0.998142 0.732535
vt 0.991843 0.732518
vt 0.991805 0.725700
vt 0.998050 0.720417
vt 0.991817 0.720423
vt 0.991797 0.713902
vt 0.998045 0.709027
vt 0.991810 0.709027
vt 0.991805 0.704081
vt 0.998167 0.697348
vt 0.991863 0.697348
vt 0.991808 0.690637
vt 0.998065 0.684591
vt 0.991798 0.684566
vt 0.920057 0.828970
vt 0.926181 0.828942
vt 0.992590 0.677937
vt 0.925507 0.677894
vt 0.924920 0.834218
s 0
usemtl ammo_mp_1
f 12/1/1 7/2/1 133/3/1
f 12/1/1 133/3/1 141/4/1
s 1
f 19/5/2 13/1/2 142/4/2
f 19/5/2 142/4/2 144/6/2
s 0
f 21/1/3 152/7/3 160/8/3
f 21/1/3 160/8/3 28/2/3
f 5/9/4 27/10/4 159/11/4
f 5/9/4 159/11/4 127/12/4
f 14/1/5 20/5/5 26/13/5
f 14/1/5 26/13/5 6/14/5
s 1
f 31/9/6 47/9/7 60/9/8
f 31/9/6 60/9/8 62/9/9
f 131/15/10 140/16/11 72/17/11
f 131/15/10 72/17/11 81/18/10
f 41/9/12 55/9/13 91/9/14
f 41/9/12 91/9/14 94/9/12
s 0
f 119/9/3 42/9/3 95/9/3
f 119/9/3 95/9/3 121/9/3
s 1
f 49/9/15 35/9/16 87/9/17
f 49/9/15 87/9/17 89/9/15
f 154/19/4 31/9/6 62/9/9
f 154/19/4 62/9/9 57/9/4
f 65/20/18 63/21/19 61/22/20
f 65/20/18 61/22/20 67/23/20
f 79/24/21 59/25/21 63/21/19
f 79/24/21 63/21/19 65/20/18
f 45/9/22 29/9/23 64/9/24
f 45/9/22 64/9/24 66/9/25
f 29/9/23 146/26/2 74/9/2
f 29/9/23 74/9/2 64/9/24
f 47/9/7 45/9/22 66/9/25
f 47/9/7 66/9/25 60/9/8
f 147/16/26 155/15/27 58/18/27
f 147/16/26 58/18/27 76/17/26
f 125/27/28 122/28/28 96/29/29
f 125/27/28 96/29/29 97/30/29
s 0
f 139/31/4 148/32/4 77/33/4
f 139/31/4 77/33/4 71/34/4
f 112/9/1 138/35/1 69/9/1
f 112/9/1 69/9/1 114/9/1
s 1
f 88/21/30 86/20/31 84/23/32
f 88/21/30 84/23/32 90/22/32
f 82/25/33 73/24/34 86/20/31
f 82/25/33 86/20/31 88/21/30
f 137/9/2 33/9/35 85/9/36
f 137/9/2 85/9/36 70/9/2
f 33/9/35 51/9/37 83/9/38
f 33/9/35 83/9/38 85/9/36
f 51/9/37 49/9/15 89/9/15
f 51/9/37 89/9/15 83/9/38
f 35/9/16 130/36/4 80/9/4
f 35/9/16 80/9/4 87/9/17
s 0
f 100/37/39 93/38/39 92/39/39
f 100/37/39 92/39/39 102/40/39
s 1
f 53/9/40 40/9/41 99/9/42
f 53/9/40 99/9/42 101/9/43
f 55/9/13 53/9/40 101/9/43
f 55/9/13 101/9/43 91/9/14
s 0
f 56/40/44 44/37/44 38/38/44
f 56/40/44 38/38/44 54/39/44
s 1
f 123/27/45 37/30/46 43/29/46
f 123/27/45 43/29/46 120/28/45
f 143/41/47 132/42/47 36/21/48
f 36/21/48 50/22/49 52/23/49
f 52/23/49 34/20/49 143/41/47
f 36/21/48 52/23/49 143/41/47
f 156/43/50 153/44/50 30/20/51
f 30/20/51 46/23/52 48/22/50
f 48/22/50 32/21/50 156/43/50
f 30/20/51 48/22/50 156/43/50
f 111/45/53 103/46/54 106/47/54
f 111/45/53 106/47/54 116/48/53
s 0
f 124/9/1 104/9/1 108/9/1
f 124/9/1 108/9/1 126/9/1
s 1
f 113/45/55 118/48/55 110/47/56
f 113/45/55 110/47/56 107/46/56
s 0
f 115/9/3 105/9/3 109/9/3
f 115/9/3 109/9/3 117/9/3
f 145/9/3 115/9/3 117/9/3
f 145/9/3 117/9/3 75/9/3
s 1
f 68/49/57 78/50/57 118/48/55
f 68/49/57 118/48/55 113/45/55
f 136/51/58 111/45/53 116/48/53
f 136/51/58 116/48/53 149/52/58
s 0
f 104/9/1 112/9/1 114/9/1
f 104/9/1 114/9/1 108/9/1
f 39/9/1 124/9/1 126/9/1
f 39/9/1 126/9/1 98/9/1
s 1
f 103/46/54 123/27/45 120/28/45
f 103/46/54 120/28/45 106/47/54
f 107/46/56 110/47/56 122/28/28
f 107/46/56 122/28/28 125/27/28
s 0
f 105/9/3 119/9/3 121/9/3
f 105/9/3 121/9/3 109/9/3
f 25/53/2 168/54/2 161/55/2
f 25/53/2 161/55/2 8/56/2
f 2/57/59 134/30/59 128/49/59
f 2/57/59 128/49/59 9/58/59
f 23/59/59 157/50/59 150/29/59
f 23/59/59 150/29/59 16/60/59
f 10/58/59 129/49/59 158/50/59
f 10/58/59 158/50/59 24/59/59
f 17/60/59 151/29/59 135/30/59
f 17/60/59 135/30/59 3/57/59
f 11/61/3 162/62/3 164/63/3
f 11/61/3 164/63/3 4/64/3
f 1/56/4 163/55/4 166/54/4
f 1/56/4 166/54/4 18/53/4
f 15/64/1 165/63/1 167/62/1
f 15/64/1 167/62/1 22/61/1
s 1
f 172/65/60 171/66/61 169/67/62
f 172/65/60 169/67/62 170/68/63
f 175/69/64 244/70/65 268/71/66
f 231/72/67 218/73/68 265/74/69
f 230/75/70 214/76/71 263/77/72
f 229/78/73 210/79/74 261/80/75
f 228/81/76 206/82/77 259/83/78
f 227/84/79 202/85/80 257/86/81
f 226/87/82 198/88/83 255/89/84
f 225/90/79 194/91/85 253/92/81
f 224/93/86 190/94/87 251/95/88
f 223/96/89 186/97/90 249/98/91
f 222/99/92 182/100/93 247/101/78
f 221/102/94 178/103/95 245/104/96
f 220/105/97 243/106/98 266/107/99
f 216/108/100 242/109/101 264/110/102
f 212/111/103 241/112/104 262/113/105
f 208/114/106 240/115/101 260/116/107
f 204/117/108 239/118/109 258/119/110
f 200/120/111 238/121/112 256/122/113
f 196/123/114 237/124/115 254/125/116
f 192/126/117 236/127/118 252/128/119
f 188/129/120 235/130/121 250/131/122
f 184/132/123 234/133/124 248/134/125
f 180/135/126 233/136/127 246/137/128
f 232/138/129 267/139/130 217/73/131
f 174/140/132 246/137/128 233/136/127
f 179/135/133 248/134/125 234/133/124
f 183/132/134 250/131/122 235/130/121
f 187/129/135 252/128/119 236/127/118
f 191/126/136 254/125/116 237/124/115
f 195/123/137 256/122/113 238/121/112
f 199/120/138 258/119/110 239/118/109
f 203/117/139 260/116/107 240/115/101
f 207/114/140 262/113/105 241/112/104
f 211/111/141 264/110/102 242/109/101
f 219/105/142 217/73/131 267/139/130
f 219/105/142 267/139/130 268/71/66
f 215/108/143 266/107/99 243/106/98
f 221/102/94 245/104/96 173/141/144
f 222/99/92 247/101/78 177/103/145
f 246/137/128 245/104/96 178/103/95
f 246/137/128 178/103/95 180/135/126
f 223/96/89 249/98/91 181/100/146
f 248/134/125 247/101/78 182/100/93
f 248/134/125 182/100/93 184/132/123
f 224/93/86 251/95/88 185/97/147
f 183/132/134 181/100/146 249/98/91
f 183/132/134 249/98/91 250/131/122
f 225/90/79 253/92/81 189/94/148
f 250/131/122 249/98/91 186/97/90
f 250/131/122 186/97/90 188/129/120
f 226/87/82 255/89/84 193/91/149
f 254/125/116 253/92/81 194/91/85
f 254/125/116 194/91/85 196/123/114
f 227/84/79 257/86/81 197/88/150
f 256/122/113 255/89/84 198/88/83
f 256/122/113 198/88/83 200/120/111
f 228/81/76 259/83/78 201/85/151
f 258/119/110 257/86/81 202/85/80
f 258/119/110 202/85/80 204/117/108
f 229/78/73 261/80/75 205/82/152
f 260/116/107 259/83/78 206/82/77
f 260/116/107 206/82/77 208/114/106
f 230/75/70 263/77/72 209/79/153
f 262/113/105 261/80/75 210/79/74
f 262/113/105 210/79/74 212/111/103
f 264/110/102 263/77/72 214/76/71
f 264/110/102 214/76/71 216/108/100
f 231/72/67 265/74/69 213/76/154
f 215/108/143 213/76/154 265/74/69
f 215/108/143 265/74/69 266/107/99
f 211/111/141 209/79/153 263/77/72
f 211/111/141 263/77/72 264/110/102
f 207/114/140 205/82/152 261/80/75
f 207/114/140 261/80/75 262/113/105
f 203/117/139 201/85/151 259/83/78
f 203/117/139 259/83/78 260/116/107
f 199/120/138 197/88/150 257/86/81
f 199/120/138 257/86/81 258/119/110
f 195/123/137 193/91/149 255/89/84
f 195/123/137 255/89/84 256/122/113
f 252/128/119 251/95/88 190/94/87
f 252/128/119 190/94/87 192/126/117
f 191/126/136 189/94/148 253/92/81
f 191/126/136 253/92/81 254/125/116
f 187/129/135 185/97/147 251/95/88
f 187/129/135 251/95/88 252/128/119
f 179/135/133 177/103/145 247/101/78
f 179/135/133 247/101/78 248/134/125
f 174/140/132 173/141/144 245/104/96
f 174/140/132 245/104/96 246/137/128
f 176/142/155 267/139/130 232/138/129
f 219/105/142 268/71/66 244/70/65
f 266/107/99 265/74/69 218/73/68
f 266/107/99 218/73/68 220/105/97
f 268/71/66 267/139/130 176/142/155
f 268/71/66 176/142/155 175/69/64
