# Blender 4.5.3 LTS
# www.blender.org
mtllib pistol_mp_1_mag_extended_loaded.mtl
o pistol_mp_1_mag_extended_loaded
v -0.845985 -4.400624 0.206328
v -0.845985 -4.400624 0.206328
v -0.845985 -4.400624 0.206328
v -0.845985 -4.400624 0.206328
v -1.126332 -4.365537 0.480000
v -1.126332 -4.365537 0.480000
v -1.126332 -4.365537 0.480000
v -1.126332 -4.365537 0.480000
v -1.126332 -4.365537 -0.480000
v -1.126332 -4.365537 -0.480000
v -1.126332 -4.365537 -0.480000
v -1.126332 -4.365537 -0.480000
v -0.845985 -4.400624 -0.206327
v -0.845985 -4.400624 -0.206327
v -0.845985 -4.400624 -0.206327
v -0.845985 -4.400624 -0.206327
v -2.389208 -4.189417 0.480000
v -2.389208 -4.189417 0.480000
v -2.389208 -4.189417 0.480000
v -2.389208 -4.189417 0.480000
v -2.389209 -4.189417 -0.480000
v -2.389209 -4.189417 -0.480000
v -2.389209 -4.189417 -0.480000
v -2.389209 -4.189417 -0.480000
v -1.062147 -4.374362 0.576000
v -1.062147 -4.374362 0.576000
v -1.062147 -4.374362 0.576000
v -0.766822 -4.411521 0.274096
v -0.766822 -4.411521 0.274096
v -0.766822 -4.411521 0.274096
v -0.766822 -4.411521 -0.274096
v -0.766822 -4.411521 -0.274096
v -0.766822 -4.411521 -0.274096
v -1.062147 -4.374362 -0.576000
v -1.062147 -4.374362 -0.576000
v -1.062147 -4.374362 -0.576000
v -2.547717 -4.167622 0.576000
v -2.547717 -4.167622 0.576000
v -2.547717 -4.167622 0.576000
v -2.547717 -4.167622 0.576000
v -2.547717 -4.167622 -0.575999
v -2.547717 -4.167622 -0.575999
v -2.547717 -4.167622 -0.575999
v -2.547717 -4.167622 -0.575999
v -1.162736 -4.595431 0.576000
v -1.162736 -4.595431 0.576000
v -0.867411 -4.632590 0.274096
v -0.867411 -4.632590 0.274096
v -0.867411 -4.632590 -0.274096
v -0.867411 -4.632590 -0.274096
v -1.162736 -4.595431 -0.576000
v -1.162736 -4.595431 -0.576000
v -2.597795 -4.277680 0.576000
v -2.597795 -4.277680 0.576000
v -2.597795 -4.277680 0.576000
v -2.527508 -4.405501 0.576000
v -2.527508 -4.405501 0.576000
v -2.527508 -4.405501 0.576000
v -2.527509 -4.405501 -0.576000
v -2.527509 -4.405501 -0.576000
v -2.527509 -4.405501 -0.576000
v -2.597795 -4.277680 -0.575999
v -2.597795 -4.277680 -0.575999
v -2.597795 -4.277680 -0.575999
v 1.574382 1.970581 0.480001
v 1.574382 1.970581 0.480001
v 1.574382 1.970581 0.480001
v 1.574382 1.970581 0.480001
v 1.574382 1.970581 -0.479997
v 1.574382 1.970581 -0.479997
v 1.574382 1.970581 -0.479997
v 1.574382 1.970581 -0.479997
v 1.694879 1.970581 0.206328
v 1.694879 1.970581 0.206328
v 1.694879 1.970581 0.206328
v 1.694879 1.970581 0.206328
v 1.694879 1.970581 -0.206326
v 1.694879 1.970581 -0.206326
v 1.694879 1.970581 -0.206326
v 1.694879 1.970581 -0.206326
v 0.311655 1.970581 0.480001
v 0.311655 1.970581 0.480001
v 0.311655 1.970581 0.480001
v 0.311655 1.970581 0.480001
v 0.311655 1.970581 -0.479999
v 0.311655 1.970581 -0.479999
v 0.311655 1.970581 -0.479999
v 0.311655 1.970581 -0.479999
v 0.471655 1.970581 -0.206325
v 0.471655 1.970581 -0.206325
v 0.471655 1.970581 -0.206325
v 0.471655 1.970581 -0.206325
v 0.471655 1.970581 -0.206325
v 0.471655 1.970581 0.206327
v 0.471655 1.970581 0.206327
v 0.471655 1.970581 0.206327
v 0.471655 1.970581 0.206327
v 0.471655 1.970581 0.206327
v 1.636090 2.210581 0.480001
v 1.636090 2.210581 0.480001
v 1.636090 2.210581 0.480001
v 1.776300 2.130581 0.206328
v 1.776300 2.130581 0.206328
v 1.776300 2.130581 0.206328
v 1.776300 2.130581 -0.206326
v 1.776300 2.130581 -0.206326
v 1.776300 2.130581 -0.206326
v 1.636090 2.210581 -0.479999
v 1.636090 2.210581 -0.479999
v 1.636090 2.210581 -0.479999
v 0.423705 2.210581 0.480001
v 0.423705 2.210581 0.480001
v 0.423705 2.210581 0.480001
v 0.423705 2.210581 -0.479999
v 0.423705 2.210581 -0.479999
v 0.423705 2.210581 -0.479999
v 0.471602 2.130581 0.206327
v 0.471602 2.130581 0.206327
v 0.471602 2.130581 0.206327
v 0.471602 2.130581 -0.206324
v 0.471602 2.130581 -0.206324
v 0.471602 2.130581 -0.206324
v 1.854878 1.970581 0.206327
v 1.854878 1.970581 0.206327
v 1.854878 1.970581 0.206327
v 1.854878 1.970581 0.206327
v 1.854878 1.970581 0.206327
v 1.854878 1.970581 0.206327
v 1.854878 1.970581 -0.206326
v 1.854878 1.970581 -0.206326
v 1.854878 1.970581 -0.206326
v 1.854878 1.970581 -0.206326
v 1.854878 1.970581 -0.206326
v 1.854878 1.970581 -0.206326
v 0.311655 1.970581 -0.366324
v 0.311655 1.970581 -0.366324
v 0.311655 1.970581 -0.366324
v 0.311655 1.970581 0.366327
v 0.311655 1.970581 0.366327
v 0.311655 1.970581 0.366327
v 1.776263 2.210581 0.297672
v 1.776263 2.210581 0.297672
v 1.776263 2.210581 0.297672
v 1.776263 2.210581 0.297672
v 1.776263 2.210581 -0.297669
v 1.776263 2.210581 -0.297669
v 1.776263 2.210581 -0.297669
v 1.776263 2.210581 -0.297669
v 0.423705 2.210581 0.297671
v 0.423705 2.210581 0.297671
v 0.423705 2.210581 0.297671
v 0.423705 2.210581 0.297671
v 0.423705 2.210581 -0.297668
v 0.423705 2.210581 -0.297668
v 0.423705 2.210581 -0.297668
v 0.423705 2.210581 -0.297668
v 0.400087 1.810581 -0.206325
v 0.400087 1.810581 -0.206325
v 0.400087 1.810581 -0.206325
v 0.400087 1.810581 0.206327
v 0.400087 1.810581 0.206327
v 0.400087 1.810581 0.206327
v 1.623310 1.810581 0.206328
v 1.623310 1.810581 0.206328
v 1.623310 1.810581 0.206328
v 1.623310 1.810581 -0.206326
v 1.623310 1.810581 -0.206326
v 1.623310 1.810581 -0.206326
v 0.511963 2.047997 0.223998
v 0.511963 2.047997 0.223998
v 0.511963 2.047997 0.223998
v 0.511963 2.271997 -0.000002
v 0.511963 2.271997 -0.000002
v 0.511963 2.271997 -0.000002
v 0.511963 2.206389 0.158390
v 0.511963 2.206389 0.158390
v 1.279963 2.271997 -0.000002
v 1.279963 2.271997 -0.000002
v 1.279963 2.271997 -0.000002
v 1.279963 2.271997 -0.000002
v 1.279963 2.047997 0.223998
v 1.279963 2.047997 0.223998
v 1.279963 2.047997 0.223998
v 1.279963 2.047997 0.223998
v 1.279963 2.206389 0.158390
v 1.279963 2.206389 0.158390
v 0.511963 2.047997 -0.224002
v 0.511963 2.047997 -0.224002
v 0.511963 2.047997 -0.224002
v 0.511963 2.206389 -0.158394
v 0.511963 2.206389 -0.158394
v 1.279963 2.047997 -0.224002
v 1.279963 2.047997 -0.224002
v 1.279963 2.047997 -0.224002
v 1.279963 2.047997 -0.224002
v 1.279963 2.206389 -0.158394
v 1.279963 2.206389 -0.158394
v 0.511963 1.823997 -0.000002
v 0.511963 1.823997 -0.000002
v 0.511963 1.823997 -0.000002
v 0.511963 1.889605 0.158390
v 0.511963 1.889605 0.158390
v 1.279963 1.823997 -0.000002
v 1.279963 1.823997 -0.000002
v 1.279963 1.823997 -0.000002
v 1.279963 1.823997 -0.000002
v 1.279963 1.889605 0.158390
v 1.279963 1.889605 0.158390
v 0.511963 1.889605 -0.158394
v 0.511963 1.889605 -0.158394
v 1.279963 1.889605 -0.158394
v 1.279963 1.889605 -0.158394
v 1.429435 2.271997 -0.000002
v 1.429435 2.271997 -0.000002
v 1.695963 2.047997 -0.000002
v 1.604644 2.207791 -0.000002
v 1.604644 2.207791 -0.000002
v 1.604644 2.207791 -0.000002
v 1.429435 2.047997 0.223998
v 1.429435 2.047997 0.223998
v 1.604644 2.047997 0.159792
v 1.604644 2.047997 0.159792
v 1.604644 2.047997 0.159792
v 1.429435 2.206389 0.158390
v 1.604644 2.160988 0.112989
v 1.604644 2.160988 0.112989
v 1.604644 2.160988 0.112989
v 1.429435 2.047997 -0.224002
v 1.429435 2.047997 -0.224002
v 1.604644 2.047997 -0.159795
v 1.604644 2.047997 -0.159795
v 1.604644 2.047997 -0.159795
v 1.429435 2.206389 -0.158394
v 1.604644 2.160988 -0.112993
v 1.604644 2.160988 -0.112993
v 1.604644 2.160988 -0.112993
v 1.429435 1.823997 -0.000002
v 1.429435 1.823997 -0.000002
v 1.604644 1.888204 -0.000002
v 1.604644 1.888204 -0.000002
v 1.604644 1.888204 -0.000002
v 1.429435 1.889605 0.158390
v 1.604644 1.935006 0.112989
v 1.604644 1.935006 0.112989
v 1.604644 1.935006 0.112989
v 1.429435 1.889605 -0.158394
v 1.604644 1.935006 -0.112993
v 1.604644 1.935006 -0.112993
v 1.604644 1.935006 -0.112993
v 1.664445 2.141017 -0.000002
v 1.664445 1.982222 0.065773
v 1.664445 2.047997 0.093018
v 1.664445 2.047997 -0.093021
v 1.664445 1.982222 -0.065777
v 1.664445 2.113772 -0.065777
v 1.664445 1.954977 -0.000002
v 1.664445 2.113772 0.065773
v 1.517039 1.898736 0.149259
v 1.517039 2.047997 0.211085
v 1.517039 2.047997 0.211085
v 1.517039 2.047997 -0.211088
v 1.517039 2.047997 -0.211088
v 1.517039 1.898736 -0.149262
v 1.517039 2.259084 -0.000002
v 1.517039 2.259084 -0.000002
v 1.517039 2.197258 -0.149262
v 1.517039 1.836911 -0.000002
v 1.517039 1.836911 -0.000002
v 1.517039 2.197258 0.149259
vn 0.1299 0.9915 0.0054
vn 0.1300 0.9915 0.0055
vn 0.1300 0.9915 0.0056
vn 0.1301 0.9915 0.0056
vn 0.1300 0.9915 -0.0056
vn 0.1301 0.9915 -0.0056
vn 0.1364 0.9907 -0.0000
vn 0.1380 0.9904 0.0008
vn 0.1380 0.9904 0.0010
vn 0.1380 0.9904 0.0009
vn 0.1380 0.9904 -0.0009
vn 0.1380 0.9904 -0.0008
vn 0.1362 0.9907 -0.0000
vn -0.9102 0.4142 -0.0000
vn -0.0000 -0.0000 -1.0000
vn 0.4188 -0.1905 -0.8879
vn 0.3044 -0.1385 -0.9424
vn 0.8553 -0.3892 -0.3421
vn 0.8553 -0.3892 0.3421
vn 0.8375 -0.3811 0.3917
vn 0.8375 -0.3811 -0.3917
vn -0.1362 -0.9907 -0.0000
vn -0.1361 -0.9907 -0.0000
vn -0.1360 -0.9907 -0.0000
vn 0.4188 -0.1905 0.8879
vn 0.3044 -0.1385 0.9424
vn -0.8763 -0.4818 -0.0000
vn -0.0000 -0.0000 1.0000
vn 0.6612 -0.2811 -0.6955
vn 0.6612 -0.2811 -0.6956
vn 0.6734 -0.2367 -0.7004
vn 0.7019 -0.1915 -0.6860
vn -0.9158 0.4016 -0.0000
vn 0.6612 -0.2811 0.6956
vn 0.7019 -0.1915 0.6860
vn 0.6734 -0.2367 0.7004
vn 0.9207 -0.3903 -0.0000
vn -0.0000 1.0000 -0.0000
vn -0.0000 0.7523 -0.6589
vn 0.7020 -0.1914 0.6860
vn 0.7288 -0.1069 0.6763
vn -0.9061 0.4230 -0.0000
vn -0.7469 0.0875 -0.6591
vn -0.7854 0.1990 -0.5861
vn -0.7579 0.1157 -0.6420
vn 0.8375 0.4113 0.3599
vn -0.0000 0.7523 0.6589
vn -0.7579 0.1157 0.6420
vn -0.7854 0.1990 0.5861
vn -0.7469 0.0875 0.6591
vn 0.7288 -0.1069 -0.6763
vn 0.7019 -0.1914 -0.6860
vn 0.7925 0.0277 -0.6093
vn 0.8375 0.4113 -0.3599
vn 0.7925 0.0277 0.6093
vn -0.7071 -0.0002 -0.7071
vn -0.7071 -0.0002 0.7071
vn -0.9128 0.4083 -0.0000
vn 0.9128 -0.4083 -0.0000
vn 0.0002 -0.0000 1.0000
vn -0.0000 -0.7071 0.7071
vn 0.0718 -0.7053 0.7053
vn 0.0718 -0.0000 0.9974
vn -0.0000 0.7071 0.7071
vn -0.0000 0.7071 -0.7071
vn -0.0000 -1.0000 -0.0000
vn -0.0000 -0.7071 -0.7071
vn -0.0001 -1.0000 -0.0000
vn -1.0000 -0.0000 -0.0000
vn 0.0718 0.7053 0.7053
vn 0.0718 0.9974 -0.0000
vn 0.0719 -0.0000 -0.9974
vn 0.0718 -0.7053 -0.7053
vn 0.0719 -0.9974 -0.0000
vn 0.0718 -0.9974 -0.0000
vn 0.0719 0.9974 -0.0000
vn 0.0718 0.7053 -0.7053
vn 0.0718 -0.0000 -0.9974
vn 0.0719 -0.0000 0.9974
vn 0.8420 -0.0000 0.5396
vn 0.6147 -0.0000 0.7887
vn 0.6147 -0.5577 0.5577
vn 0.8420 -0.3815 0.3815
vn 0.3179 -0.6704 0.6704
vn 0.3179 -0.0000 0.9481
vn 0.8420 -0.3815 -0.3815
vn 0.6147 -0.5577 -0.5577
vn 0.6147 -0.0000 -0.7887
vn 0.8420 -0.0000 -0.5395
vn 0.3179 -0.0000 -0.9481
vn 0.3179 -0.6704 -0.6704
vn 0.8420 0.3815 -0.3815
vn 0.6147 0.5577 -0.5577
vn 0.6147 0.7887 -0.0000
vn 0.8420 0.5396 -0.0000
vn 0.3179 0.9481 -0.0000
vn 0.3179 0.6704 -0.6704
vn 0.8420 -0.5396 -0.0000
vn 0.6147 -0.7887 -0.0000
vn 0.3179 -0.9481 -0.0000
vn 0.8420 0.3815 0.3815
vn 0.6147 0.5577 0.5577
vn 0.3179 0.6704 0.6704
vn 1.0000 -0.0000 -0.0000
vn 0.6147 -0.7888 -0.0000
vn 0.6147 -0.5578 0.5577
vn 0.6147 0.5577 -0.5578
vn 0.6147 -0.0000 -0.7888
vn 0.6147 0.5578 0.5577
vn 0.6147 0.7888 -0.0000
vn 0.6147 -0.0000 0.7888
vn 0.6147 0.5577 0.5578
vn 0.6147 -0.5578 -0.5577
vn 0.6147 0.5578 -0.5577
vn 0.6147 -0.5577 -0.5578
vn 0.6147 -0.5577 0.5578
vt 0.018272 0.769573
vt 0.013299 0.772772
vt 0.026208 0.788148
vt 0.030381 0.783709
vt 0.050356 0.783709
vt 0.054529 0.788148
vt 0.067438 0.772772
vt 0.062466 0.769573
vt 0.018396 0.712666
vt 0.014002 0.705546
vt 0.066735 0.705546
vt 0.062341 0.712666
vt 0.066737 0.705225
vt 0.014000 0.705225
vt 0.067290 0.769564
vt 0.066783 0.710159
vt 0.025687 0.785139
vt 0.055049 0.785139
vt 0.013953 0.710158
vt 0.013442 0.769558
vt 0.061778 0.676751
vt 0.011063 0.662227
vt 0.011947 0.941577
vt 0.059704 0.963094
vt 0.069738 0.680126
vt 0.068579 0.968519
vt 0.011063 0.662227
vt 0.059704 0.963094
vt 0.011947 0.941578
vt 0.061718 0.682250
vt 0.022000 0.682250
vt 0.022000 0.937379
vt 0.061715 0.937380
vt 0.068579 0.968519
vt 0.070312 0.691406
vt 0.054688 0.691406
vt 0.054688 0.984375
vt 0.070312 0.984375
vt 0.051540 0.757471
vt 0.045320 0.757469
vt 0.045320 0.808195
vt 0.051541 0.805029
vt 0.011063 0.816899
vt 0.011387 0.827784
vt 0.058008 0.847472
vt 0.059136 0.838083
vt 0.054419 0.752723
vt 0.054533 0.808682
vt 0.061718 0.802882
vt 0.061717 0.752723
vt 0.029298 0.752723
vt 0.029141 0.808681
vt 0.033258 0.808683
vt 0.033320 0.754705
vt 0.069024 0.843648
vt 0.058008 0.847473
vt 0.057015 0.823512
vt 0.054185 0.831728
vt 0.061718 0.831709
vt 0.061718 0.823512
vt 0.051540 0.751250
vt 0.042372 0.754730
vt 0.011387 0.827785
vt 0.011063 0.816899
vt 0.069024 0.843648
vt 0.064818 0.850074
vt 0.066890 0.849296
vt 0.049161 0.754707
vt 0.053705 0.748087
vt 0.033323 0.748087
vt 0.037572 0.754707
vt 0.051541 0.811250
vt 0.049200 0.752736
vt 0.037620 0.752736
vt 0.035854 0.802444
vt 0.048750 0.802444
vt 0.022002 0.752723
vt 0.022000 0.802882
vt 0.050395 0.754705
vt 0.050395 0.808683
vt 0.042372 0.754731
vt 0.022000 0.823512
vt 0.022000 0.831709
vt 0.029533 0.831728
vt 0.026703 0.823512
vt 0.066890 0.849296
vt 0.054897 0.811250
vt 0.054897 0.805029
vt 0.038853 0.805029
vt 0.038853 0.811250
vt 0.048725 0.805314
vt 0.035751 0.805314
vt 0.009766 0.603516
vt 0.015625 0.603516
vt 0.015623 0.608368
vt 0.009753 0.608368
vt 0.009766 0.556641
vt 0.009766 0.582031
vt 0.015625 0.582031
vt 0.015625 0.556641
vt 0.021484 0.582031
vt 0.021484 0.556641
vt 0.023383 0.637313
vt 0.023383 0.643928
vt 0.018973 0.648337
vt 0.012358 0.648337
vt 0.007949 0.643928
vt 0.007949 0.637313
vt 0.012358 0.632903
vt 0.018973 0.632903
vt 0.015623 0.608368
vt 0.009753 0.608368
vt 0.021484 0.603516
vt 0.021492 0.608368
vt 0.021492 0.608368
vt 0.021492 0.608368
vt 0.015623 0.608368
vt 0.009753 0.608368
vt 0.017389 0.661810
vt 0.018912 0.658164
vt 0.023481 0.662749
vt 0.019821 0.664250
vt 0.015636 0.611246
vt 0.010050 0.611246
vt 0.017366 0.670125
vt 0.018870 0.673784
vt 0.012397 0.673757
vt 0.013921 0.670110
vt 0.021223 0.611246
vt 0.015636 0.611246
vt 0.011489 0.667670
vt 0.007830 0.669171
vt 0.007830 0.662691
vt 0.011489 0.664220
vt 0.021223 0.611246
vt 0.015636 0.611246
vt 0.019821 0.667701
vt 0.023481 0.669230
vt 0.010050 0.611246
vt 0.013944 0.661795
vt 0.012440 0.658137
vt 0.021223 0.611246
vt 0.015636 0.611246
vt 0.010050 0.611246
vt 0.010050 0.611246
vt 0.021223 0.611246
vt 0.015655 0.665960
vt 0.020442 0.614501
vt 0.016453 0.614501
vt 0.014851 0.614501
vt 0.010861 0.614501
vt 0.014850 0.614501
vt 0.010861 0.614501
vt 0.020442 0.614501
vt 0.016453 0.614501
vt 0.014850 0.614501
vt 0.010861 0.614501
vt 0.020443 0.614501
vt 0.016453 0.614501
vt 0.020442 0.614501
vt 0.016453 0.614501
vt 0.014850 0.614501
vt 0.010861 0.614501
s 1
usemtl pistols_mp_1
f 5/1/1 25/2/2 28/3/3
f 5/1/1 28/3/3 1/4/4
f 13/5/5 31/6/6 34/7/5
f 13/5/5 34/7/5 11/8/5
s 0
f 2/4/7 29/3/7 32/6/7
f 2/4/7 32/6/7 14/5/7
s 1
f 19/9/8 40/10/9 26/2/10
f 19/9/8 26/2/10 6/1/10
f 12/8/11 35/7/12 44/11/11
f 12/8/11 44/11/11 24/12/11
s 0
f 23/12/13 43/11/13 39/10/13
f 23/12/13 39/10/13 18/9/13
f 37/10/14 41/11/14 62/13/14
f 37/10/14 62/13/14 53/14/14
s 1
f 64/13/15 42/11/15 36/7/16
f 36/7/16 52/15/17 61/16/15
f 36/7/16 61/16/15 64/13/15
f 33/6/18 30/3/19 48/17/20
f 33/6/18 48/17/20 50/18/21
f 57/19/22 60/16/23 51/15/24
f 51/15/24 49/18/23 47/17/24
f 47/17/24 45/20/23 57/19/22
f 51/15/24 47/17/24 57/19/22
f 30/3/19 27/2/25 46/20/26
f 30/3/19 46/20/26 48/17/20
f 36/7/16 33/6/18 50/18/21
f 36/7/16 50/18/21 52/15/17
s 0
f 59/16/27 56/19/27 54/14/27
f 59/16/27 54/14/27 63/13/27
s 1
f 46/20/26 27/2/25 38/10/28
s 0
f 38/10/28 55/14/28 58/19/28
s 1
f 38/10/28 58/19/28 46/20/26
s 0
f 9/21/15 21/22/15 86/23/15
f 9/21/15 86/23/15 71/24/15
s 1
f 16/25/29 10/21/30 72/24/31
f 16/25/29 72/24/31 132/26/32
s 0
f 17/27/28 7/21/28 67/28/28
f 17/27/28 67/28/28 82/29/28
f 22/30/33 20/31/33 84/32/33
f 22/30/33 84/32/33 87/33/33
s 1
f 8/21/34 3/25/34 125/34/35
f 8/21/34 125/34/35 68/28/36
s 0
f 4/35/37 15/36/37 130/37/37
f 4/35/37 130/37/37 128/38/37
f 98/39/15 119/40/15 103/41/15
f 98/39/15 103/41/15 76/42/15
f 85/43/15 114/44/15 108/45/15
f 85/43/15 108/45/15 69/46/15
f 155/47/38 145/48/38 110/49/38
f 155/47/38 110/49/38 115/50/38
f 150/51/39 142/52/39 102/53/39
f 150/51/39 102/53/39 117/54/39
s 1
f 126/55/40 101/56/41 66/46/36
s 0
f 137/57/42 154/58/42 116/59/42
f 137/57/42 116/59/42 88/60/42
s 1
f 140/61/43 152/62/44 118/40/45
s 0
f 65/46/28 100/56/28 111/63/28
f 65/46/28 111/63/28 81/64/28
f 121/40/28 93/39/28 79/42/28
s 1
f 121/40/28 79/42/28 105/41/28
s 0
f 134/65/46 148/66/46 107/67/46
f 89/68/38 136/69/38 139/70/38
f 89/68/38 139/70/38 94/71/38
s 1
f 103/41/15 124/72/15 76/42/15
s 0
f 157/73/38 160/74/38 164/75/38
f 157/73/38 164/75/38 167/76/38
f 113/77/38 99/78/38 141/52/38
f 113/77/38 141/52/38 149/51/38
f 122/79/47 106/80/47 146/48/47
f 122/79/47 146/48/47 156/47/47
s 1
f 120/40/48 153/81/49 135/61/50
s 0
f 83/82/42 112/83/42 151/84/42
f 83/82/42 151/84/42 138/85/42
s 1
f 70/46/31 109/45/51 133/65/52
f 109/45/51 147/66/53 133/65/52
s 0
f 104/86/54 144/66/54 127/55/54
s 1
f 143/66/55 101/56/41 126/55/40
f 97/39/56 140/61/43 118/40/45
f 92/39/57 120/40/48 135/61/50
f 105/41/28 79/42/28 129/72/28
s 0
f 131/87/38 80/88/38 75/89/38
f 131/87/38 75/89/38 123/90/38
f 90/68/28 158/73/28 168/76/28
f 90/68/28 168/76/28 78/91/28
f 77/91/58 166/76/58 163/75/58
f 77/91/58 163/75/58 73/92/58
f 74/92/15 165/75/15 161/74/15
f 74/92/15 161/74/15 95/71/15
f 96/71/59 162/74/59 159/73/59
f 96/71/59 159/73/59 91/68/59
s 1
usemtl ammo_mp_1
f 181/93/60 207/94/61 242/95/62
f 181/93/60 242/95/62 219/96/63
f 169/97/28 182/98/28 186/99/64
f 169/97/28 186/99/64 175/100/64
f 175/100/64 186/99/64 180/101/38
f 175/100/64 180/101/38 173/102/38
f 195/101/15 189/102/15 190/100/65
f 195/101/15 190/100/65 197/99/65
f 197/99/65 190/100/65 172/97/38
f 197/99/65 172/97/38 178/98/38
f 206/101/66 200/102/66 210/100/67
f 206/101/66 210/100/67 212/99/67
f 212/99/67 210/100/67 187/97/15
f 212/99/67 187/97/15 193/98/15
f 184/101/28 171/102/28 202/100/61
f 184/101/28 202/100/61 208/99/61
f 208/99/61 202/100/61 199/97/66
f 208/99/61 199/97/66 204/98/68
s 0
f 176/103/69 174/104/69 191/105/69
f 191/105/69 188/106/69 209/107/69
f 209/107/69 198/108/69 201/109/69
f 201/109/69 170/110/69 176/103/69
f 176/103/69 191/105/69 209/107/69
f 209/107/69 201/109/69 176/103/69
s 1
f 177/93/38 185/94/64 224/111/70
f 177/93/38 224/111/70 213/112/71
f 211/94/67 194/113/15 229/114/72
f 211/94/67 229/114/72 246/111/73
f 207/94/61 205/113/66 238/115/74
f 207/94/61 238/115/74 242/95/62
f 203/93/66 211/94/67 246/111/73
f 203/93/66 246/111/73 237/96/75
f 196/94/65 179/113/38 214/116/76
f 196/94/65 214/116/76 233/117/77
f 192/93/15 196/94/65 233/117/77
f 192/93/15 233/117/77 228/118/78
f 185/94/64 183/113/28 220/115/79
f 185/94/64 220/115/79 224/111/70
f 252/119/80 222/120/81 245/121/82
f 252/119/80 245/121/82 251/122/83
f 258/123/84 259/124/85 219/96/63
f 258/123/84 219/96/63 242/95/62
f 254/125/86 249/126/87 231/127/88
f 254/125/86 231/127/88 253/128/89
f 262/129/90 263/130/91 246/111/73
f 262/129/90 246/111/73 229/114/72
f 255/131/92 234/132/93 216/133/94
f 255/131/92 216/133/94 250/134/95
f 265/135/96 266/136/97 233/117/77
f 265/135/96 233/117/77 214/116/76
f 256/137/98 241/138/99 249/126/87
f 256/137/98 249/126/87 254/125/86
f 263/130/91 267/139/100 237/96/75
f 263/130/91 237/96/75 246/111/73
f 257/140/101 225/141/102 222/120/81
f 257/140/101 222/120/81 252/119/80
f 260/142/85 269/143/103 224/111/70
f 260/142/85 224/111/70 220/115/79
f 250/134/95 216/133/94 225/141/102
f 250/134/95 225/141/102 257/140/101
f 269/143/103 264/144/96 213/112/71
f 269/143/103 213/112/71 224/111/70
f 253/128/89 231/127/88 234/132/93
f 253/128/89 234/132/93 255/131/92
f 266/136/97 261/145/90 228/118/78
f 266/136/97 228/118/78 233/117/77
f 251/122/83 245/121/82 241/138/99
f 251/122/83 241/138/99 256/137/98
f 268/146/100 258/123/84 242/95/62
f 268/146/100 242/95/62 238/115/74
f 215/147/104 251/122/83 256/137/98
f 215/147/104 253/128/89 255/131/92
f 215/147/104 250/134/95 257/140/101
f 215/147/104 257/140/101 252/119/80
f 215/147/104 256/137/98 254/125/86
f 215/147/104 255/131/92 250/134/95
f 215/147/104 254/125/86 253/128/89
f 215/147/104 252/119/80 251/122/83
f 240/148/105 244/149/106 258/123/84
f 240/148/105 258/123/84 268/146/100
f 235/150/107 230/151/108 261/145/90
f 235/150/107 261/145/90 266/136/97
f 226/152/109 217/153/110 264/144/96
f 226/152/109 264/144/96 269/143/103
f 223/154/111 227/155/112 269/143/103
f 223/154/111 269/143/103 260/142/85
f 247/156/113 239/157/105 267/139/100
f 247/156/113 267/139/100 263/130/91
f 218/158/110 236/159/114 266/136/97
f 218/158/110 266/136/97 265/135/96
f 232/160/108 248/161/115 263/130/91
f 232/160/108 263/130/91 262/129/90
f 243/162/116 221/163/111 259/124/85
f 243/162/116 259/124/85 258/123/84
